<?xml version="1.0" encoding="UTF-8"?><svg xmlns="http://www.w3.org/2000/svg" width="50" height="50" xmlns:xlink="http://www.w3.org/1999/xlink" viewBox="0 0 50 50"><defs><style>.cls-1{fill:none;}.cls-2{clip-path:url(#clippath);}.cls-3{fill:#fff;}</style><clipPath id="clippath"><path class="cls-1" d="M9.75,13.3c0-1.54,1.24-2.79,2.78-2.79,1.54,0,2.79,1.24,2.79,2.78,0,2.46,0,4.08,.01,4.84,0,.07-.08,.12-.15,.09-.78-.41-1.67-.65-2.62-.65s-1.86,.23-2.65,.65c-.07,.04-.15,0-.15-.09,0-.76,0-2.37-.01-4.83h0Zm30.51,23.4c0,1.54-1.24,2.79-2.78,2.79-1.54,0-2.79-1.24-2.79-2.78,0-2.46,0-4.08-.01-4.84,0-.07,.08-.12,.15-.09,.78,.41,1.67,.65,2.62,.65s1.86-.23,2.65-.65c.07-.04,.15,0,.15,.09,0,.76,0,2.37,.01,4.83h0ZM8.78,23.21c0-2.07,1.68-3.75,3.75-3.75s3.75,1.68,3.75,3.75-1.68,3.75-3.75,3.75-3.75-1.68-3.75-3.75h0Zm24.93,3.58c0-2.07,1.68-3.75,3.75-3.75s3.75,1.68,3.75,3.75-1.68,3.75-3.75,3.75-3.75-1.68-3.75-3.75h0Zm-11.44-8.03c0-4.97,4.03-9,9-9s9,4.03,9,9c0,1.32,0,2.3,0,2.96,0,.08-.08,.13-.15,.09-.79-.42-1.68-.65-2.63-.65s-1.85,.24-2.63,.65c-.08,.04-.16-.01-.16-.09,0-.66,0-1.64,0-2.96h0c0-1.9-1.54-3.44-3.44-3.44s-3.44,1.54-3.44,3.44c0,0-.06,12.47-.06,12.48,0,4.97-4.03,9-9,9s-9-4.03-9-9c0-1.32,0-2.3,0-2.96,0-.08,.08-.13,.15-.09,.79,.42,1.68,.65,2.63,.65s1.85-.24,2.63-.65c.08-.04,.16,.01,.16,.09,0,.66,0,1.64,0,2.96h0c0,1.9,1.54,3.44,3.44,3.44s3.44-1.54,3.44-3.44c0,0,.06-12.48,.06-12.48h0Z"/></clipPath></defs><g id="background"><rect width="50" height="50" rx="8" ry="8"/></g><g id="art"><g class="cls-2"><polygon class="cls-3" points="8.52 40.51 41.48 40.51 41.48 9.49 8.52 9.49 8.52 40.51 8.52 40.51"/></g></g></svg>