<?xml version="1.0" encoding="UTF-8"?><svg xmlns="http://www.w3.org/2000/svg" width="50" height="50" viewBox="0 0 50 50"><defs><style>.cls-1{stroke:#000;}.cls-1,.cls-2{fill:none;}.cls-1,.cls-2,.cls-3{stroke-linecap:round;stroke-miterlimit:10;stroke-width:1.5px;}.cls-2,.cls-3{stroke:#fff;}.cls-3{fill:#fff;}</style></defs><g id="background"><rect width="50" height="50" rx="8" ry="8"/></g><g id="art"><path class="cls-3" d="M24.98,34.6c5.69,0,13.37-8.06,13.37-8.06v-7.27l-13.37-3.87-13.37,3.87v7.27s7.68,8.06,13.37,8.06Z"/><line class="cls-1" x1="24.98" y1="23.29" x2="24.98" y2="29.93"/><path class="cls-2" d="M11.61,19.27s-1.64-.31-2.49-.31-3.95,.14-3.95,3.53,2.82,4.05,6.44,4.05"/><path class="cls-2" d="M38.39,19.27s1.64-.31,2.49-.31,3.95,.14,3.95,3.53-2.82,4.05-6.44,4.05"/><polyline class="cls-1" points="28.37 19.3 24.98 18.22 21.62 19.3"/></g></svg>