<?xml version="1.0" encoding="UTF-8"?><svg xmlns="http://www.w3.org/2000/svg" width="50" height="50" viewBox="0 0 50 50"><defs><style>.cls-1{fill:#fff;}</style></defs><g id="background"><rect width="50" height="50" rx="8" ry="8"/></g><g id="art"><g id="TAP_Vending_Machine"><g><path class="cls-1" d="M44.17,35.42c0,1.15-.94,2.08-2.08,2.08h-15.47c-.4-2.83-2.83-5-5.77-5s-5.37,2.17-5.77,5h-.48c-1.15,0-2.08-.94-2.08-2.08V17.08c0-1.15,.94-2.08,2.08-2.08h27.5c1.15,0,2.08,.94,2.08,2.08v18.33Zm-9.93-1.09l.13-.6c-.21-.02-.25-.07-.25-.35v-1.29c0-.68-.33-.98-1.07-.98-.84,0-1.31,.31-1.31,.86,0,.09,0,.12,.04,.21l.76-.17s-.02-.05-.02-.08c0-.15,.19-.28,.43-.28,.26,0,.38,.15,.38,.48v.26l-.88,.25c-.45,.13-.64,.28-.74,.56-.03,.1-.05,.21-.05,.31,0,.49,.37,.84,.9,.84,.31,0,.57-.11,.86-.38,.14,.27,.27,.34,.66,.34h.17Zm-.92-1.41v.6c-.11,.09-.15,.11-.21,.14-.11,.06-.23,.09-.33,.09-.2,0-.32-.12-.32-.32,0-.08,.01-.14,.06-.26l.79-.26h0Zm3.11,1.47c.84,0,1.5-.75,1.5-1.73,0-.89-.54-1.54-1.28-1.54-.2,0-.38,.05-.53,.15-.11,.07-.19,.15-.34,.35v-.42h-.8v4.63h.8v-1.67c.15,.13,.22,.17,.41,.2,.08,.01,.17,.02,.25,.02h0Zm.03-2.62c.37,0,.64,.39,.64,.95s-.33,1.03-.76,1.03c-.13,0-.29-.04-.39-.09-.13-.07-.17-.15-.17-.37v-1.03c.19-.33,.42-.48,.68-.48h0Zm-5.59,1.64h-.02c-.2,.14-.31,.19-.4,.19s-.13-.05-.13-.4v-1.29h.64v-.6h-.64v-.91l-.02-.12-.74,.12v.91s-.44,.08-.44,.08v.52h.44v1.81c0,.45,.19,.66,.6,.66,.21,0,.44-.07,.67-.2l.1-.06,.2-.12v-.02l-.26-.58h0Zm8.94-4.97v-.93h-.93v.93h.93Zm.93,.93v-.93h-.93v.93h.93Zm0,1.86v-.93h-.93v.93h.93Zm-.93,.93v-.93h-.93v.93h.93Zm1.86-1.86v-.93h-.93v.93h.93Zm-1.86,0v-.93h-.93v.93h.93Z"/><path class="cls-1" d="M34.34,6.74c-.12,0-.24,.01-.36,.04L7.14,12.73c-.9,.2-1.47,1.09-1.27,1.99l3.97,17.9c.17,.76,.85,1.31,1.63,1.31,.07,0,.13,0,.2-.01V17.08c0-1.61,1.31-2.92,2.92-2.92h22.75l-1.36-6.12c-.17-.76-.85-1.31-1.63-1.31Z"/><path class="cls-1" d="M25.84,38.33c0,2.76-2.24,5-5,5s-5-2.24-5-5c0-.28,.03-.56,.07-.83,.4-2.36,2.46-4.17,4.93-4.17s4.53,1.81,4.93,4.17c.05,.27,.07,.55,.07,.83Zm-2.94,1.06c0-.48-.13-.87-.42-1.14-.23-.21-.54-.35-1.04-.43l-.29-.05v-1.33c.31,.02,.69,.12,.94,.37l.67-.66c-.41-.4-.88-.59-1.5-.62v-.68h-.77v.69c-.99,.11-1.58,.75-1.58,1.63,0,.46,.13,.8,.39,1.06,.23,.23,.59,.4,1.05,.46l.24,.03v1.38c-.46-.02-.89-.14-1.21-.46l-.69,.69c.5,.5,1.07,.69,1.8,.72v.82h.77v-.85c.95-.11,1.64-.69,1.64-1.62Zm-2.31-1.66c-.21-.03-.38-.1-.5-.21-.11-.11-.16-.25-.16-.39,0-.34,.22-.61,.66-.67v1.27Zm1.27,1.69c0,.37-.25,.6-.71,.66v-1.31c.2,.03,.39,.05,.54,.2,.11,.11,.17,.27,.17,.46Z"/></g></g></g></svg>