<?xml version="1.0" encoding="UTF-8"?><svg xmlns="http://www.w3.org/2000/svg" width="50" height="50" viewBox="0 0 50 50"><defs><style>.cls-1{fill:none;stroke:#000;stroke-linecap:round;stroke-linejoin:round;}.cls-2{fill:#fff;}</style></defs><g id="background"><rect width="50" height="50" rx="8" ry="8"/></g><g id="art"><g><polygon class="cls-2" points="25.09 28.49 26.38 28.49 26.38 24.08 25.09 22.79 25.09 28.49"/><path class="cls-2" d="M8.75,7.29V42.71H41.25V7.29H8.75Zm1.25,34.17V23.36l7.47,6.64v5.83c0,.1,.04,.2,.11,.27l2.18,2.18c.07,.07,.17,.11,.27,.11h5.71c.1,0,1.87,.04,1.94,.11l2.79,2.95H10Z"/></g></g><g id="trace"><polyline class="cls-1" points="33.74 21.8 29 21.8 29 13.11 34.82 13.11"/><polyline class="cls-1" points="14 12.72 14 14.81 22.25 14.81 24.81 17.37 24.81 19.96 21.48 19.96"/><polyline class="cls-1" points="32.74 20.52 26.81 20.52 25.07 22.06 23.7 23.28 13.32 23.28"/><polyline class="cls-1" points="25.07 22.06 26.88 23.87 26.88 35.14 26.21 35.14 26.21 34.04"/><line class="cls-1" x1="20.12" y1="23.31" x2="20.12" y2="28.74"/><line class="cls-1" x1="24.65" y1="22.54" x2="24.65" y2="34.75"/><polyline class="cls-1" points="30.16 28.89 19.04 28.89 19.04 31.57"/><line class="cls-1" x1="24.81" y1="19.96" x2="25.89" y2="20.98"/></g></svg>