<?xml version="1.0" encoding="UTF-8"?><svg xmlns="http://www.w3.org/2000/svg" width="50" height="50" viewBox="0 0 50 50"><defs><style>.cls-1{fill:#fff;}</style></defs><g id="background"><rect width="50" height="50" rx="8" ry="8"/></g><g id="art"><g><path class="cls-1" d="M21.97,6.52v10.53h-1.57V6.52c0-1.33-2.06-1.21-2.06,0v10.53h-1.57V6.52c0-1.33-2.06-1.21-2.06,0v14.16c0,2.06,1.21,3.39,2.66,3.39v18.63c0,3.63,3.87,3.63,3.87,0V24.06c1.57,0,2.78-1.82,2.78-3.27V6.52c-.12-1.33-2.06-1.21-2.06,0"/><path class="cls-1" d="M30.81,9.78V28.3h2.42v14.4c0,3.51,3.75,3.51,3.63-.12V9.78c0-5.69-6.17-5.57-6.05,0"/></g></g></svg>