<?xml version="1.0" encoding="UTF-8"?><svg xmlns="http://www.w3.org/2000/svg" width="50" height="50" viewBox="0 0 50 50"><defs><style>.cls-1{fill:#000105;}.cls-2{fill:#007bc9;}.cls-3{fill:#fff;fill-rule:evenodd;}</style></defs><g id="background"><rect width="50" height="50" rx="8" ry="8"/></g><g id="art"><g><path class="cls-2" d="M45.27,24.99c0,11.37-9.21,20.58-20.58,20.58S4.11,36.36,4.11,24.99,13.32,4.41,24.69,4.41s20.58,9.21,20.58,20.58Z"/><path class="cls-3" d="M41.82,24.99c0,9.46-7.67,17.14-17.14,17.14S7.55,34.45,7.55,24.99,15.22,7.85,24.69,7.85s17.14,7.67,17.14,17.14Z"/><path class="cls-1" d="M27.27,28.47h-4.19v8.19h-4.25V14.9h8.43c4.49,0,7.18,3.09,7.18,6.78s-2.69,6.78-7.18,6.78Zm-.21-9.78h-3.97v5.96h3.97c1.92,0,3.15-1.19,3.15-2.96s-1.22-3-3.15-3Z"/></g></g></svg>