<?xml version="1.0" encoding="UTF-8"?><svg xmlns="http://www.w3.org/2000/svg" width="50" height="50" viewBox="0 0 50 50"><defs><style>.cls-1{fill:#fff;}</style></defs><g id="background"><rect width="50" height="50" rx="8" ry="8"/></g><g id="art"><path class="cls-1" d="M38.24,16.84c-.8-6.69-6.49-11.74-13.24-11.74s-12.44,5.05-13.24,11.74c-.06,.53-.09,1.07-.09,1.59,0,2.22,.56,4.42,1.62,6.38l11.5,19.92c.11,.2,.3,.2,.42,0l11.51-19.95c1.05-1.94,1.61-4.14,1.61-6.36,0-.52-.03-1.06-.09-1.6Zm-13.24,6.6c-2.76,0-5-2.24-5-5s2.24-5,5-5,5,2.24,5,5-2.24,5-5,5Z"/></g></svg>