<?xml version="1.0" encoding="UTF-8"?><svg xmlns="http://www.w3.org/2000/svg" width="50" height="50" viewBox="0 0 50 50"><defs><style>.cls-1{fill:#fff;}</style></defs><g id="background"><rect width="50" height="50" rx="8" ry="8"/></g><g id="art"><g><path class="cls-1" d="M39.92,20.84c-.44,.02-.79,.38-.79,.83,0,.31,.17,.58,.42,.72v1.36c0,.23,.19,.42,.42,.42s.42-.19,.42-.42v-1.36c.25-.14,.42-.41,.42-.72,0-.45-.35-.81-.79-.83-.01,0-.03,0-.04,0s-.03,0-.04,0Z"/><path class="cls-1" d="M31.63,11.67v26.67h15.83V11.67h-15.83Zm5.83,5.83c0-1.38,1.12-2.5,2.5-2.5s2.5,1.12,2.5,2.5v1.67h-.83v-1.67c0-.92-.75-1.67-1.67-1.67s-1.67,.75-1.67,1.67v1.67h-.83v-1.67Zm5.83,7.5h-6.67v-5h6.67v5Z"/></g><path class="cls-1" d="M30.8,34.52c-1.47-1.14-2.42-2.93-2.42-4.94s.95-3.8,2.42-4.94v-3.35l-1.25-2.17-.96-1.67-1.66-2.87c-.15-.26-.42-.42-.72-.42h-2c-.46,0-.83,.37-.83,.83s.37,.83,.83,.83h1.52l1.44,2.49h-10.16l-.5-.88-.45-.79h.66c.08,0,.16,0,.25,0,.74,0,1.42-.08,1.42-.83,0-.42-.21-.62-.52-.73-.31-.1-.73-.1-1.15-.1-1.01,0-1.41-.31-1.94-.55-.34-.16-.74-.28-1.39-.28-.23,0-.47,0-.69,.02-.55,.05-.98,.22-.98,.81,0,.83,0,1.67,1.67,1.67h.75l1.42,2.45-1.86,3.23c-.98-.44-2.07-.68-3.22-.68-4.37,0-7.92,3.54-7.92,7.92s3.54,7.92,7.92,7.92c4.09,0,7.46-3.1,7.87-7.08h1.85c.34,.97,1.27,1.67,2.36,1.67,1.38,0,2.5-1.12,2.5-2.5,0-.62-.23-1.19-.6-1.62l4.14-7.17,1.38,2.4c-1.97,1.44-3.26,3.77-3.26,6.4,0,2.98,1.65,5.58,4.09,6.93v-1.99Zm-20.34,1.31c-3.45,0-6.25-2.8-6.25-6.25s2.8-6.25,6.25-6.25c.84,0,1.64,.17,2.38,.47l-3.1,5.37v.02s-.03,.04-.04,.07h0s-.02,.06-.02,.08c-.01,.04-.02,.08-.03,.12v.02s0,.07,0,.1h0v.04s0,.03,0,.05c0,.03,0,.06,.01,.09,0,.03,.01,.05,.02,.08h0s.02,.06,.03,.08h0s.02,.05,.03,.07c.01,.02,.02,.04,.03,.06v.02s.03,.03,.05,.05c.07,.08,.15,.15,.24,.2l.03,.02s.08,.04,.12,.05h.03s.04,.02,.06,.02c.03,0,.05,.01,.08,.01,.03,0,.06,0,.08,0h6.2c-.41,3.06-3.03,5.42-6.19,5.42Zm1.44-7.08l2.38-4.12c1.27,.98,2.15,2.44,2.38,4.12h-4.75Zm8.28,0h-1.85c-.24-2.29-1.45-4.28-3.22-5.57l1.38-2.4,4.14,7.17c-.2,.23-.35,.5-.46,.79Zm3.19,.83s0,.06,0,.09c0,.03,0,.05-.01,.08,0,.02,0,.03-.01,.05,0,.02,0,.03-.01,.04-.02,.05-.03,.09-.06,.13h0v.02s-.03,.03-.04,.05v.02h-.02l-.02,.02h0v.02h-.02v.02h-.02s0,.02-.02,.03c0,0-.02,.02-.02,.02-.01,.01-.03,.03-.04,.04h-.02s-.01,.02-.02,.03c0,0-.02,.01-.02,.02-.02,.02-.05,.03-.07,.05h-.01l-.02,.02s-.04,.02-.06,.03c-.02,0-.04,.02-.06,.02-.01,0-.03,0-.04,.01h0s-.03,.01-.05,.01c-.03,0-.06,.01-.08,.01-.03,0-.06,0-.08,0h0s-.06,0-.08,0h0s-.05,0-.08-.01c-.02,0-.04,0-.06-.02,0,0-.02,0-.03,0h-.01s-.03-.02-.05-.02h-.01s-.04-.02-.06-.03l-.03-.02s-.01,0-.02,0l-.03-.02h0s-.02-.02-.02-.02l-.02-.02s-.01,0-.02-.02c0,0-.02-.01-.02-.02-.02-.01-.03-.03-.05-.04-.01-.01-.02-.02-.03-.03h-.01v-.02h-.02l-.02-.04v-.02h-.02v-.02s-.03-.03-.03-.04c-.01-.02-.02-.05-.03-.07h0s-.02-.05-.03-.08h0s-.01-.06-.02-.08c0-.03-.01-.06-.01-.09,0-.01,0-.03,0-.05,0-.01,0-.03,0-.04,0-.03,0-.07,0-.1v-.02s.02-.08,.03-.12c0-.02,.02-.05,.02-.07h0s.02-.06,.03-.08c.14-.26,.42-.44,.73-.44s.58,.17,.72,.42h0s.01,.03,.02,.04c.02,.04,.04,.08,.05,.12,0,0,0,.02,0,.03,0,.02,.01,.04,.02,.06,0,.03,.01,.05,.01,.08,0,.03,0,.06,0,.08h0Zm-.38-2.46c-.15-.03-.3-.04-.46-.04s-.31,.01-.46,.04l-4.12-7.13h9.15l-4.12,7.13Z"/></g></svg>