<?xml version="1.0" encoding="utf-8"?>
<!-- Generator: Adobe Illustrator 26.3.1, SVG Export Plug-In . SVG Version: 6.00 Build 0)  -->
<svg version="1.1" xmlns="http://www.w3.org/2000/svg" xmlns:xlink="http://www.w3.org/1999/xlink" x="0px" y="0px"
	 viewBox="0 0 50 50" style="enable-background:new 0 0 50 50;" xml:space="preserve">
<style type="text/css">
	.st0{fill:#FFFFFF;}
</style>
<g id="background">
	<g>
		<path d="M42,50H8c-4.4,0-8-3.6-8-8V8c0-4.4,3.6-8,8-8h34c4.4,0,8,3.6,8,8v34C50,46.4,46.4,50,42,50z"/>
	</g>
</g>
<g id="art">
	<g>
		<g>
			<path class="st0" d="M34.6,21.2c-1.1,0-2.2,0.2-3.2,0.7l-1.9-3.2l-1-1.7l-1.7-2.9c-0.1-0.3-0.4-0.4-0.7-0.4h-2
				c-0.5,0-0.8,0.4-0.8,0.8s0.4,0.8,0.8,0.8h1.5l1.4,2.5H17L16.5,17L16,16.2h0.9c0.7,0,1.4-0.1,1.4-0.8c0-0.3-0.2-0.6-0.5-0.7
				c-0.3-0.1-0.7-0.1-1.1-0.1c-1,0-1.4-0.3-1.9-0.6c-0.4-0.2-0.9-0.3-1.4-0.3c-0.2,0-0.5,0-0.7,0c-0.6,0-1,0.2-1,0.8
				c0,0.8,0,1.7,1.7,1.7h0.7l1.4,2.5l-1.9,3.2c-4-1.8-8.7,0-10.5,4c-1.8,4,0,8.7,4,10.5s8.7,0,10.5-4c0.3-0.8,0.6-1.6,0.6-2.4h1.9
				c0.5,1.3,1.9,2,3.2,1.5c1.3-0.5,2-1.9,1.5-3.2c-0.1-0.3-0.3-0.6-0.5-0.8l4.1-7.2l1.4,2.4c-3.5,2.6-4.3,7.5-1.8,11.1
				c2.6,3.5,7.5,4.3,11.1,1.8c3.5-2.6,4.3-7.5,1.8-11.1C39.6,22.4,37.2,21.2,34.6,21.2z M10.4,35.3c-3.5,0-6.2-2.8-6.2-6.3
				c0-3.5,2.8-6.2,6.3-6.2c0.8,0,1.6,0.2,2.3,0.5l-3.1,5.4l0,0c0,0,0,0,0,0.1c0,0,0,0,0,0c0,0,0,0,0,0.1c0,0,0,0.1,0,0.1
				c0,0,0,0,0,0c0,0,0,0.1,0,0.1c0,0,0,0,0,0s0,0,0,0s0,0,0,0c0,0,0,0.1,0,0.1c0,0,0,0.1,0,0.1v0c0,0,0,0,0,0.1c0,0,0,0,0,0.1
				c0,0,0,0,0,0.1l0,0l0,0c0.1,0.1,0.1,0.2,0.2,0.2l0,0c0,0,0.1,0,0.1,0.1l0,0c0,0,0,0,0.1,0c0,0,0.1,0,0.1,0c0,0,0.1,0,0.1,0h6.2
				C16.2,33,13.6,35.3,10.4,35.3z M11.9,28.3l2.4-4.1c1.3,1,2.2,2.5,2.4,4.1H11.9z M20.2,28.3h-1.9c-0.2-2.2-1.4-4.3-3.2-5.6
				l1.4-2.4l4.1,7.2C20.4,27.7,20.3,28,20.2,28.3z M23.4,29.1C23.4,29.1,23.4,29.1,23.4,29.1c0,0.1,0,0.1,0,0.2c0,0,0,0,0,0.1
				c0,0,0,0,0,0c0,0,0,0.1-0.1,0.1l0,0c0,0,0,0,0,0c0,0,0,0,0,0l0,0l0,0v0c0,0,0,0,0,0l0,0c0,0,0,0,0,0l0,0c0,0,0,0,0,0l0,0
				c0,0,0,0,0,0c0,0,0,0,0,0c0,0,0,0,0,0c0,0,0,0-0.1,0l0,0l0,0c0,0-0.1,0-0.1,0.1c0,0,0,0,0,0c0,0,0,0-0.1,0c0,0-0.1,0-0.1,0
				c0,0-0.1,0-0.1,0l0,0c0,0-0.1,0-0.1,0c0,0-0.1,0-0.1,0c0,0,0,0-0.1,0l0,0h0h0l0,0h0c0,0,0,0-0.1,0l0,0c0,0,0,0,0,0l0,0l0,0l0,0
				l0,0l0,0l0,0c0,0,0,0,0,0c0,0,0,0,0,0l0,0l0,0l0,0l0,0l0,0v0l0,0c0,0,0,0,0,0s0,0,0-0.1c0,0,0,0,0-0.1v0c0,0,0-0.1,0-0.1
				c0,0,0-0.1,0-0.1c0,0,0,0,0,0v0c0,0,0-0.1,0-0.1c0,0,0,0,0,0c0,0,0-0.1,0-0.1c0,0,0,0,0-0.1c0,0,0,0,0,0c0,0,0,0,0-0.1
				c0.2-0.4,0.7-0.6,1.1-0.3c0.1,0.1,0.2,0.2,0.3,0.3c0,0,0,0,0,0c0,0,0,0.1,0.1,0.1c0,0,0,0,0,0c0,0,0,0,0,0.1
				C23.4,28.9,23.4,29,23.4,29.1C23.4,29,23.4,29.1,23.4,29.1z M23,26.6c-0.3-0.1-0.6-0.1-0.9,0L18,19.5h9.2L23,26.6z M37,34.9
				c-0.7,0.3-1.5,0.5-2.3,0.5v0c-3.5,0-6.3-2.8-6.3-6.3c0-1.9,0.9-3.8,2.4-5l3.1,5.4c0.1,0.3,0.4,0.4,0.7,0.4c0.5,0,0.8-0.4,0.8-0.8
				c0-0.1,0-0.3-0.1-0.4l-3.1-5.4c3.2-1.3,6.9,0.2,8.2,3.4C41.7,29.9,40.2,33.6,37,34.9z"/>
		</g>
		<g>
			<path class="st0" d="M47.1,36.1v-11c0-4.6-3.8-8.4-8.4-8.4c-2.7,0-5.1,1.3-6.6,3.2l0.1,0.1c0.7-0.2,1.5-0.3,2.2-0.3
				c1.2-0.9,2.7-1.5,4.3-1.5c3.8,0,6.9,3.1,6.9,6.9v11c-0.5,0.1-0.8,0.4-0.8,0.7c0,0.4,0.7,0.8,1.6,0.8s1.6-0.3,1.6-0.8
				C47.9,36.5,47.6,36.2,47.1,36.1z"/>
		</g>
		<g>
			<path class="st0" d="M30.2,27.3v3.5c0.3,0.8,0.8,1.5,1.5,2v-4.1l-1.2-2C30.4,26.9,30.3,27.1,30.2,27.3z"/>
		</g>
	</g>
</g>
</svg>
