<?xml version="1.0" encoding="utf-8"?>
<!-- Generator: Adobe Illustrator 26.3.1, SVG Export Plug-In . SVG Version: 6.00 Build 0)  -->
<svg version="1.1" xmlns="http://www.w3.org/2000/svg" xmlns:xlink="http://www.w3.org/1999/xlink" x="0px" y="0px"
	 viewBox="0 0 50 50" style="enable-background:new 0 0 50 50;" xml:space="preserve">
<style type="text/css">
	.st0{fill:#FFFFFF;}
</style>
<g id="background">
	<g>
		<path d="M42,50H8c-4.4,0-8-3.6-8-8V8c0-4.4,3.6-8,8-8h34c4.4,0,8,3.6,8,8v34C50,46.4,46.4,50,42,50z"/>
	</g>
</g>
<g id="art">
	<path class="st0" d="M38.2,16.8C37.4,10.2,31.7,5.1,25,5.1c-6.8,0-12.4,5-13.2,11.7c-0.1,0.5-0.1,1.1-0.1,1.6
		c0,2.2,0.6,4.4,1.6,6.4l11.5,19.9c0.1,0.2,0.3,0.2,0.4,0l11.5-20c1.1-1.9,1.6-4.1,1.6-6.4C38.3,17.9,38.3,17.4,38.2,16.8z M25,23.4
		c-2.8,0-5-2.2-5-5c0-2.8,2.2-5,5-5c2.8,0,5,2.2,5,5C30,21.2,27.8,23.4,25,23.4z"/>
</g>
</svg>
