<?xml version="1.0" encoding="utf-8"?>
<!-- Generator: Adobe Illustrator 26.3.1, SVG Export Plug-In . SVG Version: 6.00 Build 0)  -->
<svg version="1.1" xmlns="http://www.w3.org/2000/svg" xmlns:xlink="http://www.w3.org/1999/xlink" x="0px" y="0px"
	 viewBox="0 0 50 50" style="enable-background:new 0 0 50 50;" xml:space="preserve">
<style type="text/css">
	.st0{fill:#FFFFFF;}
</style>
<g id="background">
	<g>
		<path d="M42,50H8c-4.4,0-8-3.6-8-8V8c0-4.4,3.6-8,8-8h34c4.4,0,8,3.6,8,8v34C50,46.4,46.4,50,42,50z"/>
	</g>
</g>
<g id="art">
	<g>
		<path class="st0" d="M39.9,20.8c-0.4,0-0.8,0.4-0.8,0.8c0,0.3,0.2,0.6,0.4,0.7v1.4c0,0.2,0.2,0.4,0.4,0.4c0.2,0,0.4-0.2,0.4-0.4
			v-1.4c0.2-0.1,0.4-0.4,0.4-0.7C40.8,21.2,40.4,20.9,39.9,20.8C40,20.8,40,20.8,39.9,20.8C39.9,20.8,39.9,20.8,39.9,20.8z"/>
		<path class="st0" d="M31.6,11.7v26.7h15.8V11.7H31.6z M37.5,17.5c0-1.4,1.1-2.5,2.5-2.5c1.4,0,2.5,1.1,2.5,2.5v1.7h-0.6h-0.2v-1.7
			c0-0.9-0.7-1.7-1.7-1.7c-0.9,0-1.7,0.7-1.7,1.7v1.7h-0.2h-0.6V17.5z M43.3,25h-6.7v-5H40h3.3V25z"/>
		<path class="st0" d="M28.6,17.5l-1.7-2.9c-0.1-0.3-0.4-0.4-0.7-0.4h-2c-0.5,0-0.8,0.4-0.8,0.8c0,0.5,0.4,0.8,0.8,0.8h1.5l1.4,2.5
			h-9.2H17l-0.5-0.9L16,16.7c0.2,0,0.4,0,0.7,0c0.1,0,0.2,0,0.2,0c0.7,0,1.4-0.1,1.4-0.8c0-0.4-0.2-0.6-0.5-0.7
			C17.5,15,17.1,15,16.7,15c-1,0-1.4-0.3-1.9-0.5c-0.3-0.2-0.7-0.3-1.4-0.3c-0.2,0-0.5,0-0.7,0c-0.6,0-1,0.2-1,0.8
			c0,0.8,0,1.7,1.7,1.7c0.3,0,0.5,0,0.7,0l1.4,2.5l-1.9,3.2c-1-0.4-2.1-0.7-3.2-0.7c-4.4,0-7.9,3.5-7.9,7.9c0,4.4,3.5,7.9,7.9,7.9
			c4.1,0,7.5-3.1,7.9-7.1h1.9c0.3,1,1.3,1.7,2.4,1.7c1.4,0,2.5-1.1,2.5-2.5c0-0.6-0.2-1.2-0.6-1.6l4.1-7.2l1.4,2.4
			c-2,1.4-3.3,3.8-3.3,6.4c0,3,1.7,5.6,4.1,6.9v-2c-1.5-1.1-2.4-2.9-2.4-4.9c0-2,1-3.8,2.4-4.9v-3.3l-1.3-2.2L28.6,17.5z M10.5,35.8
			c-3.5,0-6.2-2.8-6.2-6.2c0-3.5,2.8-6.2,6.2-6.2c0.8,0,1.6,0.2,2.4,0.5l-3.1,5.4c0,0,0,0,0,0c0,0,0,0,0,0.1c0,0,0,0,0,0
			c0,0,0,0,0,0.1c0,0,0,0.1,0,0.1c0,0,0,0,0,0c0,0,0,0.1,0,0.1c0,0,0,0,0,0c0,0,0,0,0,0c0,0,0,0,0,0c0,0,0,0.1,0,0.1
			c0,0,0,0.1,0,0.1c0,0,0,0,0,0c0,0,0,0,0,0.1c0,0,0,0,0,0c0,0,0,0,0,0.1c0,0,0,0,0,0.1c0,0,0,0,0,0c0,0,0,0,0,0
			c0.1,0.1,0.1,0.2,0.2,0.2c0,0,0,0,0,0c0,0,0.1,0,0.1,0.1c0,0,0,0,0,0c0,0,0,0,0.1,0c0,0,0.1,0,0.1,0c0,0,0.1,0,0.1,0h0h6.2
			C16.2,33.5,13.6,35.8,10.5,35.8z M11.9,28.8l2.4-4.1c1.3,1,2.2,2.4,2.4,4.1H11.9z M20.2,28.8h-1.9c-0.2-2.3-1.5-4.3-3.2-5.6
			l1.4-2.4l4.1,7.2C20.4,28.2,20.3,28.5,20.2,28.8z M23.4,29.6C23.4,29.6,23.4,29.6,23.4,29.6c0,0.1,0,0.1,0,0.2c0,0,0,0,0,0.1
			c0,0,0,0,0,0c0,0,0,0.1-0.1,0.1c0,0,0,0,0,0c0,0,0,0,0,0c0,0,0,0,0,0c0,0,0,0,0,0c0,0,0,0,0,0c0,0,0,0,0,0c0,0,0,0,0,0
			c0,0,0,0,0,0c0,0,0,0,0,0c0,0,0,0,0,0c0,0,0,0,0,0c0,0,0,0,0,0c0,0,0,0,0,0c0,0,0,0,0,0c0,0,0,0,0,0c0,0,0,0,0,0c0,0,0,0,0,0
			c0,0,0,0,0,0c0,0,0,0-0.1,0c0,0,0,0,0,0c0,0,0,0,0,0c0,0,0,0-0.1,0c0,0,0,0-0.1,0c0,0,0,0,0,0c0,0,0,0,0,0c0,0,0,0-0.1,0
			c0,0-0.1,0-0.1,0c0,0-0.1,0-0.1,0h0c0,0-0.1,0-0.1,0c0,0,0,0,0,0c0,0-0.1,0-0.1,0c0,0,0,0-0.1,0c0,0,0,0,0,0c0,0,0,0,0,0
			c0,0,0,0,0,0c0,0,0,0,0,0c0,0,0,0,0,0c0,0,0,0-0.1,0c0,0,0,0,0,0c0,0,0,0,0,0c0,0,0,0,0,0c0,0,0,0,0,0c0,0,0,0,0,0c0,0,0,0,0,0
			c0,0,0,0,0,0c0,0,0,0,0,0c0,0,0,0,0,0c0,0,0,0,0,0c0,0,0,0,0,0c0,0,0,0,0,0c0,0,0,0,0,0c0,0,0,0,0,0c0,0,0,0,0,0c0,0,0,0,0,0
			c0,0,0,0,0,0c0,0,0,0,0,0c0,0,0,0,0,0c0,0,0,0,0-0.1c0,0,0,0,0,0c0,0,0,0,0-0.1c0,0,0,0,0,0c0,0,0-0.1,0-0.1c0,0,0-0.1,0-0.1
			c0,0,0,0,0,0c0,0,0,0,0,0c0,0,0-0.1,0-0.1c0,0,0,0,0,0c0,0,0-0.1,0-0.1c0,0,0,0,0-0.1c0,0,0,0,0,0c0,0,0,0,0-0.1
			c0.1-0.3,0.4-0.4,0.7-0.4c0.3,0,0.6,0.2,0.7,0.4c0,0,0,0,0,0c0,0,0,0,0,0c0,0,0,0.1,0.1,0.1c0,0,0,0,0,0c0,0,0,0,0,0.1
			C23.4,29.4,23.4,29.5,23.4,29.6C23.4,29.5,23.4,29.6,23.4,29.6L23.4,29.6z M23,27.1c-0.1,0-0.3,0-0.5,0c-0.2,0-0.3,0-0.5,0L18,20
			h9.1L23,27.1z"/>
	</g>
</g>
</svg>
