<?xml version="1.0" encoding="utf-8"?>
<!-- Generator: Adobe Illustrator 26.3.1, SVG Export Plug-In . SVG Version: 6.00 Build 0)  -->
<svg version="1.1" xmlns="http://www.w3.org/2000/svg" xmlns:xlink="http://www.w3.org/1999/xlink" x="0px" y="0px"
	 viewBox="0 0 50 50" style="enable-background:new 0 0 50 50;" xml:space="preserve">
<style type="text/css">
	.st0{fill:#007BC9;}
	.st1{fill-rule:evenodd;clip-rule:evenodd;fill:#FFFFFF;}
</style>
<g id="background">
	<g>
		<path d="M42,50H8c-4.4,0-8-3.6-8-8V8c0-4.4,3.6-8,8-8h34c4.4,0,8,3.6,8,8v34C50,46.4,46.4,50,42,50z"/>
	</g>
</g>
<g id="art">
	<path class="st0" d="M45.3,25c0,11.4-9.2,20.6-20.6,20.6C13.3,45.6,4.1,36.4,4.1,25c0-11.4,9.2-20.6,20.6-20.6
		C36.1,4.4,45.3,13.6,45.3,25z"/>
	<path class="st1" d="M41.8,25c0,9.5-7.7,17.1-17.1,17.1c-9.5,0-17.1-7.7-17.1-17.1c0-9.5,7.7-17.1,17.1-17.1
		C34.2,7.8,41.8,15.5,41.8,25z"/>
	<g>
		<path d="M27.3,28.5h-4.2v8.2h-4.2V14.9h8.4c4.5,0,7.2,3.1,7.2,6.8C34.5,25.4,31.8,28.5,27.3,28.5z M27.1,18.7h-4v6h4
			c1.9,0,3.1-1.2,3.1-3C30.2,19.9,29,18.7,27.1,18.7z"/>
	</g>
</g>
</svg>
