<?xml version="1.0" encoding="utf-8"?>
<!-- Generator: Adobe Illustrator 26.3.1, SVG Export Plug-In . SVG Version: 6.00 Build 0)  -->
<svg version="1.1" xmlns="http://www.w3.org/2000/svg" xmlns:xlink="http://www.w3.org/1999/xlink" x="0px" y="0px"
	 viewBox="0 0 50 50" style="enable-background:new 0 0 50 50;" xml:space="preserve">
<style type="text/css">
	.st0{fill:#FFFFFF;}
</style>
<g id="background">
	<g>
		<path d="M42,50H8c-4.4,0-8-3.6-8-8V8c0-4.4,3.6-8,8-8h34c4.4,0,8,3.6,8,8v34C50,46.4,46.4,50,42,50z"/>
	</g>
</g>
<g id="art">
	<g>
		<g>
			<path class="st0" d="M22,6.5V17h-1.6V6.5c0-1.3-2.1-1.2-2.1,0V17h-1.6V6.5c0-1.3-2.1-1.2-2.1,0v14.2c0,2.1,1.2,3.4,2.7,3.4v18.6
				c0,3.6,3.9,3.6,3.9,0V24.1c1.6,0,2.8-1.8,2.8-3.3V6.5C23.9,5.2,22,5.3,22,6.5"/>
			<path class="st0" d="M30.8,9.8v18.5h2.4v14.4c0,3.5,3.8,3.5,3.6-0.1V9.8C36.9,4.1,30.7,4.2,30.8,9.8"/>
		</g>
	</g>
</g>
</svg>
