<?xml version="1.0" encoding="utf-8"?>
<!-- Generator: Adobe Illustrator 26.3.1, SVG Export Plug-In . SVG Version: 6.00 Build 0)  -->
<svg version="1.1" xmlns="http://www.w3.org/2000/svg" xmlns:xlink="http://www.w3.org/1999/xlink" x="0px" y="0px"
	 viewBox="0 0 50 50" style="enable-background:new 0 0 50 50;" xml:space="preserve">
<style type="text/css">
	.st0{fill:#FFFFFF;}
</style>
<g id="background">
	<g>
		<path d="M42,50H8c-4.4,0-8-3.6-8-8V8c0-4.4,3.6-8,8-8h34c4.4,0,8,3.6,8,8v34C50,46.4,46.4,50,42,50z"/>
	</g>
</g>
<g id="art">
	<g>
		<g>
			<path class="st0" d="M20.6,14.6v-3.3c0-2.2,1.8-3.9,4.1-3.9h0.5c2.3,0,4.1,1.7,4.1,3.9v3.3h1.8v-3.3c0-3-2.7-5.6-6.1-5.6h-0.5
				c-3.3,0-5.9,2.5-5.9,5.6v3.3L20.6,14.6z"/>
			<rect x="11.8" y="16.2" class="st0" width="26.4" height="25.8"/>
		</g>
	</g>
</g>
</svg>
