<?xml version="1.0" encoding="UTF-8"?><svg xmlns="http://www.w3.org/2000/svg" width="50" height="50" viewBox="0 0 50 50"><defs><style>.cls-1{fill:#fff;}</style></defs><g id="background"><rect width="50" height="50" rx="8" ry="8"/></g><g id="art"><g><path class="cls-1" d="M46.31,38.29c-1.35,0-2.34-.64-2.34-1.53,0-.5,.3-.92,.84-1.2v-10.48c0-3.4-2.77-6.17-6.17-6.17s-6.17,2.77-6.17,6.17v10.47c.53,.28,.84,.7,.84,1.2,0,.89-.98,1.53-2.34,1.53s-2.34-.64-2.34-1.53c0-.5,.3-.92,.84-1.2v-10.48c0-5.06,4.11-9.17,9.17-9.17s9.17,4.11,9.17,9.17v10.48c.53,.28,.84,.7,.84,1.2,0,.89-.98,1.53-2.34,1.53Z"/><path d="M38.64,16.67c4.64,0,8.42,3.78,8.42,8.42v10.99c.5,.13,.84,.39,.84,.68,0,.43-.71,.78-1.59,.78s-1.59-.35-1.59-.78c0-.3,.34-.55,.84-.68v-10.99c0-3.82-3.1-6.92-6.92-6.92s-6.92,3.1-6.92,6.92v10.99c.5,.13,.84,.39,.84,.68,0,.43-.71,.78-1.59,.78s-1.59-.35-1.59-.78c0-.3,.34-.55,.84-.68v-10.99c0-4.64,3.78-8.42,8.42-8.42m0-1.5c-5.47,0-9.92,4.45-9.92,9.92v10.06c-.6,.46-.84,1.08-.84,1.61,0,1.32,1.3,2.28,3.09,2.28s3.09-.96,3.09-2.28c0-.53-.24-1.15-.84-1.61v-10.06c0-2.99,2.43-5.42,5.42-5.42s5.42,2.43,5.42,5.42v10.06c-.6,.46-.84,1.08-.84,1.61,0,1.32,1.3,2.28,3.09,2.28s3.09-.96,3.09-2.28c0-.53-.24-1.15-.84-1.61v-10.06c0-5.47-4.45-9.92-9.92-9.92h0Z"/></g><g id="Layer_2"><g id="Layer_1-2"><g><path class="cls-1" d="M10.44,37.77c-1.22,0-2.4-.25-3.52-.75-4.37-1.94-6.35-7.08-4.41-11.45,1.39-3.13,4.51-5.15,7.93-5.15,.99,0,1.96,.17,2.89,.5l1.32-2.29-.98-1.71h-.31c-2.42,0-2.42-1.63-2.42-2.42,0-.53,.22-1.44,1.67-1.56,.24-.02,.5-.02,.75-.02h0c.64,0,1.2,.13,1.71,.36,.1,.04,.2,.09,.3,.14,.38,.19,.68,.34,1.33,.34,.47,0,.96,0,1.38,.14,.63,.16,1.09,.8,1.03,1.5,0,1.23-1.1,1.46-1.79,1.51l.1,.17h8.43l-.58-1h-1.08c-.87,0-1.58-.71-1.58-1.58s.71-1.58,1.58-1.58h2c.56,0,1.09,.3,1.37,.79l4.16,7.21c.93-.33,1.89-.49,2.88-.49,2.78,0,5.4,1.34,7.03,3.58,1.36,1.87,1.91,4.17,1.55,6.46-.36,2.29-1.59,4.3-3.47,5.66-1.49,1.08-3.25,1.66-5.09,1.66-2.77,0-5.4-1.34-7.02-3.58-2.68-3.68-2.03-8.79,1.38-11.7l-.41-.71-3.26,5.64c.11,.19,.2,.38,.28,.59,.6,1.69-.29,3.55-1.99,4.15-.35,.12-.71,.19-1.08,.19-1.19,0-2.27-.65-2.84-1.67h-.72c-.12,.67-.33,1.32-.6,1.94-1.39,3.13-4.51,5.15-7.93,5.15Zm20.19-12.45c-.95,1.01-1.5,2.37-1.5,3.78,0,3.04,2.47,5.5,5.51,5.5h.22c.63-.03,1.25-.16,1.84-.4,1.36-.56,2.43-1.61,3-2.96,.57-1.36,.58-2.85,.02-4.21-.85-2.08-2.85-3.43-5.1-3.43-.42,0-.84,.05-1.25,.14l2.64,4.57c.14,.24,.21,.51,.21,.79,0,.88-.71,1.59-1.58,1.59-.56,0-1.09-.3-1.37-.79l-2.64-4.57Zm-20.17-1.73c-3.03,0-5.5,2.46-5.51,5.49,0,1.47,.57,2.85,1.6,3.9,1.04,1.04,2.42,1.62,3.89,1.62,2.45,0,4.58-1.64,5.27-3.93h-5.39c-.11,0-.16-.02-.21-.03l-.14-.04c-.1-.03-.19-.07-.27-.11-.22-.12-.37-.25-.5-.41l-.07-.09c-.05-.07-.08-.12-.1-.17l-.06-.12s-.04-.1-.05-.15l-.03-.11v-.06s-.02-.09-.03-.15v-.12c0-.11,0-.18,0-.24,.02-.12,.03-.19,.05-.26l.05-.13c.03-.07,.05-.12,.08-.17l2.65-4.59c-.4-.09-.82-.14-1.24-.14v0Zm12.09,5.57l.04-.03v-.08h-.06s-.05,0-.07,.04v.08h.09Zm-2.87-1.64s.03-.06,.05-.08l-3.25-5.64-.41,.71c1.51,1.29,2.53,3.06,2.89,5.01h.72Zm-3.98,0c-.24-.82-.67-1.57-1.26-2.19l-1.27,2.19h2.53Zm6.78-1.67s.08,0,.1,0l3.22-5.6h-6.55l3.24,5.6Z"/><path d="M13.44,13.66c.45,0,.9,.1,1.31,.29,.53,.24,.93,.55,1.94,.55,.42,0,.84,0,1.15,.1,.33,.08,.55,.39,.52,.73,0,.75-.68,.83-1.42,.83h-.91l.45,.79,.51,.88h10.16l-1.44-2.5h-1.52c-.46,0-.83-.37-.83-.83s.37-.83,.83-.83h2c.3,0,.57,.16,.72,.42l1.66,2.87,.96,1.67,1.87,3.23c1.01-.45,2.1-.68,3.21-.68h.01c2.54,0,4.92,1.21,6.41,3.27,2.57,3.54,1.79,8.5-1.75,11.07-1.41,1.02-3.04,1.51-4.65,1.51-2.45,0-4.87-1.13-6.42-3.27-2.57-3.54-1.79-8.5,1.75-11.07l-1.39-2.4-4.15,7.18c.2,.23,.36,.5,.46,.79,.46,1.3-.22,2.73-1.53,3.19-.28,.1-.56,.14-.83,.14-1.03,0-2-.64-2.36-1.67h-1.85c-.09,.82-.3,1.63-.64,2.38-1.31,2.95-4.21,4.71-7.25,4.71-1.08,0-2.17-.22-3.21-.68-4-1.78-5.8-6.46-4.02-10.46,1.31-2.95,4.21-4.71,7.25-4.71,1.08,0,2.17,.22,3.21,.68l1.87-3.23-1.42-2.45h-.75c-1.67,0-1.67-.83-1.67-1.67,0-.6,.43-.77,.98-.82,.22-.02,.46-.02,.69-.02,.03,0,.06,0,.08,0m8.64,12.97c.15-.03,.3-.04,.46-.04s.31,.01,.46,.04l4.11-7.14h-9.15l4.13,7.14m-3.76,1.63h1.85c.1-.29,.26-.56,.46-.79l-4.15-7.18-1.39,2.4c1.81,1.32,2.98,3.34,3.22,5.57m-7.88,7.09c3.13,0,5.78-2.32,6.2-5.43h-6.29s-.06,0-.08-.01c-.02,0-.04,0-.06-.02h-.03s-.08-.04-.12-.06l-.03-.02c-.09-.05-.17-.12-.24-.2l-.04-.05v-.02s-.03-.04-.05-.06c-.01-.02-.02-.05-.03-.07-.01-.02-.02-.05-.03-.07h0s-.01-.06-.02-.08c0-.03-.01-.06-.01-.09v-.08h0s0-.08,0-.11v-.02s.01-.08,.03-.12c0-.02,.02-.05,.02-.07h0s.02-.06,.03-.08v-.02l3.11-5.38c-.75-.3-1.54-.46-2.35-.46h-.02c-3.45,0-6.25,2.79-6.26,6.24,0,3.46,2.79,6.26,6.24,6.27m24.2-5.42c-.3,0-.57-.16-.72-.42l-3.1-5.37c-1.54,1.19-2.44,3.02-2.44,4.96,0,3.45,2.8,6.25,6.26,6.25h0c.8,0,1.6-.15,2.35-.46,3.2-1.31,4.73-4.96,3.43-8.16-.99-2.43-3.33-3.89-5.8-3.89-.79,0-1.59,.15-2.36,.47l3.11,5.37c.07,.13,.11,.27,.11,.42,0,.46-.37,.83-.83,.83m-22.74-1.67h4.75c-.22-1.63-1.07-3.11-2.37-4.12l-2.38,4.12m10.32,1.62h.01l.05,.02h.04s.04,.02,.06,.02c.03,0,.05,.01,.08,.01h.08v-.03h.09s.06,0,.08-.01c.02,0,.04,0,.05-.01,.01,0,.03-.01,.04-.01,.04-.01,.08-.03,.12-.05h.02v-.02s.06-.03,.09-.05c0,0,.02-.01,.02-.02,0,0,.01,0,.02-.01h.02s.03-.03,.04-.05l.02-.02,.02-.02h.01v-.02h0v-.02l.03-.02v-.02s.03-.03,.04-.05v-.02s.05-.09,.07-.13c0-.01,.01-.03,.01-.04,0-.02,0-.03,.01-.05,0-.03,.01-.05,.01-.08,0-.03,0-.06,0-.09,0-.03,0-.06,0-.08,0-.03,0-.06-.01-.08,0-.02,0-.04-.02-.06,0,0,0-.02,0-.03-.01-.04-.03-.08-.05-.12,0-.01-.01-.02-.02-.03-.08-.12-.18-.22-.31-.29-.13-.07-.26-.1-.4-.1-.29,0-.58,.16-.73,.43-.01,.02-.02,.04-.03,.07h0s-.02,.06-.02,.08c-.01,.04-.02,.08-.03,.12v.02s0,.07,0,.1v.09s0,.06,.01,.09c0,.03,.01,.05,.02,.08h0s.02,.06,.03,.08c.01,.02,.03,.06,.03,.07,0,.02,.02,.03,.03,.04v.02h0v.03l.03,.02h.01v.02h.02s.02,.03,.03,.05c.01,.02,.03,.03,.05,.04l.02,.02,.02,.02,.02,.02,.02,.02h0l.03,.02h.02l.03,.03s.04,.02,.06,.03M13.44,12.16h-.21c-.2,0-.44,0-.69,.03-1.74,.15-2.35,1.29-2.35,2.31,0,2.06,1.03,3.13,3.05,3.17l.55,.96-.81,1.4c-.83-.23-1.68-.35-2.54-.35-3.72,0-7.11,2.2-8.62,5.6-1.02,2.3-1.09,4.86-.18,7.21,.9,2.35,2.67,4.21,4.97,5.23,1.22,.54,2.5,.81,3.82,.81,3.72,0,7.11-2.2,8.62-5.6,.18-.4,.32-.8,.44-1.22,.75,.87,1.85,1.4,3.04,1.4,.45,0,.9-.08,1.33-.23,.69-.24,1.26-.65,1.71-1.17,.29,1.03,.77,2.02,1.43,2.94,1.77,2.43,4.62,3.89,7.63,3.89,2,0,3.91-.62,5.53-1.8,2.04-1.48,3.38-3.66,3.77-6.15,.39-2.49-.2-4.98-1.68-7.01-1.77-2.43-4.62-3.88-7.62-3.88-.87,0-1.72,.12-2.55,.35l-1.24-2.15-.96-1.67-1.66-2.87c-.42-.72-1.19-1.17-2.02-1.17h-2c-1.29,0-2.33,1.05-2.33,2.33,0,.74,.35,1.41,.9,1.84h-3.09c.15-.33,.19-.66,.2-.94,.05-1.02-.61-1.94-1.59-2.22-.53-.17-1.08-.17-1.58-.17s-.65-.09-1-.26c-.11-.05-.22-.11-.33-.16-.59-.28-1.26-.43-1.93-.43h0Zm7.11,8.83h3.96l-1.97,3.43-1.98-3.43h0Zm-10.11,12.85c-1.27,0-2.46-.5-3.36-1.4-.9-.9-1.39-2.1-1.38-3.37,0-2.62,2.14-4.74,4.76-4.74h.03l-2.07,3.59v.02l-.03,.02s-.04,.08-.07,.14h0l-.02,.07-.03,.07v.02s-.04,.1-.05,.15c-.03,.09-.05,.2-.07,.32l-.02,.11v.06c0,.06,0,.12,0,.18v.23c.01,.06,.02,.13,.03,.19v.06l.06,.22c.02,.08,.05,.16,.09,.23,.02,.06,.05,.12,.09,.18,.04,.07,.08,.14,.12,.2v.02l.04,.04,.04,.05,.02,.02,.02,.02c.19,.23,.41,.43,.67,.57h.02l.03,.03c.13,.07,.27,.13,.4,.17,.09,.03,.16,.05,.23,.06,.08,.02,.16,.03,.25,.04h.18s.05,0,.08,0h4.11c-.82,1.46-2.39,2.43-4.14,2.43h0Zm24.14-9.51h.03c1.94,0,3.67,1.16,4.41,2.96,.48,1.18,.47,2.47-.02,3.64-.49,1.17-1.41,2.08-2.59,2.56-.51,.21-1.05,.33-1.6,.35h-.18c-2.62,0-4.76-2.13-4.76-4.75,0-.86,.24-1.7,.67-2.42l2.08,3.59c.42,.72,1.19,1.17,2.02,1.17h0c1.29,0,2.33-1.05,2.33-2.34,0-.41-.11-.81-.31-1.17l-2.07-3.59h0Zm-20.09,2.42l.05-.09s.03,.06,.05,.09h-.1Z"/></g></g></g></g></svg>