<?xml version="1.0" encoding="UTF-8"?>
<svg id="Layer_2" data-name="Layer 2" xmlns="http://www.w3.org/2000/svg" viewBox="0 0 576.46 1037.57">
  <defs>
    <style>
      .cls-1 {
        fill: none;
      }

      .cls-2 {
        fill: #fff;
      }

      .cls-3 {
        fill: #231f20;
      }
    </style>
  </defs>
  <g id="Layer_1-2" data-name="Layer 1">
    <rect class="cls-1" y="461.57" width="576" height="576" transform="translate(1037.57 461.57) rotate(90)"/>
    <rect class="cls-1" x=".18" y=".39" width="576" height="576" transform="translate(-.2 576.57) rotate(-90)"/>
    <path class="cls-3" d="m518.49,288.88c0-127.25-103.15-230.4-230.4-230.4S57.69,161.63,57.69,288.88s103.15,230.4,230.4,230.4,230.4-103.15,230.4-230.4"/>
    <rect class="cls-3" x="57.68" y="289.44" width="461" height="460" transform="translate(-231.26 807.63) rotate(-90)"/>
    <g id="Arrow">
      <g>
        <path class="cls-3" d="m518.49,749.72c0-127.25-103.15-230.4-230.4-230.4s-230.4,103.15-230.4,230.4,103.15,230.4,230.4,230.4c127.25,0,230.4-103.15,230.4-230.4"/>
        <polygon class="cls-2" points="288.11 900.87 158.61 771.38 158.61 700.77 261.61 805.29 261.61 598.44 314.61 598.44 314.61 805.29 417.61 700.77 417.61 771.38 288.11 900.87"/>
      </g>
    </g>
    <g id="Bus">
      <rect class="cls-1" x=".46" width="576" height="576"/>
      <g>
        <path class="cls-2" d="m166.13,367.15v6.83l8.92,2.18c2.46.53,60.04,12.8,113.66,12.8,60.22,0,111.14-12.19,113.46-12.75l8.96-2.47v-79.61c28.8-4.39,28.82-35.64,28.82-54.87,0-3.69-1.47-7.02-4.26-9.65-3.98-3.76-10.6-5.96-20.22-6.73-1.52-.12-2.99-.19-4.34-.24v-35.19c0-16.92-16.42-29.19-48.81-36.46-29.85-6.7-63.98-7.22-73.73-7.22s-43.86.52-73.69,7.22c-32.36,7.27-48.77,19.54-48.77,36.46v35.19c-1.36.04-2.83.12-4.35.24-9.62.77-16.23,2.97-20.22,6.73-2.79,2.63-4.26,5.96-4.26,9.65,0,19.24.02,50.49,28.83,54.88v73.02Zm35.85-7.28c-7.96.01-14.42-6.43-14.43-14.39,0-7.96,6.44-14.4,14.39-14.41,7.96,0,14.4,6.42,14.41,14.37,0,7.95-6.41,14.42-14.37,14.43Zm172.79,0c-7.96.01-14.41-6.44-14.42-14.39-.01-7.96,6.43-14.4,14.38-14.41,7.95-.01,14.4,6.41,14.42,14.37,0,7.96-6.43,14.42-14.38,14.43Zm-128.42-193.8h83.67c3.85,0,7.22,2.97,7.32,6.82s-3.07,7.18-7,7.18h-83.67c-3.85,0-7.22-2.97-7.32-6.82s3.07-7.18,7-7.18Zm-66.21,35h216.07s0,0,0,0c-.04.99-.08,2.04-.08,3.12v81.97c0,9.64-12.1,22.92-20.88,22.92h-173.41c-9.34,0-21.72-12.49-21.72-21.91v-84.06c0-.63,0-1.36,0-2.03Z"/>
        <path class="cls-2" d="m405.9,390.43c-.06.02-.12.03-.18.05-2.17.54-53.84,13.19-117.02,13.19-56.13,0-114.37-12.6-116.82-13.14-.06-.01-.11-.02-.17-.04l-5.59-1.36v31.43c0,2.5,2.02,4.52,4.52,4.52h9.48v21.6c0,7.94,6.07,14.4,13.54,14.4h15.93c7.46,0,13.53-6.46,13.53-14.4v-21.6h130v21.6c0,7.94,6.07,14.4,13.53,14.4h15.94c7.46,0,13.53-6.46,13.53-14.4v-21.6h10.48c2.5,0,4.52-2.02,4.52-4.52v-31.56l-5.23,1.44Z"/>
      </g>
    </g>
  </g>
</svg>