<?xml version="1.0" encoding="UTF-8"?>
<svg id="Layer_2" data-name="Layer 2" xmlns="http://www.w3.org/2000/svg" viewBox="0 0 576.18 1037.19">
  <defs>
    <style>
      .cls-1 {
        fill: none;
      }

      .cls-2 {
        fill: #fff;
      }

      .cls-3 {
        fill: #231f20;
      }
    </style>
  </defs>
  <g id="Layer_1-2" data-name="Layer 1">
    <rect class="cls-1" y="461.19" width="576" height="576" transform="translate(1037.19 461.19) rotate(90)"/>
    <rect class="cls-1" x=".18" width="576" height="576" transform="translate(.18 576.18) rotate(-90)"/>
    <path class="cls-3" d="m518.49,288.49c0-127.25-103.15-230.4-230.4-230.4S57.69,161.24,57.69,288.49s103.15,230.4,230.4,230.4,230.4-103.15,230.4-230.4"/>
    <rect class="cls-3" x="57.68" y="289.06" width="461" height="460" transform="translate(-230.87 807.24) rotate(-90)"/>
    <g id="Arrow">
      <g>
        <path class="cls-3" d="m518.49,749.33c0-127.25-103.15-230.4-230.4-230.4s-230.4,103.15-230.4,230.4,103.15,230.4,230.4,230.4c127.25,0,230.4-103.15,230.4-230.4"/>
        <polygon class="cls-2" points="288.11 900.48 158.61 771 158.61 700.39 261.61 804.9 261.61 598.05 314.61 598.05 314.61 804.9 417.61 700.39 417.61 771 288.11 900.48"/>
      </g>
    </g>
    <g>
      <path class="cls-2" d="m284.99,121.85c0,6.96-5.63,12.62-12.59,12.63-6.96,0-12.6-5.64-12.61-12.6,0-6.96,5.62-12.6,12.57-12.6,6.96-.01,12.62,5.61,12.63,12.57Z"/>
      <path class="cls-2" d="m292.19,121.89c0,6.96,5.64,12.6,12.6,12.59,6.96,0,12.61-5.67,12.6-12.63,0-6.96-5.67-12.58-12.63-12.57-6.96,0-12.58,5.64-12.57,12.61Z"/>
      <path class="cls-2" d="m389.57,378.34c-1.8.47-44.62,11.64-100.24,11.64-49.39,0-98.53-11.11-100.6-11.58l-.7-.16v1.37c0,3.9,1.95,8.53,4.74,11.26l16.49,16.13c2.76,2.69,7.38,4.58,11.23,4.58h137.09c3.41,0,8.34-1.78,10.96-3.96l16.11-13.4c2.95-2.46,5.37-7.61,5.37-11.45v-4.55l-.46.12Z"/>
      <path class="cls-2" d="m382.15,458.76c1.15,1.55,3.68,2.82,5.62,2.82h10.51c1.97,0,2.65-1.31,1.5-2.92l-26.55-37.17c-1.14-1.6-3.69-2.92-5.67-2.92h-10.66c-1.93,0-2.61,1.3-1.51,2.89l6.39,9.22c1.1,1.59.42,2.89-1.51,2.89h-143.37c-1.93,0-2.61-1.3-1.51-2.89l6.39-9.22c1.1-1.59.42-2.89-1.51-2.89h-10.66c-1.97,0-4.52,1.31-5.67,2.92l-26.55,37.17c-1.15,1.6-.47,2.92,1.5,2.92h10.51c1.93,0,4.46-1.27,5.62-2.82l6.2-8.35c1.15-1.55,3.68-2.82,5.62-2.82h163.48c1.93,0,4.46,1.27,5.62,2.82l6.2,8.35Z"/>
      <path class="cls-2" d="m188.03,363.57v-47.99h0v-127.25c-.24-20.76,20.44-30.95,37.79-35.85,22.18-6.26,49.13-7.2,63.21-7.2s40.85.94,62.79,7.2c17.13,4.89,37.56,15.09,38.21,35.84v129.25h0v45.84l-4.79,1.1c-.42.11-42.7,11.16-96.35,11.16-47.62,0-96.69-11.1-97.18-11.21l-3.67-.9Zm35.75-45.49c-7.95.01-14.4,6.46-14.39,14.41.01,7.95,6.48,14.4,14.43,14.39,7.96,0,14.38-6.48,14.37-14.43-.01-7.95-6.45-14.38-14.41-14.37Zm115.21,14.41c0,7.95,6.47,14.4,14.42,14.39,7.93,0,14.39-6.48,14.38-14.43,0-7.96-6.48-14.38-14.42-14.37-7.95.01-14.39,6.45-14.38,14.41Zm28.04-61.01v-55.91c0-.45.02-.88.04-1.29.1-2.22.26-5.93-2.55-8.87-1.23-1.29-3.46-2.83-7.08-2.83h-138.27c-3.62,0-5.9,1.53-7.18,2.81-2.99,3.01-2.98,6.82-2.96,9.61v57.05c0,11.44,12.04,23.53,23.42,23.53h111.71c11.11,0,22.87-12.39,22.87-24.1Zm-43.77-104.9h-69.35c-3.85,0-7.22,2.97-7.32,6.82s3.07,7.18,7,7.18h70c3.93,0,7.1-3.23,7-7.18s-3.47-6.82-7.32-6.82Z"/>
    </g>
  </g>
</svg>