<?xml version="1.0" encoding="utf-8"?>
<!-- Generator: Adobe Illustrator 26.5.0, SVG Export Plug-In . SVG Version: 6.00 Build 0)  -->
<svg version="1.1" id="Layer_1" xmlns="http://www.w3.org/2000/svg" xmlns:xlink="http://www.w3.org/1999/xlink" x="0px" y="0px"
	 viewBox="0 0 50 50" style="enable-background:new 0 0 50 50;" xml:space="preserve">
<style type="text/css">
	.st0{fill:#97CA4E;}
	.st1{fill:#FFFFFF;}
</style>
<g id="Icons">
	<g>
		<path class="st0" d="M42,50H8c-4.4,0-8-3.6-8-8V8c0-4.4,3.6-8,8-8h34c4.4,0,8,3.6,8,8v34C50,46.4,46.4,50,42,50z"/>
	</g>
</g>
<g id="Text">
</g>
<g>
	<g>
		<path class="st1" d="M4.6,9.8V40h40.8V9.8H4.6z M23.3,24.9L6.5,37.1V12.7L23.3,24.9z M8.6,11.8h32.8L25,23.7L8.6,11.8z M25,26.1
			l16.4,11.9H8.6L25,26.1z M26.7,24.9l16.8-12.2v24.4L26.7,24.9z"/>
		<path class="st0" d="M37.5,24.9c0,6.9-5.6,12.5-12.5,12.5c-6.9,0-12.5-5.6-12.5-12.5c0-6.9,5.6-12.5,12.5-12.5
			C31.9,12.4,37.5,18,37.5,24.9z"/>
	</g>
	<g>
		<path class="st1" d="M20.2,28.8c-0.7-0.8-1.1-1.9-1.1-3.3c0-1.6,0.5-3.1,1.7-4.6c1.1-1.4,2.4-2.1,4.1-2.1c0.9,0,1.7,0.3,2.2,0.8
			c0.4,0.4,0.7,0.9,0.8,1.4l0.5-1.7h2.5l-1.7,5.8c-0.1,0.5-0.2,0.8-0.3,1.1c-0.1,0.2-0.1,0.4-0.1,0.6c0,0.3,0.1,0.5,0.3,0.8
			c0.2,0.2,0.5,0.4,0.9,0.4c0.8,0,1.5-0.5,2.3-1.5c0.8-1,1.2-2.3,1.2-4c0-2.5-1.1-4.2-3.2-5.3c-1.3-0.7-2.8-1-4.5-1
			c-3,0-5.5,0.9-7.3,2.8c-1.7,1.7-2.5,3.7-2.5,6.1c0,2.6,1,4.7,2.9,6.2c1.7,1.3,3.8,2,6.3,2c1.7,0,3.3-0.3,4.8-0.9
			c0.8-0.3,1.6-0.8,2.5-1.4l0.3-0.2l1,1.5c-1.3,1-2.6,1.7-4.1,2.2c-1.5,0.5-3,0.8-4.6,0.8c-3.7,0-6.6-1.2-8.6-3.5
			c-1.7-1.9-2.5-4.2-2.5-6.8c0-2.9,1.1-5.4,3.2-7.5c2.2-2.2,5.1-3.2,8.5-3.2c2.8,0,5.2,0.7,7,2.2c1.9,1.6,2.9,3.6,2.9,6.2
			c0,2-0.6,3.8-1.9,5.2c-1.2,1.5-2.6,2.2-4.2,2.2c-0.8,0-1.5-0.2-1.9-0.7c-0.4-0.5-0.7-0.9-0.7-1.4c0-0.1,0-0.1,0-0.2
			c0-0.1,0-0.2,0-0.3c-0.3,0.6-0.7,1.2-1.1,1.5c-0.8,0.7-1.7,1-2.7,1C21.8,30,20.9,29.6,20.2,28.8z M26.6,21.2
			c-0.3-0.3-0.7-0.5-1.1-0.5c-0.9,0-1.7,0.6-2.4,1.7c-0.7,1.2-1,2.3-1,3.4c0,0.6,0.2,1.2,0.4,1.6c0.3,0.4,0.7,0.6,1.3,0.6
			c1,0,1.7-0.7,2.4-2.2c0.6-1.5,0.9-2.6,0.9-3.4C27,21.9,26.9,21.5,26.6,21.2z"/>
	</g>
</g>
</svg>
