<?xml version="1.0" encoding="utf-8"?>
<!-- Generator: Adobe Illustrator 27.5.0, SVG Export Plug-In . SVG Version: 6.00 Build 0)  -->
<svg version="1.1" id="Layer_1" xmlns="http://www.w3.org/2000/svg" xmlns:xlink="http://www.w3.org/1999/xlink" x="0px" y="0px"
	 viewBox="0 0 50 50" style="enable-background:new 0 0 50 50;" xml:space="preserve">
<style type="text/css">
	.st0{fill:#ED2790;}
	.st1{clip-path:url(#SVGID_00000098219560716981016330000008797799413462192567_);fill:#FFFFFF;}
	.st2{clip-path:url(#SVGID_00000098219560716981016330000008797799413462192567_);fill:#ED2790;}
</style>
<g id="Icons">
	<g>
		<path class="st0" d="M42,50H8c-4.4,0-8-3.6-8-8V8c0-4.4,3.6-8,8-8h34c4.4,0,8,3.6,8,8v34C50,46.4,46.4,50,42,50z"/>
	</g>
</g>
<g id="Text">
</g>
<g>
	<defs>
		<rect id="SVGID_1_" y="0.4" width="50" height="49.1"/>
	</defs>
	<clipPath id="SVGID_00000132070791238049607650000010722344184602708101_">
		<use xlink:href="#SVGID_1_"  style="overflow:visible;"/>
	</clipPath>
	<path style="clip-path:url(#SVGID_00000132070791238049607650000010722344184602708101_);fill:#FFFFFF;" d="M27,33.6l0.6-6.8
		c-2.7-2.1-4.5-5.3-4.6-8.9C22.8,11.4,28,6,34.6,5.9c6.6-0.2,12,4.9,12.2,11.4c0.2,6.4-5,11.8-11.6,12c-0.8,0-1.5,0-2.3-0.2L27,33.6
		z"/>
	<path style="clip-path:url(#SVGID_00000132070791238049607650000010722344184602708101_);fill:#ED2790;" d="M36.5,25.6h-3.2v-3h3.2
		V25.6z M38.5,16.7l-1.7,2.2c-0.2,0.3-0.4,0.8-0.4,1.2v0.5h-3v-0.7c0-1,0.3-1.6,0.9-2.4l1.7-2.2c0.4-0.5,0.7-1,0.7-1.5
		c0-1.1-0.7-1.9-1.9-1.9c-1.2,0-1.9,0.8-1.9,1.9h-3c0-2.8,2.2-4.6,4.9-4.6c2.6,0,4.9,1.7,4.9,4.6C39.7,15,39.2,15.8,38.5,16.7"/>
	<path style="clip-path:url(#SVGID_00000132070791238049607650000010722344184602708101_);fill:#FFFFFF;" d="M27.8,42.4L27.8,42.4
		c0.5-0.3,0.7-1,0.4-1.5v0c0,0-4.1-6.4-4.1-6.4c-0.3-0.5-1-0.7-1.5-0.3l-2.4,1.4l5.2,8.3L27.8,42.4z"/>
	<path style="clip-path:url(#SVGID_00000132070791238049607650000010722344184602708101_);fill:#FFFFFF;" d="M14.5,21.5L14.5,21.5
		c0.5-0.3,0.7-1,0.4-1.5h0l-4.2-6.6c-0.3-0.5-1-0.6-1.5-0.3l-2.4,1.4l5.3,8.4L14.5,21.5z"/>
	<path style="clip-path:url(#SVGID_00000132070791238049607650000010722344184602708101_);fill:#FFFFFF;" d="M15.4,33.2
		c-1.2-1.6-2.6-3.7-3.7-5.9c-0.7-1.5-1.2-2.9-0.3-3.7L6,15c-1.4,1.3-4.5,6.7,2.5,18.2c7.4,12,14.1,11.9,15.9,11.1L19.3,36
		C18.2,36.4,17.2,35.4,15.4,33.2"/>
</g>
</svg>
