<?xml version="1.0" encoding="utf-8"?>
<!-- Generator: Adobe Illustrator 26.5.0, SVG Export Plug-In . SVG Version: 6.00 Build 0)  -->
<svg version="1.1" id="Layer_1" xmlns="http://www.w3.org/2000/svg" xmlns:xlink="http://www.w3.org/1999/xlink" x="0px" y="0px"
	 viewBox="0 0 50 50" style="enable-background:new 0 0 50 50;" xml:space="preserve">
<style type="text/css">
	.st0{fill:#2B388F;}
	.st1{fill:#FFFFFF;}
</style>
<g id="Icons">
	<g>
		<path class="st0" d="M42,50H8c-4.4,0-8-3.6-8-8V8c0-4.4,3.6-8,8-8h34c4.4,0,8,3.6,8,8v34C50,46.4,46.4,50,42,50z"/>
	</g>
</g>
<g id="Text">
</g>
<g>
	<path class="st1" d="M41.1,13.4c-0.4-0.5-0.7-1-1.1-1.4c-3-3.5-7.2-5.9-12-6.6C27,5.3,26,5.2,25.1,5.2c0,0-0.2,0-0.2,0
		c-0.9,0-1.9,0.1-2.8,0.2c-4.8,0.7-9,3.1-12,6.6c-0.4,0.5-0.8,0.9-1.2,1.4C6.6,16.7,5.2,20.7,5.2,25c0,4.3,1.4,8.3,3.8,11.6
		c0.4,0.5,0.7,1,1.2,1.4c3,3.5,7.2,5.9,12,6.6c0.9,0.1,1.9,0.2,2.8,0.2c0,0,0.2,0,0.2,0c1,0,1.9-0.1,2.8-0.2c4.8-0.7,9-3.1,12-6.6
		c0.4-0.5,0.8-0.9,1.1-1.4c2.4-3.3,3.8-7.2,3.8-11.6C44.8,20.7,43.4,16.7,41.1,13.4z M20.2,7.7c-1.6,2.2-2.9,4.5-3.9,7
		c-1.6-0.5-3.1-1.1-4.6-1.8C14,10.4,16.9,8.6,20.2,7.7z M10.6,14.3c1.6,0.9,3.4,1.6,5.2,2.1c-0.8,2.4-1.2,5-1.3,7.6H7.1
		C7.3,20.4,8.5,17.1,10.6,14.3z M7.1,25.9h7.4c0.1,2.6,0.5,5.2,1.3,7.6c-1.8,0.6-3.5,1.3-5.2,2.1C8.5,32.9,7.3,29.6,7.1,25.9z
		 M11.8,37.1c1.5-0.7,3-1.4,4.6-1.8c1,2.5,2.3,4.9,3.9,7C16.9,41.4,14,39.6,11.8,37.1z M24.1,42.9c-0.4,0-0.7,0-1.1-0.1
		c-2.1-2.4-3.8-5.1-4.9-8.1c1.9-0.5,3.9-0.7,6-0.8V42.9z M24.1,32.2c-2.3,0.1-4.5,0.4-6.6,0.9c-0.7-2.3-1.1-4.7-1.2-7.1h7.8V32.2z
		 M24.1,24.1h-7.8c0.1-2.5,0.5-4.8,1.2-7.1c2.1,0.5,4.3,0.8,6.6,0.9V24.1z M24.1,16c-2-0.1-4.1-0.3-6-0.8c1.2-3,2.8-5.7,4.9-8.1
		c0.3,0,0.7-0.1,1.1-0.1V16z M39.4,14.3c2,2.8,3.3,6.1,3.5,9.7h-7.4c-0.1-2.6-0.5-5.2-1.3-7.6C36.1,15.9,37.8,15.2,39.4,14.3z
		 M38.2,12.9c-1.5,0.7-3,1.4-4.6,1.8c-1-2.5-2.3-4.9-3.9-7C33.1,8.6,36,10.4,38.2,12.9z M25.9,7.1c0.3,0,0.7,0,1,0.1
		c2.1,2.4,3.7,5.1,4.9,8.1c-1.9,0.5-3.9,0.7-6,0.8V7.1z M25.9,17.8c2.3-0.1,4.4-0.4,6.6-0.9c0.7,2.3,1.1,4.7,1.2,7.1h-7.8V17.8z
		 M25.9,25.9h7.8c-0.1,2.5-0.5,4.9-1.2,7.1c-2.1-0.5-4.3-0.8-6.6-0.9V25.9z M27,42.9c-0.3,0-0.7,0-1,0.1V34c2,0.1,4,0.3,6,0.8
		C30.7,37.8,29.1,40.5,27,42.9z M29.8,42.3c1.6-2.2,2.9-4.5,3.9-7c1.6,0.5,3.1,1.1,4.6,1.8C36,39.6,33.1,41.4,29.8,42.3z M39.4,35.7
		c-1.6-0.8-3.4-1.6-5.2-2.1c0.8-2.4,1.2-5,1.3-7.6h7.4C42.7,29.6,41.5,32.9,39.4,35.7z"/>
</g>
</svg>
