<?xml version="1.0" encoding="utf-8"?>
<!-- Generator: Adobe Illustrator 26.5.0, SVG Export Plug-In . SVG Version: 6.00 Build 0)  -->
<svg version="1.1" id="Layer_1" xmlns="http://www.w3.org/2000/svg" xmlns:xlink="http://www.w3.org/1999/xlink" x="0px" y="0px"
	 viewBox="0 0 50 50" style="enable-background:new 0 0 50 50;" xml:space="preserve">
<style type="text/css">
	.st0{fill:#F9A51A;}
	.st1{fill:#FFFFFF;}
</style>
<g id="Icons">
	<g>
		<path class="st0" d="M42,50H8c-4.4,0-8-3.6-8-8V8c0-4.4,3.6-8,8-8h34c4.4,0,8,3.6,8,8v34C50,46.4,46.4,50,42,50z"/>
	</g>
</g>
<g id="Text">
</g>
<g>
	<g>
		<g>
			<path class="st1" d="M26.8,4.6C24.9,4.8,18,8,17.7,24.5c-0.2,17.3,7.2,21,9.1,20.9V33.9c-1.6,0-1.9-1.7-2.3-5.3
				c-0.2-2.4-0.3-5.3,0-8.2c0.2-2.1,0.6-4.1,2.3-4.1L26.8,4.6L26.8,4.6z"/>
		</g>
		<g>
			<path class="st1" d="M31,45.4c0.7,0,1.3-0.6,1.3-1.3l0,0c0,0,0-8.9,0-8.9c0-0.7-0.6-1.3-1.3-1.3l-2.5,0v11.5
				C28.4,45.4,31,45.4,31,45.4L31,45.4L31,45.4z"/>
		</g>
		<g>
			<path class="st1" d="M31,16.3c0.7,0,1.3-0.6,1.3-1.3l0,0c0,0,0-9.2,0-9.2c0-0.7-0.6-1.3-1.3-1.3l-2.5,0v11.7
				C28.4,16.3,31,16.3,31,16.3L31,16.3L31,16.3z"/>
		</g>
	</g>
</g>
</svg>
