<?xml version="1.0" encoding="utf-8"?>
<!-- Generator: Adobe Illustrator 26.5.0, SVG Export Plug-In . SVG Version: 6.00 Build 0)  -->
<svg version="1.1" id="Layer_1" xmlns="http://www.w3.org/2000/svg" xmlns:xlink="http://www.w3.org/1999/xlink" x="0px" y="0px"
	 viewBox="0 0 50 50" style="enable-background:new 0 0 50 50;" xml:space="preserve">
<style type="text/css">
	.st0{fill:#916D43;}
	.st1{fill:#FFFFFF;}
</style>
<g id="Icons">
	<g>
		<path class="st0" d="M42,50H8c-4.4,0-8-3.6-8-8V8c0-4.4,3.6-8,8-8h34c4.4,0,8,3.6,8,8v34C50,46.4,46.4,50,42,50z"/>
	</g>
</g>
<g id="Text">
</g>
<g>
	<g>
		<polygon class="st1" points="6.6,14 25.1,26.6 43.8,14 		"/>
		<polygon class="st1" points="43.8,36.5 43.8,36.5 43.8,18.2 32.5,25.8 		"/>
		<path class="st1" d="M26.1,30.2c-0.3,0.2-0.6,0.3-0.9,0.3c-0.3,0-0.6-0.1-0.9-0.3l-4-2.7l-9.8,9.1h29.4l-9.7-9.1L26.1,30.2z"/>
		<polygon class="st1" points="6.4,18 6.4,36.5 17.9,25.9 		"/>
	</g>
</g>
</svg>
