<?xml version="1.0" encoding="utf-8"?>
<!-- Generator: Adobe Illustrator 28.0.0, SVG Export Plug-In . SVG Version: 6.00 Build 0)  -->
<svg version="1.1" id="Layer_1" xmlns="http://www.w3.org/2000/svg" xmlns:xlink="http://www.w3.org/1999/xlink" x="0px" y="0px"
	 viewBox="0 0 417.6 417.6" style="enable-background:new 0 0 417.6 417.6;" xml:space="preserve">
<g id="art">
	<g id="Elevator_2_">
		<g>
			<g>
				<path d="M352.9,363.1c0,10.2-8.3,18.5-18.5,18.5H83.3c-10.2,0-18.5-8.3-18.5-18.5V155.3c0-10.2,8.3-18.5,18.5-18.5h251.1
					c10.2,0,18.5,8.3,18.5,18.5V363.1z M331.3,162c0-2-1.6-3.6-3.6-3.6H90.1c-2,0-3.6,1.6-3.6,3.6v194.4c0,2,1.6,3.6,3.6,3.6h237.6
					c2,0,3.6-1.6,3.6-3.6L331.3,162L331.3,162z"/>
				<polygon points="193.9,75.1 193.9,94.4 165.7,65.8 165.7,122.5 151.1,122.5 151.1,65.8 122.9,94.4 122.9,75.1 158.4,39.6 				
					"/>
				<polygon points="223.7,87 223.7,67.6 251.9,96.3 251.9,39.6 266.5,39.6 266.5,96.3 294.7,67.6 294.7,87 259.2,122.5 				"/>
				<g>
					<g>
						<path d="M208.8,262.9c-5.3,0-10.7-0.5-15.9-1.6v84.5c0,3.8,3.1,7,7,7c3.8,0,7-3.1,7-7v-64l0,0v-2.7c0-1.1,0.9-2,2-2l0,0
							c1.1,0,2,0.9,2,2v2.7l0,0v64c0,3.8,3.1,7,7,7s7-3.1,7-7v-84.6C219.5,262.3,214.1,262.9,208.8,262.9z"/>
						<g>
							<g>
								<path d="M241.6,262.8l-3-42.5c0-10.3-9.5-19-22-21c-2.3,1.4-5,2.2-7.9,2.2s-5.6-0.8-7.9-2.2c-12.5,2.1-22,10.8-22,21.1
									c0,0,0,0,0,0.1l-3,42.4c-0.2,3.3,2,6.1,5,6.3c3,0.2,5.7-2.3,5.9-5.6l2.6-36.7l0,0c0.2-3.1,0.3-4,0.3-4.1
									c0.2-1.1,1.3-1.8,2.3-1.6c1.1,0.2,1.8,1.3,1.6,2.3c0,0.1-0.4,1.8-0.8,10.2l0,0v23.4c10.5,2.3,21.4,2.3,31.9,0v-23.4
									c-0.3-8.5-0.8-10.1-0.8-10.2c-0.2-1.1,0.5-2.1,1.6-2.3c1.1-0.2,2.1,0.5,2.3,1.6c0,0.1,0.1,1,0.3,4.1l0,0l2.6,36.7
									c0.2,3.3,2.9,5.8,5.9,5.6C239.6,269,241.9,266.1,241.6,262.8z"/>
							</g>
						</g>
					</g>
					<path d="M220.7,184.9c0,6.9-5.4,12.5-12,12.5s-11.9-5.6-11.9-12.5v-6.8c0-6.9,5.4-12.5,11.9-12.5c6.6,0,12,5.6,12,12.5V184.9z"
						/>
				</g>
				<g>
					<g>
						<path d="M283.5,262.9c-5.3,0-10.7-0.5-15.9-1.6v84.5c0,3.8,3.1,7,7,7c3.8,0,7-3.1,7-7v-64l0,0v-2.7c0-1.1,0.9-2,2-2l0,0
							c1.1,0,2,0.9,2,2v2.7l0,0v64c0,3.8,3.1,7,7,7c3.8,0,7-3.1,7-7v-84.6C294.2,262.3,288.9,262.9,283.5,262.9z"/>
						<g>
							<g>
								<path d="M316.4,262.8l-3-42.5c0-10.3-9.5-19-22-21c-2.3,1.4-5,2.2-7.9,2.2s-5.6-0.8-7.9-2.2c-12.5,2.1-22,10.8-22,21.1
									c0,0,0,0,0,0.1l-3,42.4c-0.2,3.3,2,6.1,5,6.3c3,0.2,5.7-2.3,5.9-5.6l2.6-36.7l0,0c0.2-3.1,0.3-4,0.3-4.1
									c0.2-1.1,1.3-1.8,2.3-1.6c1.1,0.2,1.8,1.3,1.6,2.3c0,0.1-0.4,1.8-0.8,10.2l0,0v23.4c10.5,2.3,21.4,2.3,31.9,0v-23.4
									c-0.3-8.5-0.8-10.1-0.8-10.2c-0.2-1.1,0.5-2.1,1.6-2.3c1.1-0.2,2.1,0.5,2.3,1.6c0,0.1,0.1,1,0.3,4.1l0,0l2.6,36.7
									c0.2,3.3,2.9,5.8,5.9,5.6S316.6,266.1,316.4,262.8z"/>
							</g>
						</g>
					</g>
					<path d="M295.5,184.9c0,6.9-5.4,12.5-12,12.5s-11.9-5.6-11.9-12.5v-6.8c0-6.9,5.4-12.5,11.9-12.5c6.6,0,12,5.6,12,12.5V184.9z"
						/>
				</g>
				<g>
					<g>
						<path d="M134.1,262.9c-5.3,0-10.7-0.5-15.9-1.6v84.5c0,3.8,3.1,7,7,7c3.8,0,7-3.1,7-7v-64l0,0v-2.7c0-1.1,0.9-2,2-2l0,0
							c1.1,0,2,0.9,2,2v2.7l0,0v64c0,3.8,3.1,7,7,7s7-3.1,7-7v-84.6C144.8,262.3,139.4,262.9,134.1,262.9z"/>
						<g>
							<g>
								<path d="M167,262.8l-3-42.5c0-10.3-9.5-19-22-21c-2.3,1.4-5,2.2-7.9,2.2s-5.6-0.8-7.9-2.2c-12.5,2.1-22,10.8-22,21.1
									c0,0,0,0,0,0.1l-3,42.4c-0.2,3.3,2,6.1,5.1,6.3c3,0.2,5.6-2.3,5.9-5.6l2.6-36.7l0,0c0.2-3.1,0.3-4,0.3-4.1
									c0.2-1.1,1.3-1.8,2.3-1.6c1.1,0.2,1.8,1.3,1.6,2.3c0,0.1-0.4,1.8-0.8,10.2l0,0v23.4c10.5,2.3,21.4,2.3,31.9,0v-23.4
									c-0.3-8.5-0.8-10.1-0.8-10.2c-0.2-1.1,0.5-2.1,1.6-2.3c1.1-0.2,2.1,0.5,2.3,1.6c0,0.1,0.1,1,0.3,4.1l0,0l2.6,36.7
									c0.2,3.3,2.9,5.8,5.9,5.6C164.9,269,167.2,266.1,167,262.8z"/>
							</g>
						</g>
					</g>
					<path d="M146,184.9c0,6.9-5.4,12.5-12,12.5s-11.9-5.6-11.9-12.5v-6.8c0-6.9,5.4-12.5,11.9-12.5c6.6,0,12,5.6,12,12.5V184.9z"/>
				</g>
			</g>
		</g>
	</g>
</g>
</svg>
