<?xml version="1.0" encoding="utf-8"?>
<!-- Generator: Adobe Illustrator 26.0.3, SVG Export Plug-In . SVG Version: 6.00 Build 0)  -->
<svg version="1.1" id="Layer_1" xmlns="http://www.w3.org/2000/svg" xmlns:xlink="http://www.w3.org/1999/xlink" x="0px" y="0px"
	 viewBox="0 0 100 100" enable-background="new 0 0 100 100" xml:space="preserve">
<g>
	<path fill="none" stroke="#000000" stroke-width="3" stroke-linecap="round" stroke-linejoin="round" stroke-miterlimit="10" d="
		M22.1,58.9"/>
	<g>
		<path fill="none" stroke="#000000" stroke-width="3" stroke-linecap="round" stroke-linejoin="round" stroke-miterlimit="10" d="
			M14.1,56.6H21c0.9,0,1.6,0.7,1.6,1.6V81c0,0.7-0.5,1.3-1.1,1.6L14.1,85"/>
	</g>
	<path fill="none" stroke="#000000" stroke-width="3" stroke-linecap="round" stroke-linejoin="round" stroke-miterlimit="10" d="
		M28.3,74.7"/>
	<path fill="none" stroke="#000000" stroke-width="3" stroke-linecap="round" stroke-linejoin="round" stroke-miterlimit="10" d="
		M22.6,61c0,0,2.4,1.3,5.7-2.2s4.9-6,14.6-6s15.3,0,15.3,0s0.8,1.3,0.8,3.6c0,2.4-1.6,4.6-14.7,4.6"/>
	<path fill="none" stroke="#000000" stroke-width="3" stroke-linecap="round" stroke-linejoin="round" stroke-miterlimit="10" d="
		M58.3,52.8l3-2.9c0,0,3.8-3.5,7.6-0.6"/>
	<path fill="none" stroke="#000000" stroke-width="3" stroke-linecap="round" stroke-linejoin="round" stroke-miterlimit="10" d="
		M59.1,59.7l10.4-9.8c0,0,3.8-3.5,7.6-0.6"/>
	<path fill="none" stroke="#000000" stroke-width="3" stroke-linecap="round" stroke-linejoin="round" stroke-miterlimit="10" d="
		M23.1,78.5h17.7c0,0,5.9,0.1,17.4-3.8l4.6-1.5c0,0,5-1.9,8.3-5.7c3.3-3.8,13.7-14,13.7-14s2.1-1.8,0-4.2c-3.2-3.6-7.6,0.6-7.6,0.6
		l-3,2.9L66.7,60c0,0-1.8,1.3-7.1,1.3s-15.5,0-15.5,0"/>
	<path fill="none" stroke="#000000" stroke-width="3" stroke-linecap="round" stroke-linejoin="round" stroke-miterlimit="10" d="
		M41.6,33.1c0,0,11.4,4,16.2,19"/>
	<path fill="none" stroke="#000000" stroke-width="3" stroke-linecap="round" stroke-linejoin="round" stroke-miterlimit="10" d="
		M31.9,23.1c0,0,6.7-0.9,14.6,2.1s12.9,9.8,6.8,17.4c-6.4,8.1-17.4,2.5-19.9-5C30.9,30.1,31.9,23.1,31.9,23.1z"/>
	<g>
		<path fill="none" stroke="#000000" stroke-width="3" stroke-linecap="round" stroke-linejoin="round" stroke-miterlimit="10" d="
			M70.5,27c0,0.3-10.1,7.3-11.8,25.1"/>
		<path fill="none" stroke="#000000" stroke-width="3" stroke-linecap="round" stroke-linejoin="round" stroke-miterlimit="10" d="
			M83.2,15.1c0,0-6.7-0.8-14.5,2.2S55.9,27.1,62,34.7c6.5,8,17.4,2.3,19.8-5.1C84.3,22,83.2,15.1,83.2,15.1z"/>
	</g>
</g>
</svg>
