<?xml version="1.0" encoding="utf-8"?>
<!-- Generator: Adobe Illustrator 26.0.3, SVG Export Plug-In . SVG Version: 6.00 Build 0)  -->
<svg version="1.1" id="Layer_1" xmlns="http://www.w3.org/2000/svg" xmlns:xlink="http://www.w3.org/1999/xlink" x="0px" y="0px"
	 viewBox="0 0 100 100" enable-background="new 0 0 100 100" xml:space="preserve">
<g>
	
		<path fill="none" stroke="#000000" stroke-width="2.85" stroke-linecap="round" stroke-linejoin="round" stroke-miterlimit="10" d="
		M69.5,48.2c0.4-1.4,0.5-2.9,0.5-4.4c0-13-13.7-23.6-30.6-23.6S9,30.7,9,43.8c0,8.3,5.6,15.6,14,19.8l0,0l-8.5,15.5l16.4-12.2
		c0,0,4.4,0.5,8.7,0.5c3.4,0,6.7-0.4,9.7-1.2"/>
	<g>
		
			<line fill="none" stroke="#000000" stroke-width="2.85" stroke-linecap="round" stroke-linejoin="round" stroke-miterlimit="10" x1="25.8" y1="36.7" x2="53.3" y2="36.7"/>
		
			<line fill="none" stroke="#000000" stroke-width="2.85" stroke-linecap="round" stroke-linejoin="round" stroke-miterlimit="10" x1="25.8" y1="45.4" x2="53.3" y2="45.4"/>
		
			<line fill="none" stroke="#000000" stroke-width="2.85" stroke-linecap="round" stroke-linejoin="round" stroke-miterlimit="10" x1="25.8" y1="54.1" x2="53.3" y2="54.1"/>
	</g>
	<g>
		<g>
			
				<path fill="none" stroke="#000000" stroke-width="2.85" stroke-linecap="round" stroke-linejoin="round" stroke-miterlimit="10" d="
				M41.1,79.8l5.7-11.5l36.2-32.1c0,0,3.7-2.7,6.7,0.7"/>
		</g>
		<g>
			
				<path fill="none" stroke="#000000" stroke-width="2.85" stroke-linecap="round" stroke-linejoin="round" stroke-miterlimit="10" d="
				M41.1,79.8l12.2-4l36.2-32.1c0,0,3.2-3.3,0.2-6.7"/>
			
				<line fill="none" stroke="#000000" stroke-width="2.85" stroke-linecap="round" stroke-linejoin="round" stroke-miterlimit="10" x1="53.1" y1="75.1" x2="48" y2="69.2"/>
		</g>
	</g>
	
		<line fill="none" stroke="#000000" stroke-width="2.85" stroke-linecap="round" stroke-linejoin="round" stroke-miterlimit="10" x1="41.1" y1="79.8" x2="83.3" y2="79.8"/>
</g>
</svg>
