<?xml version="1.0" encoding="utf-8"?>
<!-- Generator: Adobe Illustrator 26.0.3, SVG Export Plug-In . SVG Version: 6.00 Build 0)  -->
<svg version="1.1" id="Layer_1" xmlns="http://www.w3.org/2000/svg" xmlns:xlink="http://www.w3.org/1999/xlink" x="0px" y="0px"
	 viewBox="0 0 100 100" enable-background="new 0 0 100 100" xml:space="preserve">
<g>
	<g>
		
			<polyline fill="none" stroke="#000000" stroke-width="2.85" stroke-linecap="round" stroke-linejoin="round" stroke-miterlimit="10" points="
			56.5,59.4 28.9,87 16.3,74.4 32.6,58.1 		"/>
		
			<polyline fill="none" stroke="#000000" stroke-width="2.85" stroke-linecap="round" stroke-linejoin="round" stroke-miterlimit="10" points="
			57.4,33.3 74.4,16.3 87,28.9 59.4,56.5 		"/>
		<g>
			
				<line fill="none" stroke="#000000" stroke-width="2.85" stroke-linecap="round" stroke-linejoin="round" stroke-miterlimit="10" x1="81.3" y1="34.6" x2="75.6" y2="28.9"/>
			
				<line fill="none" stroke="#000000" stroke-width="2.85" stroke-linecap="round" stroke-linejoin="round" stroke-miterlimit="10" x1="65.7" y1="50.2" x2="60.1" y2="44.5"/>
			
				<line fill="none" stroke="#000000" stroke-width="2.85" stroke-linecap="round" stroke-linejoin="round" stroke-miterlimit="10" x1="73.4" y1="42.6" x2="70.5" y2="39.7"/>
			
				<line fill="none" stroke="#000000" stroke-width="2.85" stroke-linecap="round" stroke-linejoin="round" stroke-miterlimit="10" x1="50.2" y1="65.7" x2="44.5" y2="60.1"/>
			
				<line fill="none" stroke="#000000" stroke-width="2.85" stroke-linecap="round" stroke-linejoin="round" stroke-miterlimit="10" x1="34.6" y1="81.3" x2="28.9" y2="75.6"/>
			
				<line fill="none" stroke="#000000" stroke-width="2.85" stroke-linecap="round" stroke-linejoin="round" stroke-miterlimit="10" x1="42.2" y1="73.7" x2="39.4" y2="70.8"/>
		</g>
	</g>
	<g>
		<g>
			
				<path fill="none" stroke="#000000" stroke-width="2.85" stroke-linecap="round" stroke-linejoin="round" stroke-miterlimit="10" d="
				M80.3,80.3c1.6-1.7,1.6-4.3,0-5.9l0,0L61.6,55.7l0,0c0,0,0,0,0,0c-0.2-0.2-1.1,0.2-2.1,1l-7.1-7l-2.9,2.9l7.1,7
				c-0.8,1-1.2,1.9-1,2.1c0,0,0,0,0,0l0,0l18.7,18.7C76,82,78.7,81.9,80.3,80.3z"/>
		</g>
		
			<circle fill="none" stroke="#000000" stroke-width="2.85" stroke-linecap="round" stroke-linejoin="round" stroke-miterlimit="10" cx="35.2" cy="35.2" r="22.2"/>
	</g>
</g>
</svg>
