<?xml version="1.0" encoding="utf-8"?>
<!-- Generator: Adobe Illustrator 26.3.1, SVG Export Plug-In . SVG Version: 6.00 Build 0)  -->
<svg version="1.1" xmlns="http://www.w3.org/2000/svg" xmlns:xlink="http://www.w3.org/1999/xlink" x="0px" y="0px"
	 viewBox="0 0 50 50" style="enable-background:new 0 0 50 50;" xml:space="preserve">
<style type="text/css">
	.st0{fill:#FFFFFF;}
</style>
<g id="background">
	<g>
		<path d="M42,50H8c-4.4,0-8-3.6-8-8V8c0-4.4,3.6-8,8-8h34c4.4,0,8,3.6,8,8v34C50,46.4,46.4,50,42,50z"/>
	</g>
</g>
<g id="art">
	<g>
		<path class="st0" d="M23.7,23.8h-3.1v4.6h3.5v-4.8L24,23.7C23.9,23.7,23.8,23.8,23.7,23.8z"/>
		<polygon class="st0" points="25.2,28.4 26.4,28.4 26.4,24.1 25.2,22.9 		"/>
		<path class="st0" d="M8.8,7.3v35.4h32.5V7.3H8.8z M10,41.5V23.4l7.5,6.6l0,5.8c0,0.1,0,0.2,0.1,0.3l2.2,2.2
			c0.1,0.1,0.2,0.1,0.3,0.1h5.7c0.1,0,1.9,0,1.9,0.1l2.8,2.9H10z M34.8,13.6h-5.3V20h3.2c0.3,0,0.5,0.2,0.5,0.5S33,21,32.7,21h-3.2
			v0.3h4.2c0.3,0,0.5,0.2,0.5,0.5s-0.2,0.5-0.5,0.5H29c-0.3,0-0.5-0.2-0.5-0.5V21H27l-1.2,1.1l1.4,1.4c0.1,0.1,0.1,0.2,0.1,0.4v4.5
			h2.8c0.3,0,0.5,0.2,0.5,0.5s-0.2,0.5-0.5,0.5h-2.8v5.7c0,0.3-0.2,0.5-0.5,0.5h-0.7c-0.3,0-0.5-0.2-0.5-0.5V34
			c0-0.3,0.4-0.6,0.7-0.5v-4.2h-1.2v5.4c0,0.3-0.2,0.5-0.5,0.5s-0.5-0.2-0.5-0.5v-5.4h-4.6v2.2c0,0.3-0.2,0.5-0.5,0.5
			s-0.5-0.2-0.5-0.5v-2.7c0-0.3,0.2-0.5,0.5-0.5h0.6v-4.6h-6.3c-0.3,0-0.5-0.2-0.5-0.5s0.2-0.5,0.5-0.5h10.2l1.8-1.6l-0.7-0.7h-3.1
			c-0.3,0-0.5-0.2-0.5-0.5s0.2-0.5,0.5-0.5h2.8v-1.9L22,15.3H14c-0.3,0-0.5-0.2-0.5-0.5v-2.1c0-0.3,0.2-0.5,0.5-0.5s0.5,0.2,0.5,0.5
			v1.6h7.8c0.1,0,0.3,0.1,0.4,0.1l2.6,2.6c0.1,0.1,0.1,0.2,0.1,0.4v2.4l0.8,0.7l0.4-0.3c0.1-0.1,0.2-0.1,0.3-0.1h1.7v-6.9
			c0-0.3,0.2-0.5,0.5-0.5h5.8c0.3,0,0.5,0.2,0.5,0.5S35.1,13.6,34.8,13.6z"/>
	</g>
</g>
</svg>
