<?xml version="1.0" encoding="utf-8"?>
<!-- Generator: Adobe Illustrator 26.3.1, SVG Export Plug-In . SVG Version: 6.00 Build 0)  -->
<svg version="1.1" xmlns="http://www.w3.org/2000/svg" xmlns:xlink="http://www.w3.org/1999/xlink" x="0px" y="0px"
	 viewBox="0 0 50 50" style="enable-background:new 0 0 50 50;" xml:space="preserve">
<style type="text/css">
	.st0{fill:#FFFFFF;}
</style>
<g id="background">
	<g>
		<path d="M42,50H8c-4.4,0-8-3.6-8-8V8c0-4.4,3.6-8,8-8h34c4.4,0,8,3.6,8,8v34C50,46.4,46.4,50,42,50z"/>
	</g>
</g>
<g id="art">
	<path class="st0" d="M41,13.5c0-0.2-0.1-0.3-0.3-0.4L25.2,5C25,5,24.9,5,24.7,5l-15.5,8C9.1,13.1,9,13.3,9,13.5
		c0,0.1-0.3,11.3,3.2,20.4c2.9,7.6,12.3,11,12.7,11.1l0,0c0,0,0.1,0,0.1,0c0.1,0,0.1,0,0.2,0c0.4-0.1,9.7-3.4,12.6-11.1
		C41.3,24.8,41,13.6,41,13.5z M22.8,29.6c-0.2,0-0.4-0.1-0.6-0.3l-4.4-5.3c-0.3-0.3-0.2-0.8,0.1-1c0.3-0.3,0.8-0.2,1,0.1l3.9,4.7
		l9.3-7.6c0.3-0.3,0.8-0.2,1,0.1c0.3,0.3,0.2,0.8-0.1,1l-9.9,8.1C23.1,29.6,23,29.6,22.8,29.6z M33.7,36.6c-3.3,4.1-8.2,6.2-8.4,6.3
		C25.2,43,25.1,43,25,43c-0.1,0-0.1,0-0.2,0c-0.4-0.1-0.6-0.5-0.5-0.9c0.1-0.2,0.2-0.4,0.5-0.5c0.5-0.2,4.9-2.3,7.8-5.9
		c0.3-0.3,0.7-0.4,1-0.1C33.9,35.8,34,36.3,33.7,36.6z M34.6,34.8c-0.4,0-0.8-0.4-0.8-0.8s0.4-0.8,0.8-0.8s0.8,0.4,0.8,0.8
		S35.1,34.8,34.6,34.8z"/>
</g>
</svg>
