<?xml version="1.0" encoding="UTF-8"?><svg xmlns="http://www.w3.org/2000/svg" width="50" height="50" viewBox="0 0 50 50"><defs><style>.cls-1{fill:#fff;}</style></defs><g id="background"><rect width="50" height="50" rx="8" ry="8"/></g><g id="art"><path class="cls-1" d="M41.83,11.03l-9.99-2.68v31.26l9.18,2.46c.13,.04,.27,.05,.41,.05,.34,0,.68-.11,.96-.33,.39-.3,.62-.76,.62-1.25V12.56c0-.71-.48-1.34-1.17-1.52ZM7.62,8.2c-.39,.3-.62,.76-.62,1.25v28c0,.71,.48,1.34,1.17,1.52l9.99,2.68V10.39l-9.18-2.46c-.47-.13-.98-.03-1.37,.27Zm11.99,2.62v31.26h0l10.78-2.89V7.92h0l-10.78,2.89Z"/></g></svg>