<?xml version="1.0" encoding="utf-8"?>
<!-- Generator: Adobe Illustrator 26.3.1, SVG Export Plug-In . SVG Version: 6.00 Build 0)  -->
<svg version="1.1" xmlns="http://www.w3.org/2000/svg" xmlns:xlink="http://www.w3.org/1999/xlink" x="0px" y="0px"
	 viewBox="0 0 50 50" style="enable-background:new 0 0 50 50;" xml:space="preserve">
<style type="text/css">
	.st0{clip-path:url(#SVGID_00000017487973089427716270000016763902786889461178_);fill:#FFFFFF;}
</style>
<g id="background">
	<g>
		<path d="M42,50H8c-4.4,0-8-3.6-8-8V8c0-4.4,3.6-8,8-8h34c4.4,0,8,3.6,8,8v34C50,46.4,46.4,50,42,50z"/>
	</g>
</g>
<g id="art">
	<g>
		<g>
			<defs>
				<path id="SVGID_1_" d="M9.8,13.3c0-1.5,1.2-2.8,2.8-2.8c1.5,0,2.8,1.2,2.8,2.8c0,2.5,0,4.1,0,4.8c0,0.1-0.1,0.1-0.2,0.1
					c-0.8-0.4-1.7-0.7-2.6-0.7c-1,0-1.9,0.2-2.6,0.7c-0.1,0-0.2,0-0.2-0.1C9.8,17.4,9.8,15.8,9.8,13.3L9.8,13.3z M40.3,36.7
					c0,1.5-1.2,2.8-2.8,2.8c-1.5,0-2.8-1.2-2.8-2.8c0-2.5,0-4.1,0-4.8c0-0.1,0.1-0.1,0.2-0.1c0.8,0.4,1.7,0.7,2.6,0.7
					c1,0,1.9-0.2,2.6-0.7c0.1,0,0.2,0,0.2,0.1C40.3,32.6,40.3,34.2,40.3,36.7L40.3,36.7z M8.8,23.2c0-2.1,1.7-3.8,3.8-3.8
					c2.1,0,3.8,1.7,3.8,3.8c0,2.1-1.7,3.8-3.8,3.8C10.5,27,8.8,25.3,8.8,23.2L8.8,23.2z M33.7,26.8c0-2.1,1.7-3.8,3.8-3.8
					c2.1,0,3.8,1.7,3.8,3.8c0,2.1-1.7,3.8-3.8,3.8C35.4,30.5,33.7,28.9,33.7,26.8L33.7,26.8z M22.3,18.8c0-5,4-9,9-9c5,0,9,4,9,9
					c0,1.3,0,2.3,0,3c0,0.1-0.1,0.1-0.1,0.1c-0.8-0.4-1.7-0.7-2.6-0.7c-1,0-1.8,0.2-2.6,0.7c-0.1,0-0.2,0-0.2-0.1c0-0.7,0-1.6,0-3v0
					c0-1.9-1.5-3.4-3.4-3.4c-1.9,0-3.4,1.5-3.4,3.4c0,0-0.1,12.5-0.1,12.5c0,5-4,9-9,9c-5,0-9-4-9-9c0-1.3,0-2.3,0-3
					c0-0.1,0.1-0.1,0.1-0.1c0.8,0.4,1.7,0.7,2.6,0.7c1,0,1.8-0.2,2.6-0.7c0.1,0,0.2,0,0.2,0.1c0,0.7,0,1.6,0,3v0
					c0,1.9,1.5,3.4,3.4,3.4s3.4-1.5,3.4-3.4C22.2,31.2,22.3,18.8,22.3,18.8L22.3,18.8z"/>
			</defs>
			<use xlink:href="#SVGID_1_"  style="overflow:visible;fill:#FFFFFF;"/>
			<clipPath id="SVGID_00000149342439852959447710000005057280328062242459_">
				<use xlink:href="#SVGID_1_"  style="overflow:visible;"/>
			</clipPath>
			<polygon style="clip-path:url(#SVGID_00000149342439852959447710000005057280328062242459_);fill:#FFFFFF;" points="8.5,40.5 
				41.5,40.5 41.5,9.5 8.5,9.5 8.5,40.5 			"/>
		</g>
	</g>
</g>
</svg>
