<?xml version="1.0" encoding="utf-8"?>
<!-- Generator: Adobe Illustrator 26.3.1, SVG Export Plug-In . SVG Version: 6.00 Build 0)  -->
<svg version="1.1" xmlns="http://www.w3.org/2000/svg" xmlns:xlink="http://www.w3.org/1999/xlink" x="0px" y="0px"
	 viewBox="0 0 50 50" style="enable-background:new 0 0 50 50;" xml:space="preserve">
<style type="text/css">
	.st0{fill:#FFFFFF;}
</style>
<g id="background">
	<g>
		<path d="M42,50H8c-4.4,0-8-3.6-8-8V8c0-4.4,3.6-8,8-8h34c4.4,0,8,3.6,8,8v34C50,46.4,46.4,50,42,50z"/>
	</g>
</g>
<g id="art">
	<g id="TAP_Vending_Machine_00000021811938866539023990000001157083947232592567_">
		<g>
			<g>
				<path class="st0" d="M44.2,35.4c0,1.1-0.9,2.1-2.1,2.1H26.6c-0.4-2.8-2.8-5-5.8-5c-2.9,0-5.4,2.2-5.8,5h-0.5
					c-1.1,0-2.1-0.9-2.1-2.1V17.1c0-1.1,0.9-2.1,2.1-2.1h27.5c1.1,0,2.1,0.9,2.1,2.1V35.4z M34.2,34.3l0.1-0.6
					c-0.2,0-0.2-0.1-0.2-0.3v-1.3c0-0.7-0.3-1-1.1-1c-0.8,0-1.3,0.3-1.3,0.9c0,0.1,0,0.1,0,0.2l0.8-0.2c0,0,0-0.1,0-0.1
					c0-0.2,0.2-0.3,0.4-0.3c0.3,0,0.4,0.2,0.4,0.5v0.3l-0.9,0.3c-0.5,0.1-0.6,0.3-0.7,0.6c0,0.1-0.1,0.2-0.1,0.3
					c0,0.5,0.4,0.8,0.9,0.8c0.3,0,0.6-0.1,0.9-0.4c0.1,0.3,0.3,0.3,0.7,0.3H34.2L34.2,34.3z M33.3,32.9v0.6
					c-0.1,0.1-0.2,0.1-0.2,0.1c-0.1,0.1-0.2,0.1-0.3,0.1c-0.2,0-0.3-0.1-0.3-0.3c0-0.1,0-0.1,0.1-0.3L33.3,32.9L33.3,32.9z
					 M36.4,34.4c0.8,0,1.5-0.8,1.5-1.7c0-0.9-0.5-1.5-1.3-1.5c-0.2,0-0.4,0.1-0.5,0.2c-0.1,0.1-0.2,0.2-0.3,0.4v-0.4H35v4.6h0.8
					v-1.7c0.2,0.1,0.2,0.2,0.4,0.2C36.3,34.4,36.3,34.4,36.4,34.4L36.4,34.4z M36.5,31.8c0.4,0,0.6,0.4,0.6,0.9c0,0.6-0.3,1-0.8,1
					c-0.1,0-0.3,0-0.4-0.1c-0.1-0.1-0.2-0.2-0.2-0.4V33v-0.8C36,31.9,36.2,31.8,36.5,31.8L36.5,31.8z M30.9,33.4L30.9,33.4
					c-0.2,0.1-0.3,0.2-0.4,0.2c-0.1,0-0.1-0.1-0.1-0.4c0,0,0-1.3,0-1.3c0,0,0.6,0,0.6,0v-0.6c0,0-0.6,0-0.6,0c0,0,0-0.9,0-0.9l0-0.1
					l-0.7,0.1c0,0,0,0.9,0,0.9c0,0-0.4,0.1-0.4,0.1v0.5c0,0,0.4,0,0.4,0c0,0,0,1.8,0,1.8c0,0.5,0.2,0.7,0.6,0.7
					c0.2,0,0.4-0.1,0.7-0.2l0.1-0.1l0.2-0.1l0,0L30.9,33.4L30.9,33.4z M39.8,28.4v-0.9h-0.9v0.9H39.8L39.8,28.4z M40.7,29.4v-0.9
					h-0.9v0.9H40.7L40.7,29.4z M40.7,31.2v-0.9h-0.9v0.9H40.7L40.7,31.2z M39.8,32.1v-0.9h-0.9v0.9H39.8L39.8,32.1z M41.7,30.3v-0.9
					h-0.9v0.9H41.7L41.7,30.3z M39.8,30.3v-0.9h-0.9v0.9H39.8L39.8,30.3z"/>
				<path class="st0" d="M34.3,6.7c-0.1,0-0.2,0-0.4,0l-26.8,6c-0.9,0.2-1.5,1.1-1.3,2l4,17.9c0.2,0.8,0.9,1.3,1.6,1.3
					c0.1,0,0.1,0,0.2,0V17.1c0-1.6,1.3-2.9,2.9-2.9h22.7L36,8C35.8,7.3,35.1,6.7,34.3,6.7z"/>
				<path class="st0" d="M25.8,38.3c0,2.8-2.2,5-5,5c-2.8,0-5-2.2-5-5c0-0.3,0-0.6,0.1-0.8c0.4-2.4,2.5-4.2,4.9-4.2
					c2.5,0,4.5,1.8,4.9,4.2C25.8,37.8,25.8,38.1,25.8,38.3z M22.9,39.4c0-0.5-0.1-0.9-0.4-1.1c-0.2-0.2-0.5-0.4-1-0.4l-0.3,0v-1.3
					c0.3,0,0.7,0.1,0.9,0.4l0.7-0.7c-0.4-0.4-0.9-0.6-1.5-0.6v-0.7h-0.8v0.7c-1,0.1-1.6,0.8-1.6,1.6c0,0.5,0.1,0.8,0.4,1.1
					c0.2,0.2,0.6,0.4,1.1,0.5l0.2,0v1.4c-0.5,0-0.9-0.1-1.2-0.5l-0.7,0.7c0.5,0.5,1.1,0.7,1.8,0.7v0.8h0.8V41
					C22.2,40.9,22.9,40.3,22.9,39.4z M20.6,37.7c-0.2,0-0.4-0.1-0.5-0.2c-0.1-0.1-0.2-0.3-0.2-0.4c0-0.3,0.2-0.6,0.7-0.7V37.7z
					 M21.9,39.4c0,0.4-0.3,0.6-0.7,0.7v-1.3c0.2,0,0.4,0.1,0.5,0.2C21.8,39.1,21.9,39.2,21.9,39.4z"/>
			</g>
		</g>
	</g>
</g>
</svg>
