<?xml version="1.0" encoding="utf-8"?>
<!-- Generator: Adobe Illustrator 26.3.1, SVG Export Plug-In . SVG Version: 6.00 Build 0)  -->
<svg version="1.1" xmlns="http://www.w3.org/2000/svg" xmlns:xlink="http://www.w3.org/1999/xlink" x="0px" y="0px"
	 viewBox="0 0 50 50" style="enable-background:new 0 0 50 50;" xml:space="preserve">
<style type="text/css">
	.st0{fill:#FFFFFF;}
</style>
<g id="background">
	<g>
		<path d="M42,50H8c-4.4,0-8-3.6-8-8V8c0-4.4,3.6-8,8-8h34c4.4,0,8,3.6,8,8v34C50,46.4,46.4,50,42,50z"/>
	</g>
</g>
<g id="art">
	<path class="st0" d="M40.9,18.2c-0.8,0-2,0.2-2.5,0.3L25,14.6l-13.4,3.9c-0.5-0.1-1.7-0.3-2.5-0.3c-2.9,0-4.7,1.6-4.7,4.3
		c0,4.6,4.6,4.8,6.9,4.8c1.3,1.3,8.2,8.1,13.7,8.1c5.5,0,12.4-6.7,13.7-8.1c2.3,0,6.9-0.2,6.9-4.8C45.6,19.8,43.8,18.2,40.9,18.2z
		 M10.9,25.8c-3.5-0.1-4.9-1.1-4.9-3.3c0-2.3,1.7-2.8,3.2-2.8c0.4,0,1.2,0.1,1.7,0.2V25.8z M25.7,29.9c0,0.4-0.3,0.8-0.8,0.8
		s-0.8-0.3-0.8-0.8v-6.6c0-0.4,0.3-0.8,0.8-0.8s0.8,0.3,0.8,0.8V29.9z M29.1,19.5c-0.1,0.3-0.4,0.5-0.7,0.5c-0.1,0-0.2,0-0.2,0
		L25,19l-3.1,1c-0.4,0.1-0.8-0.1-0.9-0.5c-0.1-0.4,0.1-0.8,0.5-0.9l3.6-1.2l3.6,1.2C29,18.7,29.2,19.1,29.1,19.5z M39.1,25.8v-5.9
		c0.6-0.1,1.3-0.2,1.8-0.2c1.5,0,3.2,0.5,3.2,2.8C44.1,24.7,42.7,25.7,39.1,25.8z"/>
</g>
</svg>
