<?xml version="1.0" encoding="utf-8"?>
<!-- Generator: Adobe Illustrator 26.3.1, SVG Export Plug-In . SVG Version: 6.00 Build 0)  -->
<svg version="1.1" xmlns="http://www.w3.org/2000/svg" xmlns:xlink="http://www.w3.org/1999/xlink" x="0px" y="0px"
	 viewBox="0 0 50 50" style="enable-background:new 0 0 50 50;" xml:space="preserve">
<style type="text/css">
	.st0{fill:#FFFFFF;}
</style>
<g id="background">
	<g>
		<path d="M42,50H8c-4.4,0-8-3.6-8-8V8c0-4.4,3.6-8,8-8h34c4.4,0,8,3.6,8,8v34C50,46.4,46.4,50,42,50z"/>
	</g>
</g>
<g id="art">
	<g>
		<path class="st0" d="M21.2,30.5v-4.4c0-2.3-1.1-3.4-3.6-3.4c-2.8,0-4.4,1.1-4.4,3c0,0.3,0,0.4,0.1,0.7l2.5-0.6
			c0-0.1-0.1-0.2-0.1-0.3c0-0.5,0.6-1,1.5-1c0.9,0,1.3,0.5,1.3,1.7v0.9l-2.9,0.9C14,28.5,13.4,29,13,30c-0.1,0.3-0.2,0.7-0.2,1.1
			c0,1.7,1.2,2.9,3,2.9c1.1,0,1.9-0.4,2.9-1.3c0.5,0.9,0.9,1.1,2.2,1.1h0.6l0.4-2C21.3,31.7,21.2,31.5,21.2,30.5z M18.5,31
			c-0.4,0.3-0.5,0.4-0.7,0.5c-0.4,0.2-0.7,0.3-1.1,0.3c-0.7,0-1.1-0.4-1.1-1.1c0-0.3,0-0.5,0.2-0.9l2.7-0.9V31z"/>
		<path class="st0" d="M29.7,22.7c-0.7,0-1.3,0.2-1.8,0.5c-0.4,0.3-0.6,0.5-1.1,1.2V23l-2.7,0v15.9l2.7,0v-5.7
			c0.5,0.5,0.7,0.6,1.4,0.7c0.3,0,0.6,0.1,0.8,0.1c2.8,0,5-2.6,5-5.9C34,25,32.2,22.7,29.7,22.7z M28.6,31.7c-0.4,0-1-0.1-1.3-0.3
			c-0.4-0.3-0.6-0.5-0.6-1.3v-0.8v-2.7c0.7-1.1,1.4-1.7,2.3-1.7c1.2,0,2.1,1.3,2.1,3.3C31.2,30.2,30.1,31.7,28.6,31.7z"/>
		<path class="st0" d="M10.3,30.6L10.3,30.6c-0.7,0.5-1.1,0.7-1.4,0.7c-0.3,0-0.4-0.2-0.4-1.4v-4.4c0.1,0,2.2,0,2.2,0v-2.1
			c0,0-2,0-2.2,0v-3.1l-0.1-0.4l-2.5,0.4v3.1c-0.1,0-1.5,0.3-1.5,0.3v1.8c0,0,1.3,0,1.5,0v6.2c0,1.6,0.6,2.3,2,2.3
			c0.7,0,1.5-0.2,2.3-0.7l0.3-0.2l0.7-0.4l0-0.1L10.3,30.6z"/>
		
			<rect x="37.2" y="10.3" transform="matrix(1 -1.567642e-03 1.567642e-03 1 -1.863205e-02 6.075761e-02)" class="st0" width="3.1" height="3.2"/>
		<polygon class="st0" points="43.4,13.5 40.3,13.5 40.3,16.7 43.4,16.7 		"/>
		<polygon class="st0" points="40.3,23.1 43.4,23 43.4,19.9 40.3,19.9 		"/>
		<polygon class="st0" points="37.2,26.2 40.3,26.2 40.3,23.1 37.2,23.1 		"/>
		<polygon class="st0" points="43.4,16.7 43.4,19.9 46.6,19.9 46.6,16.7 		"/>
		
			<rect x="37.2" y="16.7" transform="matrix(1 -2.371055e-03 2.371055e-03 1 -4.323757e-02 9.192498e-02)" class="st0" width="3.1" height="3.2"/>
	</g>
</g>
</svg>
