<?xml version="1.0" encoding="utf-8"?>
<!-- Generator: Adobe Illustrator 26.3.1, SVG Export Plug-In . SVG Version: 6.00 Build 0)  -->
<svg version="1.1" xmlns="http://www.w3.org/2000/svg" xmlns:xlink="http://www.w3.org/1999/xlink" x="0px" y="0px"
	 viewBox="0 0 50 50" style="enable-background:new 0 0 50 50;" xml:space="preserve">
<style type="text/css">
	.st0{fill:#FFFFFF;}
</style>
<g id="background">
	<g>
		<path d="M42,50H8c-4.4,0-8-3.6-8-8V8c0-4.4,3.6-8,8-8h34c4.4,0,8,3.6,8,8v34C50,46.4,46.4,50,42,50z"/>
	</g>
</g>
<g id="art">
	<path class="st0" d="M41.8,11l-10-2.7v31.3l9.2,2.5c0.1,0,0.3,0.1,0.4,0.1c0.3,0,0.7-0.1,1-0.3c0.4-0.3,0.6-0.8,0.6-1.3v-28
		C43,11.8,42.5,11.2,41.8,11z M7.6,8.2C7.2,8.5,7,9,7,9.4v28c0,0.7,0.5,1.3,1.2,1.5l10,2.7V10.4L9,7.9C8.5,7.8,8,7.9,7.6,8.2z
		 M19.6,10.8v31.3c0,0,0,0,0,0l10.8-2.9V7.9c0,0,0,0,0,0L19.6,10.8z"/>
</g>
</svg>
