<?xml version="1.0" encoding="UTF-8"?><svg xmlns="http://www.w3.org/2000/svg" width="50" height="50" viewBox="0 0 50 50"><defs><style>.cls-1{fill:#fff;}</style></defs><g id="background"><rect width="50" height="50" rx="8" ry="8"/></g><g id="art"><path class="cls-1" d="M18.48,28.94l-2.67,.9c-.14,.4-.19,.61-.19,.88,0,.69,.4,1.09,1.07,1.09,.35,0,.72-.12,1.09-.32,.18-.1,.31-.19,.7-.48v-2.07Zm3.07,4.84h-.56c-1.34,0-1.76-.22-2.22-1.15-.98,.91-1.85,1.3-2.92,1.3-1.75,0-2.99-1.17-2.99-2.87,0-.36,.07-.73,.18-1.06,.35-.98,.97-1.48,2.5-1.94l2.95-.88v-.89c0-1.13-.41-1.66-1.28-1.66-.81,0-1.45,.44-1.45,.96,0,.1,.03,.14,.07,.27l-2.55,.58c-.1-.32-.13-.42-.13-.72,0-1.87,1.61-2.95,4.43-2.95,2.47,0,3.6,1.04,3.6,3.36v4.42c0,.95,.11,1.11,.83,1.19l-.43,2.05Z"/><path class="cls-1" d="M29.04,24.95c-.9,0-1.64,.55-2.3,1.67v3.53c0,.75,.14,1.02,.58,1.27,.35,.18,.87,.32,1.31,.32,1.43,0,2.55-1.55,2.55-3.54s-.9-3.25-2.14-3.25m-.12,9c-.26,0-.56-.03-.81-.07-.63-.11-.86-.22-1.38-.68v5.74h-2.68v-15.89h2.68v1.43c.51-.68,.78-.96,1.14-1.21,.5-.34,1.12-.53,1.79-.53,2.49,0,4.3,2.22,4.3,5.28,0,3.34-2.21,5.92-5.05,5.93"/><path class="cls-1" d="M10.26,30.61l-.08,.05c-.65,.45-1.03,.63-1.33,.63s-.44-.19-.44-1.38v-4.44c.15,0,2.18,0,2.18,0v-2.07s-2.03,0-2.18,0v-3.11l-.07-.41-2.49,.42v3.12c-.12,.02-1.48,.27-1.48,.27v1.8s1.34,0,1.48,0v6.22c0,1.55,.64,2.27,2.02,2.27,.71,0,1.49-.23,2.26-.69l.33-.2,.67-.42-.02-.05-.85-1.99Z"/><rect class="cls-1" x="37.19" y="10.32" width="3.11" height="3.18" transform="translate(-.02 .06) rotate(-.09)"/><polygon class="cls-1" points="43.42 16.68 40.31 16.69 40.31 13.51 43.42 13.5 43.42 16.68"/><polygon class="cls-1" points="43.42 23.05 40.31 23.05 40.31 19.87 43.42 19.86 43.42 23.05"/><polygon class="cls-1" points="40.31 26.24 37.19 26.24 37.19 23.06 40.31 23.05 40.31 26.24"/><polygon class="cls-1" points="46.55 19.86 43.42 19.86 43.42 16.68 46.55 16.68 46.55 19.86"/><rect class="cls-1" x="37.19" y="16.69" width="3.11" height="3.18" transform="translate(-.04 .09) rotate(-.14)"/></g></svg>