<?xml version="1.0" encoding="utf-8"?>
<!-- Generator: Adobe Illustrator 26.5.0, SVG Export Plug-In . SVG Version: 6.00 Build 0)  -->
<svg version="1.1" id="logo" xmlns="http://www.w3.org/2000/svg" xmlns:xlink="http://www.w3.org/1999/xlink" x="0px" y="0px"
	 viewBox="0 0 175.6 108.5" style="enable-background:new 0 0 175.6 108.5;" xml:space="preserve">
<style type="text/css">
	.st0{fill:#FFFFFF;}
</style>
<g>
	<g>
		<path class="st0" d="M27,49.5C27,37.1,37.1,27,49.5,27C62,27,72,37.1,72,49.5C72,62,62,72,49.5,72C37.1,72,27,62,27,49.5L27,49.5z
			"/>
		<g>
			<path d="M56.2,36.1l-5.6,16.7l2.5,7.6c1-3,4.1-11.9,4.3-12.5c0,5.1,0,15.3,0,15.3h5.7v-27H56.2z"/>
			<path d="M43.1,36.1h-6.9v27h5.7c0,0,0-10.1,0-15.3c0.3,0.8,5.3,15.3,5.3,15.3h5.1L43.1,36.1L43.1,36.1z"/>
		</g>
	</g>
	<g>
		<path class="st0" d="M112.6,77.5c-1.2,0.8-1.7,1-2.5,1.2c-0.5,0.2-1,0.2-1.5,0.2c-1.2,0-2.3-0.6-2.8-1.5c-0.3-0.5-0.4-0.9-0.4-1.9
			c0.2,0,8.6,0,8.6,0V74c0-3.5-2.3-6-5.5-6c-3.8,0-6.6,3.1-6.6,7.2c0,4,2.5,6.5,6.4,6.5c1.5,0,2.9-0.3,4.3-0.9
			c0.3-0.1,0.8-0.4,1.4-0.7l0.1,0L112.6,77.5L112.6,77.5z M108.3,70.7c1.5,0,2.1,0.7,2.2,2.5h-4.9C105.9,71.6,106.9,70.7,108.3,70.7
			z M90.3,76.5l-4.5-13h-4.7v18.1h3.4c0,0,0-7.9,0-11.4c0.2,0.5,4,11.4,4,11.4h3.4c1.3-3.9,3.9-10.9,4-11.3c0,1.3,0,11.3,0,11.3h3.5
			V63.4h-4.7L90.3,76.5z M123.2,77.5L123.2,77.5c-1,0.6-1.4,0.8-1.8,0.8c-0.4,0-0.6-0.2-0.6-1.8c0,0,0-5.4,0-5.6c0.2,0,2.8,0,2.8,0
			v-2.6c0,0-2.6,0-2.8,0v-3.9c0-0.3-0.1-0.5-0.1-0.5l-3.3,0.5c0,0,0,3.8,0,3.9c-0.1,0-1.9,0.3-1.9,0.3V71c0,0,1.8,0,1.9,0
			c0,0.2,0,7.9,0,7.9c0,2,0.8,2.9,2.6,2.9c0.9,0,2-0.3,3-0.9l0.4-0.3l0.9-0.5l0-0.1L123.2,77.5z M132.5,68.2c-1,0-1.8,0.7-3,2.8
			c0-0.5-0.1-2.6-0.1-2.6h-3.1v13.1h3.5v-6c0-0.9,0.3-1.7,0.9-2.4c0.5-0.6,1-0.9,1.5-0.9c0.3,0,0.6,0.1,0.9,0.4l0.1,0.1l1.1-3.4l0,0
			C133.9,68.5,133.3,68.2,132.5,68.2z M141.9,68.1c-3.8,0-6.6,2.9-6.6,6.8c0,3.9,2.9,6.9,6.6,6.9c3.8,0,6.6-3,6.6-6.9
			C148.6,71,145.7,68.1,141.9,68.1z M141.9,79c-1.6,0-3-1.8-3-4.1c0-2.2,1.4-4,3-4c1.6,0,3,1.8,3,4C144.9,77.1,143.6,79,141.9,79z"
			/>
		<g>
			<path class="st0" d="M148.6,68.6c-0.7,0-1.3-0.6-1.3-1.3c0-0.7,0.6-1.3,1.3-1.3c0.7,0,1.3,0.6,1.3,1.3
				C149.9,68,149.3,68.6,148.6,68.6z M148.6,66.2c-0.6,0-1.1,0.5-1.1,1.1c0,0.6,0.5,1.1,1.1,1.1c0.6,0,1.1-0.5,1.1-1.1
				C149.7,66.6,149.2,66.2,148.6,66.2z M148.9,68l-0.5-0.6h-0.2V68H148v-1.5h0.5c0.4,0,0.6,0.1,0.6,0.4c0,0.3-0.2,0.4-0.4,0.4
				l0.5,0.6H148.9z M148.8,66.7c0,0-0.1,0-0.3,0h-0.2v0.5h0.2c0.2,0,0.3-0.1,0.3-0.3C148.9,66.9,148.8,66.8,148.8,66.7z"/>
		</g>
	</g>
</g>
</svg>
