<?xml version="1.0" encoding="utf-8"?>
<!-- Generator: Adobe Illustrator 28.0.0, SVG Export Plug-In . SVG Version: 6.00 Build 0)  -->
<svg version="1.1" id="Layer_1" xmlns="http://www.w3.org/2000/svg" xmlns:xlink="http://www.w3.org/1999/xlink" x="0px" y="0px"
	 viewBox="0 0 100 100" style="enable-background:new 0 0 100 100;" xml:space="preserve">
<style type="text/css">
	.st0{fill:none;}
	.st1{fill:#2693AE;}
	.st2{fill:#759E3F;}
	.st3{fill:#7F67A7;}
	.st4{fill:#F05A2D;}
	.st5{fill:#DD7D26;}
	.st6{fill:#FFFFFF;}
	.st7{fill:none;stroke:#FFFFFF;stroke-width:2.7995;stroke-linecap:round;stroke-linejoin:round;stroke-miterlimit:10;}
	.st8{fill:#808285;}
	.st9{clip-path:url(#SVGID_00000049217696591487512810000003561847587985299347_);fill:#F6EB15;}
	.st10{fill:#231F20;}
</style>
<g>
	<g>
		<path d="M50.8,77.4c-0.5,0-1.1,0-1.6,0c-13.3,0-26.6-1.2-39.7-3.4c-0.7-0.1-1.2-0.7-1.2-1.5v-6.1c0-0.8,0.6-1.4,1.4-1.5
			c0.1,0,0.2,0,0.3,0c2.8,0,4.3-1,4.6-3.1c1.4-11.9,7.7-22.7,16.9-28.8c0.5-0.3,1.1-0.3,1.6,0c0.5,0.3,0.8,0.8,0.7,1.4l-0.1,1.5
			c-0.2,2.7-0.4,5.3-0.6,8l-0.4,5.7c-0.2,2.2-0.3,4.4-0.5,6.6c0,1,0.3,1.8,0.8,2.2c0.4,0.3,1.1,0.4,1.7,0.3l1.6-20.9
			c0.3-3.9,0.6-8,0.9-12l0-0.1c0-0.7,0.5-1.3,1.1-1.4c3.9-1,7.9-1.6,11.9-1.6c0,0,0,0,0,0c4,0,8,0.6,11.9,1.6
			c0.7,0.2,1.1,0.8,1.1,1.4v0.2c0.2,4,0.6,8,0.9,11.9l1.6,20.9c0.6,0,1.2,0,1.7-0.3c0.5-0.4,0.8-1.1,0.8-2.3
			c-0.1-2.1-0.3-4.3-0.5-6.5l-0.4-5.7c-0.2-2.6-0.4-5.3-0.6-8l-0.1-1.5c0-0.6,0.2-1.1,0.7-1.4c0.5-0.3,1.1-0.3,1.6,0
			c9.2,6.1,15.5,16.9,16.9,28.9c0.3,2,1.8,2.9,4.6,3c0.1,0,0.2,0,0.3,0c0.8,0.1,1.4,0.7,1.4,1.5v6.1c0,0.7-0.5,1.4-1.2,1.5
			C77.5,76.3,64.1,77.4,50.8,77.4z M50,74.4c0.3,0,0.5,0,0.8,0c12.7,0,25.5-1.1,38-3.2v-3.4c-4.7-0.5-5.9-3.6-6.3-5.5
			c-1.2-10.1-6-19.2-13.1-25c0.1,2.1,0.3,4.2,0.4,6.2l0.4,5.7c0.2,2.2,0.3,4.4,0.5,6.6c0,2.3-0.7,3.8-2,4.8c-2.1,1.5-5,0.7-5.3,0.6
			c-0.6-0.2-1-0.7-1-1.3l-1.7-22c-0.3-3.6-0.6-7.4-0.8-11.2c-3.3-0.8-6.7-1.2-10-1.2c-3.4,0-6.8,0.4-10,1.2
			c-0.2,3.8-0.5,7.6-0.8,11.2l-1.7,22c0,0.6-0.4,1.1-1,1.3c-0.3,0.1-3.1,1-5.3-0.6c-1.3-1-2-2.5-2-4.7c0.1-2.3,0.3-4.5,0.5-6.7
			l0.4-5.7c0.2-2.1,0.3-4.1,0.4-6.2c-7.1,5.8-11.9,14.9-13.1,24.9c-0.3,2-1.6,5-6.3,5.6v3.4C24,73.4,37,74.5,50,74.4z M36,59.9
			L36,59.9L36,59.9z"/>
	</g>
</g>
</svg>
