<?xml version="1.0" encoding="utf-8"?>
<!-- Generator: Adobe Illustrator 28.0.0, SVG Export Plug-In . SVG Version: 6.00 Build 0)  -->
<svg version="1.1" id="Layer_1" xmlns="http://www.w3.org/2000/svg" xmlns:xlink="http://www.w3.org/1999/xlink" x="0px" y="0px"
	 viewBox="0 0 120 100" style="enable-background:new 0 0 120 100;" xml:space="preserve">
<style type="text/css">
	.st0{fill:none;}
	.st1{fill:#2693AE;}
	.st2{fill:#759E3F;}
	.st3{fill:#7F67A7;}
	.st4{fill:#F05A2D;}
	.st5{fill:#DD7D26;}
	.st6{fill:#FFFFFF;}
	.st7{fill:none;stroke:#FFFFFF;stroke-width:2.7995;stroke-linecap:round;stroke-linejoin:round;stroke-miterlimit:10;}
	.st8{fill:#808285;}
	.st9{clip-path:url(#SVGID_00000040537944104219483970000015595006159307557822_);fill:#F6EB15;}
	.st10{fill:#231F20;}
</style>
<g>
	<g>
		<g>
			<path d="M41.4,77h-6c-0.9,0-1.6-0.6-1.7-1.5l-1-6c0-0.2-0.2-0.4-0.4-0.5c-2.1-0.6-4.2-1.4-6.2-2.5c-0.2-0.1-0.5-0.1-0.6,0
				l-5.1,3.6c-0.7,0.4-1.6,0.3-2.1-0.2L14,65.7c-0.6-0.6-0.7-1.5-0.2-2.2l0-0.1l3.5-4.9c0.1-0.2,0.1-0.4,0-0.6
				c-1.2-2-2.1-4.1-2.6-6.3c-0.1-0.2-0.2-0.4-0.5-0.4l-6-1c-0.8-0.1-1.4-0.8-1.4-1.7v-6c0-0.9,0.6-1.6,1.5-1.7l5.9-1
				c0.2,0,0.4-0.2,0.5-0.4c0.6-2.3,1.4-4.4,2.6-6.3c0.1-0.2,0.1-0.4,0-0.6l-3.6-5c-0.5-0.7-0.4-1.6,0.2-2.2l4.2-4.2
				c0.6-0.6,1.6-0.7,2.2-0.2l4.9,3.5c0.2,0.1,0.4,0.1,0.6,0c2-1.2,4.1-2.1,6.3-2.6c0.2-0.1,0.4-0.2,0.4-0.5l1-6
				c0.1-0.8,0.8-1.4,1.7-1.4h6c0.9,0,1.6,0.6,1.7,1.5l1,5.9c0,0.2,0.2,0.4,0.4,0.5c2.3,0.6,4.5,1.5,6.5,2.7c0.2,0.1,0.4,0.1,0.6,0
				l5-3.6c0.7-0.4,1.6-0.3,2.1,0.2l4.2,4.2c0.6,0.6,0.7,1.5,0.2,2.2l0,0.1l-3.5,4.9c-0.1,0.2-0.1,0.4,0,0.6c1.2,1.9,2,4.1,2.6,6.3
				c0.1,0.2,0.2,0.4,0.4,0.4l6,1c0.8,0.1,1.4,0.8,1.4,1.7v7.3h-0.7c-0.2,0.2-0.5,0.3-0.8,0.4l-6,1c-0.2,0-0.4,0.2-0.5,0.4
				c-0.6,2.2-1.5,4.4-2.6,6.3c-0.1,0.2-0.1,0.4,0,0.6l3.5,5c0.5,0.7,0.4,1.6-0.2,2.2l-4.2,4.2c-0.2,0.2-0.6,0.5-1.2,0.5
				c-0.4,0-0.7-0.1-1-0.3l-4.9-3.5c-0.2-0.1-0.4-0.1-0.6,0c-1.9,1.2-4.1,2-6.3,2.6c-0.2,0.1-0.4,0.2-0.4,0.4l-1,6
				C43,76.4,42.2,77,41.4,77z M40.4,75.1C40.4,75.1,40.4,75.1,40.4,75.1L40.4,75.1z M36.3,75.1L36.3,75.1
				C36.3,75.1,36.3,75.1,36.3,75.1z M36.2,74.3h4.4l0.9-5.2c0.2-1.3,1.1-2.3,2.4-2.6c2-0.5,3.9-1.3,5.6-2.3c1.1-0.7,2.5-0.6,3.6,0.1
				l4.3,3l3.1-3.1l-3-4.3c-0.7-1.1-0.8-2.4-0.1-3.6c1-1.7,1.8-3.6,2.3-5.6c0.3-1.2,1.3-2.2,2.6-2.4l5.2-0.9l0-4.4l-5.2-0.9
				c-1.3-0.2-2.3-1.1-2.6-2.4c-0.5-2-1.3-3.9-2.3-5.6c-0.7-1.1-0.6-2.5,0.1-3.6l3-4.3l-3.1-3.1l-4.2,3c-1.1,0.7-2.5,0.8-3.6,0.2
				c-1.8-1.1-3.7-1.9-5.8-2.4c-1.3-0.3-2.2-1.3-2.4-2.6l-0.9-5.1h-4.4l-0.9,5.2c-0.2,1.2-1.1,2.3-2.4,2.6c-2,0.5-3.8,1.3-5.6,2.4
				c-1.1,0.7-2.5,0.6-3.6-0.1l-4.3-3l-3.1,3.1l3.1,4.3c0.7,1,0.8,2.4,0.2,3.5c-1,1.7-1.8,3.6-2.3,5.6c-0.3,1.3-1.3,2.2-2.6,2.4
				l-5.1,0.9v4.4l5.2,0.9c1.2,0.2,2.3,1.2,2.6,2.4c0.5,2,1.3,3.8,2.4,5.6c0.7,1.1,0.6,2.5-0.1,3.6l-3,4.3l3.1,3.1l4.3-3.1
				c0.9-0.7,2.4-0.8,3.5-0.2c1.8,1,3.6,1.8,5.5,2.3c1.2,0.3,2.2,1.3,2.4,2.6L36.2,74.3z M57.9,67.8L57.9,67.8
				C58,67.8,57.9,67.8,57.9,67.8z M8.7,47.5L8.7,47.5C8.7,47.5,8.7,47.5,8.7,47.5z M8.7,43.5L8.7,43.5C8.7,43.5,8.7,43.5,8.7,43.5z
				 M68.1,43.3C68.1,43.3,68.2,43.3,68.1,43.3L68.1,43.3z M18.7,23C18.7,23,18.7,23,18.7,23L18.7,23z M20,22.9L20,22.9
				C20,22.9,20,22.9,20,22.9z M40.3,15.6C40.3,15.6,40.3,15.7,40.3,15.6L40.3,15.6z M36.3,15.6L36.3,15.6
				C36.2,15.6,36.2,15.6,36.3,15.6z"/>
		</g>
		<g>
			<path d="M38.4,57.6c-6.7,0-12.2-5.5-12.2-12.2c0-6.7,5.5-12.2,12.2-12.2s12.2,5.5,12.2,12.2C50.6,52.1,45.1,57.6,38.4,57.6z
				 M38.4,35.8c-5.3,0-9.5,4.3-9.5,9.5c0,5.3,4.3,9.5,9.5,9.5c5.3,0,9.5-4.3,9.5-9.5C47.9,40.1,43.7,35.8,38.4,35.8z"/>
		</g>
		<g>
			<path d="M86.9,86.2c-0.1,0-0.2,0-0.3,0l-4.4-1c-0.6-0.1-1.1-0.7-1-1.3l0.2-4.5c0-0.2-0.1-0.3-0.2-0.4c-1.5-0.8-2.9-1.7-4.1-2.9
				c-0.1,0-0.1-0.1-0.2-0.1c-0.1,0-0.2,0-0.2,0l-4.3,1.8c-0.2,0.1-0.5,0.1-0.7,0c-0.3-0.1-0.6-0.3-0.8-0.6l-2.4-3.8
				c-0.3-0.5-0.3-1.2,0.2-1.6l0,0l3.4-3c0.1-0.1,0.2-0.3,0.1-0.5c-0.5-1.6-0.9-3.3-0.9-5c0-0.2-0.1-0.3-0.3-0.4l-4.2-1.7
				c-0.6-0.2-0.9-0.8-0.8-1.5l1-4.4c0.1-0.6,0.7-1.1,1.3-1l4.5,0.2c0.2,0,0.3-0.1,0.4-0.2c0.8-1.6,1.8-3,2.9-4.2
				c0.1-0.1,0.1-0.3,0.1-0.5l-1.8-4.2c-0.2-0.6,0-1.3,0.5-1.6l3.8-2.4c0.3-0.2,0.6-0.2,1-0.2c0.3,0.1,0.5,0.2,0.7,0.4l3,3.3
				c0.1,0.1,0.3,0.2,0.5,0.1c1.6-0.5,3.3-0.9,5-0.9c0.2,0,0.3-0.1,0.4-0.3l1.7-4.2c0.2-0.6,0.9-0.9,1.5-0.8l4.4,1
				c0.6,0.1,1.1,0.7,1,1.3l-0.2,4.5c0,0.2,0.1,0.3,0.2,0.4c1.6,0.8,3,1.8,4.3,3c0.1,0.1,0.3,0.2,0.5,0.1l4.2-1.8
				c0.2-0.1,0.5-0.1,0.7,0c0.3,0.1,0.6,0.3,0.8,0.6l2.4,3.8c0.3,0.5,0.3,1.2-0.2,1.6l0,0l-3.4,3c-0.1,0.1-0.2,0.3-0.1,0.5
				c0.5,1.6,0.8,3.3,0.9,5c0,0.2,0.1,0.3,0.3,0.4l4.2,1.7c0.6,0.2,0.9,0.9,0.8,1.5l-1.2,5.4l-0.5-0.1c-0.2,0.1-0.4,0.1-0.7,0.1
				l-4.5-0.2c-0.2,0-0.3,0.1-0.4,0.2c-0.8,1.5-1.8,3-2.9,4.2c-0.1,0.1-0.1,0.3-0.1,0.5l1.8,4.2c0.2,0.6,0,1.3-0.5,1.6l-3.8,2.4
				c-0.2,0.1-0.5,0.3-1,0.2c-0.3-0.1-0.5-0.2-0.7-0.4l-3-3.4c-0.1-0.1-0.3-0.2-0.5-0.1c-1.6,0.5-3.3,0.8-5,0.9
				c-0.2,0-0.3,0.1-0.4,0.3l-1.7,4.2C87.9,85.9,87.4,86.2,86.9,86.2z M86.2,84.7C86.2,84.7,86.2,84.7,86.2,84.7L86.2,84.7z M87,84.2
				L87,84.2C87,84.2,87,84.2,87,84.2z M83.2,83.4l3.2,0.7l1.5-3.6c0.3-0.9,1.2-1.5,2.2-1.5c1.5-0.1,3-0.3,4.5-0.8
				c0.9-0.3,1.9,0,2.6,0.7l2.6,2.9l2.8-1.8l-1.5-3.6c-0.4-0.9-0.2-1.9,0.5-2.6c1-1.1,1.9-2.4,2.6-3.7c0.4-0.9,1.3-1.4,2.3-1.3
				l3.9,0.2l0.1-0.4l0,0l0.6-2.8l-3.6-1.5c-0.9-0.3-1.5-1.2-1.5-2.2c-0.1-1.5-0.3-3-0.8-4.5c-0.3-0.9,0-1.9,0.7-2.6l2.9-2.6
				l-1.8-2.8l-3.6,1.5c-0.9,0.4-1.9,0.2-2.6-0.5c-1.1-1.1-2.4-2-3.8-2.7c-0.9-0.4-1.4-1.3-1.3-2.3l0.2-3.9L92.6,41l-1.5,3.7
				c-0.4,0.9-1.2,1.5-2.2,1.5c-1.5,0.1-3,0.3-4.5,0.8c-0.9,0.3-1.9,0-2.6-0.7l-2.6-2.9l-2.8,1.8l1.5,3.7c0.4,0.9,0.2,1.9-0.5,2.6
				c-1,1.1-1.9,2.4-2.6,3.8c-0.4,0.9-1.3,1.4-2.3,1.3l-3.9-0.2L68,59.6l3.7,1.5c0.9,0.4,1.5,1.2,1.5,2.2c0.1,1.5,0.3,3,0.8,4.5
				c0.3,0.9,0,1.9-0.7,2.6L70.4,73l1.8,2.8l3.7-1.5c0.4-0.2,1-0.2,1.5-0.1c0.4,0.1,0.8,0.3,1.1,0.6c1.1,1,2.4,1.9,3.7,2.5
				c0.9,0.4,1.4,1.3,1.3,2.3L83.2,83.4z M83.2,84L83.2,84C83.2,84,83.2,84,83.2,84z M82.6,83.3L82.6,83.3
				C82.6,83.3,82.6,83.3,82.6,83.3z M100.2,82.2L100.2,82.2C100.2,82.2,100.2,82.2,100.2,82.2z M72.5,76.2L72.5,76.2
				C72.5,76.2,72.5,76.2,72.5,76.2z M111.6,65.9C111.6,65.9,111.6,65.9,111.6,65.9L111.6,65.9z M111.2,65.1
				C111.2,65.1,111.2,65.1,111.2,65.1L111.2,65.1z M67.4,59.3L67.4,59.3C67.4,59.3,67.4,59.3,67.4,59.3z M68.1,56.4
				C68.1,56.4,68.1,56.4,68.1,56.4L68.1,56.4z M79.7,43.1L79.7,43.1C79.7,43.1,79.7,43.1,79.7,43.1z M78.8,43
				C78.8,43,78.8,43,78.8,43L78.8,43z M95.8,41.1C95.8,41.1,95.8,41.1,95.8,41.1L95.8,41.1z M92.8,40.4L92.8,40.4
				C92.8,40.5,92.8,40.5,92.8,40.4z"/>
		</g>
		<g>
			<path d="M89.6,71.7c-0.7,0-1.3-0.1-2-0.2l0,0c-2.4-0.5-4.4-2-5.7-4c-1.3-2.1-1.7-4.5-1.2-6.9c0.5-2.4,2-4.4,4-5.7
				c2.1-1.3,4.5-1.7,6.9-1.2c2.4,0.5,4.4,2,5.7,4c1.3,2.1,1.7,4.5,1.2,6.9c-0.5,2.4-2,4.4-4,5.7C93,71.3,91.3,71.7,89.6,71.7z
				 M89.5,55.4c-1.3,0-2.7,0.4-3.8,1.1c-1.6,1-2.7,2.6-3.1,4.5c-0.4,1.9-0.1,3.8,1,5.4c1,1.6,2.6,2.7,4.5,3.1l0,0
				c1.9,0.4,3.8,0.1,5.4-1c1.6-1,2.7-2.6,3.1-4.5c0.4-1.9,0.1-3.8-1-5.4c-1-1.6-2.6-2.7-4.5-3.1C90.6,55.5,90,55.4,89.5,55.4z"/>
		</g>
	</g>
</g>
</svg>
