<?xml version="1.0" encoding="utf-8"?>
<!-- Generator: Adobe Illustrator 28.0.0, SVG Export Plug-In . SVG Version: 6.00 Build 0)  -->
<svg version="1.1" id="Layer_1" xmlns="http://www.w3.org/2000/svg" xmlns:xlink="http://www.w3.org/1999/xlink" x="0px" y="0px"
	 viewBox="0 0 100 100" style="enable-background:new 0 0 100 100;" xml:space="preserve">
<style type="text/css">
	.st0{fill:none;}
	.st1{fill:#2693AE;}
	.st2{fill:#759E3F;}
	.st3{fill:#7F67A7;}
	.st4{fill:#F05A2D;}
	.st5{fill:#DD7D26;}
	.st6{fill:#FFFFFF;}
	.st7{fill:none;stroke:#FFFFFF;stroke-width:2.7995;stroke-linecap:round;stroke-linejoin:round;stroke-miterlimit:10;}
	.st8{fill:#808285;}
	.st9{clip-path:url(#SVGID_00000141428220176545232510000009505672111894477710_);fill:#F6EB15;}
	.st10{fill:#231F20;}
</style>
<g>
	<g>
		<g>
			<path d="M6.9,70.3c-0.8,0-1.4-0.6-1.4-1.4v-59c0-0.8,0.6-1.4,1.4-1.4h45.9c0.8,0,1.4,0.6,1.4,1.4s-0.6,1.4-1.4,1.4H8.2v57.7
				C8.2,69.7,7.6,70.3,6.9,70.3z"/>
		</g>
		<g>
			<path d="M12.3,75.7c-0.8,0-1.4-0.6-1.4-1.4v-59c0-0.8,0.6-1.4,1.4-1.4h45.9c0.8,0,1.4,0.6,1.4,1.4c0,0.8-0.6,1.4-1.4,1.4H13.7
				v57.7C13.7,75.1,13.1,75.7,12.3,75.7z"/>
		</g>
		<path d="M93.2,83.1c0,0-0.1-0.1-0.1-0.1L77,67c-0.1-0.1-0.2-0.1-0.3-0.2c-0.7-0.5-1.6-0.2-2.3,0.2l-4.6-4.5c2.6-3.5,4-7.7,4-12.1
			c0-5.5-2.1-10.6-6-14.4c-0.8-0.8-1.7-1.6-2.7-2.3V20.8c0-0.8-0.6-1.4-1.4-1.4H17.8c-0.8,0-1.4,0.6-1.4,1.4v59
			c0,0.8,0.6,1.4,1.4,1.4h45.9c0.8,0,1.4-0.6,1.4-1.4V67c0.1-0.1,0.2-0.1,0.3-0.2l4.6,4.6c-0.5,0.8-0.8,1.8,0,2.6c0,0,0,0,0,0
			l16.1,16c0.9,0.9,2.2,1.4,3.5,1.4c0,0,0,0,0,0c1.3,0,2.6-0.5,3.5-1.5c0,0,0,0,0,0C95,88.1,95,85.1,93.2,83.1z M71,50.3
			c0,4.7-1.8,9.2-5.2,12.5c-3.3,3.3-7.8,5.2-12.5,5.2c-4.7,0-9.2-1.8-12.5-5.2c-3.3-3.3-5.2-7.8-5.2-12.5s1.8-9.2,5.2-12.5
			c3.3-3.3,7.8-5.2,12.5-5.2c4.7,0,9.2,1.8,12.5,5.2C69.2,41.1,71,45.6,71,50.3z M62.3,78.5H19.2V22.2h43.2V32
			c-2.8-1.4-5.8-2.1-9-2.1c-5.5,0-10.6,2.1-14.4,6s-6,9-6,14.4c0,5.5,2.1,10.6,6,14.4c3.9,3.9,9,6,14.4,6c3.2,0,6.2-0.7,9-2.1V78.5z
			 M91.1,88.1c-0.4,0.4-1,0.7-1.6,0.7c-0.6,0-1.2-0.2-1.6-0.6L72.4,72.6c0.1-0.1,0.2-0.3,0.4-0.5c0.4-0.5,0.4-1.3-0.1-1.8l-5.1-5
			l0.6-0.6l5.1,5c0.5,0.5,1.3,0.5,1.8,0.1c0.2-0.2,0.4-0.3,0.5-0.4L91,84.8c0,0,0.1,0.1,0.1,0.1C92,85.8,92,87.2,91.1,88.1z"/>
	</g>
</g>
</svg>
