<?xml version="1.0" encoding="utf-8"?>
<!-- Generator: Adobe Illustrator 28.0.0, SVG Export Plug-In . SVG Version: 6.00 Build 0)  -->
<svg version="1.1" id="Layer_1" xmlns="http://www.w3.org/2000/svg" xmlns:xlink="http://www.w3.org/1999/xlink" x="0px" y="0px"
	 viewBox="0 0 180 100" style="enable-background:new 0 0 180 100;" xml:space="preserve">
<style type="text/css">
	.st0{fill:none;}
	.st1{fill:#2693AE;}
	.st2{fill:#759E3F;}
	.st3{fill:#7F67A7;}
	.st4{fill:#F05A2D;}
	.st5{fill:#DD7D26;}
	.st6{fill:#FFFFFF;}
	.st7{fill:none;stroke:#FFFFFF;stroke-width:2.7995;stroke-linecap:round;stroke-linejoin:round;stroke-miterlimit:10;}
	.st8{fill:#808285;}
	.st9{clip-path:url(#SVGID_00000130609707628378611970000014590402267720317838_);fill:#F6EB15;}
	.st10{fill:#231F20;}
</style>
<g>
	<g>
		<path class="st0" d="M42.2,85.6c0-0.8,0.7-1.5,1.5-1.5c0,0,0,0,0,0l12.8,0c0.8,0,1.5,0.7,1.5,1.5l0,2.9c0,0,0,0.1,0,0.1v0
			c0,0,0,0.1,0,0.1l0,0.1l30.1,0l0-3.3c0-0.8,0.7-1.5,1.5-1.5c0,0,0,0,0,0l2,0l0-26.9l-57.6-0.1c-0.8,0-1.4,0.3-2.4,1.1
			c-7.2,5.9-8.2,20.8-8.3,23.5l4.5,6.9l14.3,0L42.2,85.6z M61,62.1c0-1.3,1-2.3,2.2-2.3l21.4,0c1.4,0,2.5,1.2,2.5,2.6l0,11.9
			c0,0,0,0,0,0c0,0.7-0.2,1.3-0.7,1.8C86,76.7,85.3,77,84.6,77c0,0,0,0,0,0l-21.1,0c-1.4,0-2.5-1.2-2.5-2.6L61,62.1z M46.2,62.6
			c0-0.7,0.2-1.3,0.6-1.8c0.5-0.6,1.2-1,1.9-1c0,0,0,0,0,0l8.1,0c0.7,0,1.4,0.4,1.9,1c0.4,0.5,0.6,1.2,0.6,1.8l-0.1,17.7
			c0,0.8-0.7,1.5-1.5,1.5c0,0,0,0,0,0l-10.1,0c-0.4,0-0.8-0.2-1.1-0.4c-0.3-0.3-0.4-0.7-0.4-1.1L46.2,62.6z M27.6,74.5
			c0-0.1,0-0.1,0-0.2c-0.3-8.6,6-13.7,6.3-13.9c0.8-0.6,1.2-0.7,1.9-0.7l6.2,0c1.4,0,2.5,1.2,2.5,2.6l0,11.9c0,0,0,0,0,0
			c0,1.4-1.1,2.6-2.5,2.6l-11.9,0C28.6,76.9,27.7,75.4,27.6,74.5z"/>
		<path class="st0" d="M55,88.7l0-0.1c0-0.7-0.6-1.2-1.3-1.2h0c-0.7,0-1.3,0.6-1.3,1.3c0,0.3,0.1,0.7,0.4,0.9
			c0.3,0.2,0.6,0.4,0.9,0.4c0,0,0,0,0,0C54.4,89.9,55,89.4,55,88.7z"/>
		<path class="st0" d="M35.7,62.9c0,0-5.2,4.2-5.1,11l10.9,0l0-11.1L35.7,62.9C35.8,62.8,35.7,62.8,35.7,62.9z"/>
		<path class="st0" d="M99.5,87.4L99.5,87.4c-0.7,0-1.3,0.6-1.3,1.3c0,0.3,0.1,0.7,0.4,0.9c0.3,0.2,0.6,0.4,0.9,0.4h0
			c0.7,0,1.3-0.6,1.3-1.3C100.8,88,100.2,87.4,99.5,87.4z"/>
		<path class="st0" d="M92.5,87.4C92.5,87.4,92.5,87.4,92.5,87.4c-0.7,0-1.3,0.6-1.3,1.3c0,0.3,0.1,0.7,0.4,0.9
			c0.3,0.2,0.6,0.4,0.9,0.4c0,0,0,0,0,0c0.7,0,1.3-0.6,1.3-1.3C93.8,88,93.2,87.4,92.5,87.4z"/>
		
			<rect x="44.7" y="67.3" transform="matrix(1.795329e-03 -1 1 1.795329e-03 -18.181 123.3977)" class="st0" width="16" height="7.1"/>
		
			<rect x="82.6" y="69.3" transform="matrix(1.013353e-03 -1 1 1.013353e-03 25.2522 166.6816)" class="st0" width="26.9" height="2.8"/>
		
			<rect x="68.5" y="58.3" transform="matrix(1.019516e-03 -1 1 1.019516e-03 5.6164 142.3961)" class="st0" width="11.1" height="20.1"/>
		<path class="st0" d="M138.8,87.4C138.8,87.4,138.8,87.4,138.8,87.4c-0.7,0-1.3,0.6-1.3,1.3c0,0.3,0.1,0.7,0.4,0.9
			c0.3,0.2,0.6,0.4,0.9,0.4h0c0.7,0,1.3-0.6,1.3-1.3c0-0.3-0.1-0.7-0.4-0.9C139.4,87.6,139.1,87.4,138.8,87.4z"/>
		<path class="st0" d="M46.7,87.3C46.7,87.3,46.7,87.3,46.7,87.3c-0.4,0-0.7,0.1-0.9,0.4c-0.2,0.2-0.4,0.6-0.4,0.9
			c0,0.3,0.1,0.6,0.3,0.8c0,0,0,0,0,0.1c0,0,0,0,0,0c0.3,0.2,0.6,0.4,0.9,0.4c0,0,0,0,0,0c0.7,0,1.3-0.6,1.3-1.3
			c0-0.3-0.1-0.7-0.4-0.9C47.4,87.5,47.1,87.3,46.7,87.3z"/>
		<path class="st0" d="M156.7,62.8C156.7,62.8,156.6,62.8,156.7,62.8l-0.2,0l-5.6,0l0,11.1l10.9,0C161.9,67,156.7,62.9,156.7,62.8z"
			/>
		<path class="st0" d="M147,88.6c0-0.3-0.1-0.6-0.4-0.8c-0.3-0.2-0.6-0.4-0.9-0.4h0c-0.7,0-1.3,0.6-1.3,1.3c0,0.3,0.1,0.7,0.4,0.9
			c0.3,0.2,0.6,0.4,0.9,0.4h0c0.4,0,0.9-0.2,1.1-0.6l0,0c0.1-0.2,0.2-0.3,0.2-0.5L147,88.6z"/>
		<path class="st0" d="M160.6,58.5c-1-0.8-1.6-1.1-2.5-1.2l-57.7-0.1l0,26.9l2,0c0.4,0,0.8,0.2,1.1,0.4s0.4,0.7,0.4,1.1l0,3.3
			l30.3,0l0-3.3c0-0.8,0.7-1.5,1.5-1.5c0,0,0,0,0,0l12.8,0c0.4,0,0.8,0.2,1.1,0.4c0.3,0.3,0.4,0.7,0.4,1.1l0,2.8c0,0.1,0,0.2,0,0.3
			c0,0.1,0,0.1,0,0.2l14.3,0l4.5-6.9C168.7,79.3,167.8,64.4,160.6,58.5z M128.9,76.9l-21.1,0c0,0,0,0,0,0c-0.7,0-1.3-0.3-1.8-0.8
			c-0.4-0.5-0.7-1.1-0.7-1.8c0,0,0,0,0,0l0-11.9c0-1.4,1.1-2.6,2.5-2.6l21.4,0c1.2,0,2.2,1,2.2,2.3l0,12.2
			C131.4,75.8,130.3,76.9,128.9,76.9z M145.8,81.3c-0.3,0.3-0.7,0.4-1.1,0.4l-10.1,0c0,0,0,0,0,0c-0.8,0-1.5-0.7-1.5-1.5l-0.1-17.7
			c0-0.7,0.2-1.3,0.6-1.8c0.5-0.6,1.2-1,1.9-1l8.1,0c0,0,0,0,0,0c0.7,0,1.4,0.4,1.9,1c0.4,0.5,0.6,1.2,0.6,1.8l0,17.7
			C146.3,80.7,146.1,81.1,145.8,81.3z M164.8,74.5c-0.1,0.8-1,2.4-2.5,2.4l-11.9,0c-1.4,0-2.5-1.2-2.5-2.6c0,0,0,0,0,0l0-11.9
			c0-0.7,0.3-1.4,0.8-1.9c0.5-0.5,1.1-0.7,1.7-0.7l6.1,0c0.8,0,1.2,0.1,2,0.7c0.3,0.2,6.6,5.3,6.3,13.9
			C164.8,74.4,164.8,74.5,164.8,74.5z"/>
		
			<rect x="108.3" y="62.8" transform="matrix(1 -1.143258e-03 1.143258e-03 1 -7.810663e-02 0.1353)" class="st0" width="20.1" height="11.1"/>
		
			<rect x="136.2" y="62.8" transform="matrix(1 -2.444383e-03 2.444383e-03 1 -0.1727 0.3417)" class="st0" width="7.1" height="16"/>
		<path d="M162.5,56.2c-1.3-1.1-2.5-1.7-4.3-1.8L34,54.2c-1.8,0.1-3,0.8-4.2,1.8c-9,7.4-9.4,25.5-9.4,26.3c0,0.3,0.1,0.6,0.2,0.8
			l5.2,8c0.3,0.4,0.7,0.7,1.3,0.7l16.8,0c0.8,0.7,1.8,1.1,2.9,1.1c0,0,0,0,0,0c1.4,0,2.7-0.7,3.5-1.8c0.1,0.2,0.3,0.4,0.4,0.5
			c0.8,0.8,1.9,1.3,3.1,1.3c0,0,0,0,0,0c1.1,0,2.1-0.4,2.9-1.1l33.1,0c0.8,0.7,1.8,1.1,2.9,1.1c0,0,0,0,0,0c1.4,0,2.7-0.7,3.5-1.8
			c0.1,0.2,0.3,0.4,0.4,0.5c0.8,0.8,1.9,1.3,3.1,1.3c0,0,0,0,0,0c1.1,0,2.1-0.4,2.9-1.1l33.5,0c0.8,0.7,1.8,1.1,2.9,1.1c0,0,0,0,0,0
			c1.4,0,2.7-0.7,3.5-1.8c0.1,0.2,0.3,0.4,0.4,0.5c0.8,0.8,1.9,1.3,3.1,1.3c0,0,0,0,0,0c1.1,0,2.1-0.4,2.9-1.1l16.5,0c0,0,0,0,0,0
			c0.5,0,1-0.3,1.3-0.7l5.2-8c0.2-0.2,0.2-0.5,0.2-0.8C171.8,81.7,171.5,63.6,162.5,56.2z M94.6,84.1l0-26.9l2.8,0l0,26.9L94.6,84.1
			z M23.4,81.9c0.1-2.8,1-17.6,8.3-23.5c1-0.8,1.6-1.1,2.4-1.1l57.6,0.1l0,26.9l-2,0c0,0,0,0,0,0c-0.8,0-1.5,0.7-1.5,1.5l0,3.3
			l-30.1,0l0-0.1c0,0,0-0.1,0-0.1v0c0,0,0-0.1,0-0.1l0-2.9c0-0.8-0.7-1.5-1.5-1.5l-12.8,0c0,0,0,0,0,0c-0.8,0-1.5,0.7-1.5,1.5l0,3.3
			l-14.3,0L23.4,81.9z M46.7,89.9C46.7,89.9,46.7,89.9,46.7,89.9c-0.4,0-0.7-0.1-0.9-0.4c0,0,0,0,0,0c0,0,0,0,0-0.1
			c-0.2-0.2-0.3-0.5-0.3-0.8c0-0.3,0.1-0.7,0.4-0.9c0.3-0.2,0.6-0.4,0.9-0.4c0,0,0,0,0,0c0.4,0,0.7,0.1,0.9,0.4
			c0.2,0.2,0.4,0.6,0.4,0.9C48.1,89.4,47.5,89.9,46.7,89.9z M53.7,89.9C53.7,89.9,53.7,89.9,53.7,89.9c-0.4,0-0.7-0.1-0.9-0.4
			c-0.2-0.2-0.4-0.6-0.4-0.9c0-0.7,0.6-1.3,1.3-1.3h0c0.7,0,1.3,0.6,1.3,1.2l0,0.1C55,89.4,54.4,89.9,53.7,89.9z M92.5,90
			C92.5,90,92.5,90,92.5,90c-0.4,0-0.7-0.1-0.9-0.4c-0.2-0.2-0.4-0.6-0.4-0.9c0-0.7,0.6-1.3,1.3-1.3c0,0,0,0,0,0
			c0.7,0,1.3,0.6,1.3,1.3C93.8,89.4,93.2,90,92.5,90z M99.5,90L99.5,90c-0.4,0-0.7-0.1-0.9-0.4c-0.2-0.2-0.4-0.6-0.4-0.9
			c0-0.7,0.6-1.3,1.3-1.3h0c0.7,0,1.3,0.6,1.3,1.3C100.8,89.4,100.2,90,99.5,90z M138.8,90L138.8,90c-0.4,0-0.7-0.1-0.9-0.4
			c-0.2-0.2-0.4-0.6-0.4-0.9c0-0.7,0.6-1.3,1.3-1.3c0,0,0,0,0,0c0.4,0,0.7,0.1,0.9,0.4c0.2,0.2,0.4,0.6,0.4,0.9
			C140.1,89.5,139.5,90,138.8,90z M146.8,89.5c-0.2,0.4-0.7,0.6-1.1,0.6h0c-0.4,0-0.7-0.1-0.9-0.4c-0.2-0.2-0.4-0.6-0.4-0.9
			c0-0.7,0.6-1.3,1.3-1.3h0c0.4,0,0.7,0.1,0.9,0.4c0.2,0.2,0.3,0.5,0.4,0.8l0,0.3C147,89.1,146.9,89.3,146.8,89.5L146.8,89.5z
			 M164.3,89L150,89c0-0.1,0-0.1,0-0.2c0-0.1,0-0.2,0-0.3l0-2.8c0-0.4-0.2-0.8-0.4-1.1c-0.3-0.3-0.7-0.4-1.1-0.4l-12.8,0
			c0,0,0,0,0,0c-0.8,0-1.5,0.7-1.5,1.5l0,3.3l-30.3,0l0-3.3c0-0.4-0.2-0.8-0.4-1.1s-0.7-0.4-1.1-0.4l-2,0l0-26.9l57.7,0.1
			c0.9,0,1.4,0.3,2.5,1.2c7.2,5.9,8.1,20.8,8.2,23.6L164.3,89z"/>
		<path d="M44.4,74.3C44.4,74.3,44.4,74.3,44.4,74.3l0-11.9c0-1.4-1.1-2.6-2.5-2.6l-6.2,0c-0.7,0-1.1,0.1-1.9,0.7
			c-0.3,0.2-6.6,5.3-6.3,13.9c0,0.1,0,0.1,0,0.2c0.1,0.8,1,2.4,2.5,2.4l11.9,0C43.3,76.9,44.4,75.7,44.4,74.3z M41.4,73.9l-10.9,0
			c-0.1-6.8,5.1-11,5.1-11c0,0,0.1,0,0.1-0.1l5.7,0L41.4,73.9z"/>
		<path d="M63.5,76.9l21.1,0c0,0,0,0,0,0c0.7,0,1.3-0.3,1.8-0.8c0.4-0.5,0.7-1.1,0.7-1.8c0,0,0,0,0,0l0-11.9c0-1.4-1.1-2.6-2.5-2.6
			l-21.4,0c-1.2,0-2.2,1-2.2,2.3l0,12.2C61,75.8,62.1,76.9,63.5,76.9z M64,62.8l20.1,0l0,11.1l-20.1,0L64,62.8z"/>
		<path d="M47.6,81.8l10.1,0c0,0,0,0,0,0c0.8,0,1.5-0.7,1.5-1.5l0.1-17.7c0-0.7-0.2-1.3-0.6-1.8c-0.5-0.6-1.2-1-1.9-1l-8.1,0
			c0,0,0,0,0,0c-0.7,0-1.4,0.4-1.9,1c-0.4,0.5-0.6,1.2-0.6,1.8l0,17.7c0,0.4,0.2,0.8,0.4,1.1C46.9,81.6,47.2,81.8,47.6,81.8z
			 M49.2,62.8l7.1,0l0,16l-7.1,0L49.2,62.8z"/>
		<path d="M158.5,60.5c-0.8-0.6-1.2-0.7-2-0.7l-6.1,0c-0.6,0-1.3,0.3-1.7,0.7c-0.5,0.5-0.8,1.2-0.8,1.9l0,11.9c0,0,0,0,0,0
			c0,1.4,1.1,2.6,2.5,2.6l11.9,0c1.5,0,2.4-1.5,2.5-2.4c0-0.1,0-0.1,0-0.2C165.2,65.7,158.8,60.7,158.5,60.5z M151,73.9l0-11.1
			l5.6,0l0.1,0c0,0,0,0,0.1,0c0.1,0,5.2,4.2,5.1,11.1L151,73.9z"/>
		<path d="M129.2,59.8l-21.4,0c-1.4,0-2.5,1.2-2.5,2.6l0,11.9c0,0,0,0,0,0c0,0.7,0.2,1.3,0.7,1.8c0.5,0.5,1.1,0.8,1.8,0.8
			c0,0,0,0,0,0l21.1,0c1.4,0,2.5-1.2,2.5-2.6l0-12.2C131.4,60.9,130.4,59.8,129.2,59.8z M108.3,73.9l0-11.1l20.1,0l0,11.1
			L108.3,73.9z"/>
		<path d="M145.6,60.8c-0.5-0.6-1.2-1-1.9-1c0,0,0,0,0,0l-8.1,0c-0.7,0-1.4,0.4-1.9,1c-0.4,0.5-0.6,1.2-0.6,1.8l0.1,17.7
			c0,0.8,0.7,1.5,1.5,1.5c0,0,0,0,0,0l10.1,0c0.4,0,0.8-0.2,1.1-0.4c0.3-0.3,0.4-0.7,0.4-1.1l0-17.7C146.2,61.9,146,61.3,145.6,60.8
			z M136.2,78.8l0-16l7.1,0l0,16L136.2,78.8z"/>
	</g>
	<g>
		<path class="st0" d="M25.5,35.5c-2.7,0-4.9,2.2-4.9,4.9s2.2,4.9,4.9,4.9s4.9-2.2,4.9-4.9S28.2,35.5,25.5,35.5z"/>
		<polygon class="st0" points="8.6,35.7 8.4,35.9 8.6,35.7 		"/>
		<polygon class="st0" points="50,15.8 43.9,15.8 44,40.3 50,40.3 		"/>
		<polygon class="st0" points="95.2,28 98.5,29.5 96.3,14.6 95.2,15.3 		"/>
		<path class="st0" d="M72.9,35.5c-2.7,0-4.9,2.2-4.9,4.9s2.2,4.9,4.9,4.9s4.9-2.2,4.9-4.9S75.6,35.5,72.9,35.5z"/>
		<polygon class="st0" points="87.2,15.8 81.1,15.8 81.1,40.3 87.2,40.3 		"/>
		<rect x="58.7" y="15.8" class="st0" width="14" height="10.9"/>
		<path class="st0" d="M10.8,10c-1.1,0-1.4,0.4-1.4,0.8l0,24.3l6.3,5.3h1.8c0.1-4.3,3.6-7.8,7.9-7.8s7.9,3.5,7.9,7.8H41l0-24.7
			c0-1.6,1.1-2.8,2.4-2.8l7.2,0c0,0,0,0,0,0c0.6,0,1.1,0.2,1.6,0.7c0.5,0.5,0.8,1.3,0.8,2.1l0,24.7H65c0.1-4.3,3.6-7.8,7.9-7.8
			c2,0,3.8,0.7,5.2,2l0-18.8c0-1.6,1.1-2.8,2.4-2.8l7.2,0c0,0,0,0,0,0c0.6,0,1.1,0.2,1.6,0.7c0.5,0.5,0.8,1.3,0.8,2.1l0,24.7h10.5
			c0-0.4,0.1-0.9,0.1-1.4c-0.4,0-0.6-0.1-0.6-0.1l-1.4-0.1V33L93,30.3c-0.5-0.2-0.9-0.8-0.9-1.4V14.5c0-0.5,0.3-1,0.7-1.3l2.8-1.8
			c-0.3-0.6-0.8-1.5-1.8-1.5H10.8 M38.7,28.1c0,1.4-1.1,2.6-2.5,2.6h-4.9c-0.3,0-0.6-0.1-0.8-0.3l-4.7-3.2l-10.2-0.1
			c-1.4,0-2.5-1.2-2.5-2.6v-9.1c0-1.4,1.1-2.6,2.5-2.6h21c1.2,0,2.2,1,2.2,2.3V28.1z M75.6,27.2c0,1.4-1.1,2.6-2.5,2.6h-15
			c-1.4,0-2.5-1.2-2.5-2.6V15.4c0-1.4,1.1-2.6,2.5-2.6h15.3c1.2,0,2.2,1,2.2,2.3V27.2z"/>
		<path class="st0" d="M16,24.1l10.2,0.1c0.3,0,0.6,0.1,0.8,0.3l4.7,3.2h3.9V15.8H16V24.1z"/>
		<path d="M73.4,12.8H58.1c-1.4,0-2.5,1.2-2.5,2.6v11.8c0,1.4,1.1,2.6,2.5,2.6h15c1.4,0,2.5-1.2,2.5-2.6V15.1
			C75.6,13.8,74.7,12.8,73.4,12.8z M72.6,26.8h-14V15.8h14V26.8z"/>
		<path d="M36.4,12.8h-21c-1.4,0-2.5,1.2-2.5,2.6v9.1c0,1.4,1.1,2.6,2.5,2.6l10.2,0.1l4.7,3.2c0.2,0.2,0.5,0.3,0.8,0.3h4.9
			c1.4,0,2.5-1.2,2.5-2.6v-13C38.7,13.8,37.7,12.8,36.4,12.8z M35.7,27.6h-3.9L27,24.4c-0.2-0.2-0.5-0.3-0.8-0.3L16,24.1v-8.3h19.7
			V27.6z"/>
		<path d="M101.8,36v-3.8c0-0.1,0-0.2,0-0.3v-0.7l-3-19.6l0-0.1C98.4,9.8,96.9,7,93.9,7h-83v0c-3.2-0.1-4.4,2.2-4.4,3.7v25.8
			l0.9,0.8l0,0l7.3,6.1h3.5c1.2,3,4,5,7.4,5s6.2-2.1,7.4-5h32.6c1.2,3,4,5,7.4,5s6.2-2.1,7.4-5h20.5c0.2,0,0.3,0,0.5,0
			c0.7,0,1.4-0.3,1.9-0.9c0.2-0.3,0.6-0.8,0.7-4C103.8,37.3,103.1,36.1,101.8,36z M96.3,14.6l2.3,14.9L95.2,28V15.3L96.3,14.6z
			 M8.6,35.7L8.6,35.7l-0.2,0.2L8.6,35.7z M25.5,45.3c-2.7,0-4.9-2.2-4.9-4.9s2.2-4.9,4.9-4.9s4.9,2.2,4.9,4.9S28.2,45.3,25.5,45.3z
			 M43.9,15.8l6.1,0l0,24.5H44L43.9,15.8z M72.9,45.3c-2.7,0-4.9-2.2-4.9-4.9s2.2-4.9,4.9-4.9s4.9,2.2,4.9,4.9S75.6,45.3,72.9,45.3z
			 M81.1,15.8l6.1,0l0,24.5h-6.1L81.1,15.8z M10.9,10h83c0.9,0,1.5,0.9,1.8,1.5l-2.8,1.8c-0.4,0.3-0.7,0.8-0.7,1.3v14.4
			c0,0.6,0.3,1.1,0.9,1.4l5.8,2.7v5.8l1.4,0.1c0,0,0.3,0,0.6,0.1c0,0.5-0.1,1-0.1,1.4H90.2l0-24.7c0-0.8-0.3-1.6-0.8-2.1
			c-0.4-0.4-1-0.7-1.6-0.7c0,0,0,0,0,0l-7.2,0c-1.4,0-2.4,1.2-2.4,2.8l0,18.8c-1.4-1.2-3.2-2-5.2-2c-4.3,0-7.9,3.5-7.9,7.8H53
			l0-24.7c0-0.8-0.3-1.6-0.8-2.1c-0.4-0.4-1-0.7-1.6-0.7c0,0,0,0,0,0l-7.2,0c-1.4,0-2.4,1.2-2.4,2.8l0,24.7h-7.6
			c-0.1-4.3-3.6-7.8-7.9-7.8s-7.9,3.5-7.9,7.8h-1.8L9.4,35l0-24.3C9.5,10.4,9.8,9.9,10.9,10"/>
	</g>
</g>
</svg>
