<?xml version="1.0" encoding="utf-8"?>
<!-- Generator: Adobe Illustrator 28.0.0, SVG Export Plug-In . SVG Version: 6.00 Build 0)  -->
<svg version="1.1" xmlns="http://www.w3.org/2000/svg" xmlns:xlink="http://www.w3.org/1999/xlink" x="0px" y="0px"
	 viewBox="0 0 100 100" style="enable-background:new 0 0 100 100;" xml:space="preserve">
<style type="text/css">
	.st0{fill:none;stroke:#000000;stroke-width:3;stroke-linecap:round;stroke-linejoin:round;stroke-miterlimit:10;}
	.st1{fill:none;stroke:#000000;stroke-width:2.92;stroke-linecap:round;stroke-linejoin:round;stroke-miterlimit:10;}
	
		.st2{clip-path:url(#SVGID_00000173132656895893288170000008187709097626755237_);fill:none;stroke:#000000;stroke-width:3;stroke-linecap:round;stroke-miterlimit:10;}
	.st3{fill:none;stroke:#000000;stroke-width:3;stroke-miterlimit:10;}
</style>
<g id="Layer_1">
</g>
<g id="Layer_2">
	<line class="st0" x1="32" y1="59" x2="59" y2="59"/>
	<line class="st0" x1="5" y1="59" x2="24.8" y2="59"/>
	<g>
		<line class="st0" x1="9.5" y1="27.5" x2="9.5" y2="54.5"/>
		<line class="st0" x1="45.5" y1="36.5" x2="45.5" y2="54.5"/>
		<line class="st0" x1="54.5" y1="45.5" x2="54.5" y2="54.5"/>
		<line class="st0" x1="18.5" y1="18.5" x2="18.5" y2="54.5"/>
		<line class="st0" x1="27.5" y1="9.5" x2="27.5" y2="34.7"/>
		<line class="st0" x1="36.5" y1="34.5" x2="36.5" y2="54.5"/>
		<line class="st0" x1="36.5" y1="14" x2="36.5" y2="26.4"/>
	</g>
	<g>
		<path class="st0" d="M66.7,69.7l3.8,3.8c-0.8,1-1.2,1.8-0.9,2.1c0,0,0,0,0,0l0,0L88,93.8c1.6,1.6,4.2,1.6,5.8,0
			c1.6-1.6,1.6-4.2,0-5.8l0,0L75.4,69.6l0,0c0,0,0,0,0,0c-0.2-0.2-1,0.2-2,0.9l-3.8-3.8"/>
		<path class="st0" d="M68.2,30.8c-10.3-10.3-27.1-10.3-37.5,0c-10.3,10.3-10.3,27.1,0,37.5c10.3,10.3,27.1,10.3,37.5,0
			C78.6,57.9,78.6,41.1,68.2,30.8z M63.5,63.5c-7.8,7.8-20.3,7.8-28.1,0c-7.8-7.8-7.8-20.3,0-28.1c7.8-7.8,20.3-7.8,28.1,0
			C71.3,43.2,71.3,55.8,63.5,63.5z"/>
	</g>
</g>
<g id="Layer_3">
</g>
<g id="Layer_4">
</g>
</svg>
