<?xml version="1.0" encoding="utf-8"?>
<!-- Generator: Adobe Illustrator 28.0.0, SVG Export Plug-In . SVG Version: 6.00 Build 0)  -->
<svg version="1.1" id="Layer_1" xmlns="http://www.w3.org/2000/svg" xmlns:xlink="http://www.w3.org/1999/xlink" x="0px" y="0px"
	 viewBox="0 0 100 100" style="enable-background:new 0 0 100 100;" xml:space="preserve">
<style type="text/css">
	.st0{fill:none;}
	.st1{fill:#2693AE;}
	.st2{fill:#759E3F;}
	.st3{fill:#7F67A7;}
	.st4{fill:#F05A2D;}
	.st5{fill:#DD7D26;}
	.st6{fill:#FFFFFF;}
	.st7{fill:none;stroke:#FFFFFF;stroke-width:2.7995;stroke-linecap:round;stroke-linejoin:round;stroke-miterlimit:10;}
	.st8{fill:#808285;}
	.st9{clip-path:url(#SVGID_00000003794025270072198300000016612300033766398385_);fill:#F6EB15;}
	.st10{fill:#231F20;}
</style>
<g>
	<g>
		<g>
			<path d="M80.3,92.2H19.7c-1.8,0-3.3-1.5-3.3-3.3V11.1c0-1.8,1.5-3.3,3.3-3.3h60.5c1.8,0,3.3,1.5,3.3,3.3v77.8
				C83.6,90.7,82.1,92.2,80.3,92.2z M19.7,10.8c-0.2,0-0.3,0.1-0.3,0.3v77.8c0,0.2,0.1,0.3,0.3,0.3h60.5c0.2,0,0.3-0.1,0.3-0.3V11.1
				c0-0.2-0.1-0.3-0.3-0.3H19.7z"/>
		</g>
	</g>
	<g>
		<path d="M35.1,38.4c-0.4,0-0.7-0.1-1-0.4l-5.1-5.1c-0.5-0.5-0.5-1.4,0-1.9c0.5-0.5,1.4-0.5,1.9,0l4.1,4.1l7.7-7.7
			c0.5-0.5,1.4-0.5,1.9,0c0.5,0.5,0.5,1.4,0,1.9L36.1,38C35.8,38.3,35.5,38.4,35.1,38.4z"/>
	</g>
	<g>
		<path d="M35.1,56.2c-0.3,0-0.7-0.1-1-0.4l-5.1-5.1c-0.5-0.5-0.5-1.4,0-1.9c0.5-0.5,1.4-0.5,1.9,0l4.1,4.1l7.7-7.7
			c0.5-0.5,1.4-0.5,1.9,0c0.5,0.5,0.5,1.4,0,1.9l-8.6,8.6C35.8,56,35.5,56.2,35.1,56.2z"/>
	</g>
	<g>
		<path d="M35.1,73.9c-0.4,0-0.7-0.1-1-0.4l-5.1-5.1c-0.5-0.5-0.5-1.4,0-1.9c0.5-0.5,1.4-0.5,1.9,0l4.1,4.1l7.7-7.7
			c0.5-0.5,1.4-0.5,1.9,0c0.5,0.5,0.5,1.4,0,1.9l-8.6,8.6C35.8,73.8,35.5,73.9,35.1,73.9z"/>
	</g>
	<g>
		<path d="M71,34.1H51.8c-0.8,0-1.4-0.6-1.4-1.4c0-0.8,0.6-1.4,1.4-1.4H71c0.8,0,1.4,0.6,1.4,1.4C72.3,33.5,71.7,34.1,71,34.1z"/>
	</g>
	<g>
		<path d="M71,51.9H51.8c-0.8,0-1.4-0.6-1.4-1.4s0.6-1.4,1.4-1.4H71c0.8,0,1.4,0.6,1.4,1.4S71.7,51.9,71,51.9z"/>
	</g>
	<g>
		<path d="M71,69.6H51.8c-0.8,0-1.4-0.6-1.4-1.4s0.6-1.4,1.4-1.4H71c0.8,0,1.4,0.6,1.4,1.4S71.7,69.6,71,69.6z"/>
	</g>
</g>
</svg>
