<?xml version="1.0" encoding="utf-8"?>
<!-- Generator: Adobe Illustrator 28.0.0, SVG Export Plug-In . SVG Version: 6.00 Build 0)  -->
<svg version="1.1" xmlns="http://www.w3.org/2000/svg" xmlns:xlink="http://www.w3.org/1999/xlink" x="0px" y="0px"
	 viewBox="0 0 100 100" style="enable-background:new 0 0 100 100;" xml:space="preserve">
<style type="text/css">
	.st0{fill:none;stroke:#000000;stroke-width:3;stroke-linecap:round;stroke-linejoin:round;stroke-miterlimit:10;}
	.st1{fill:none;stroke:#000000;stroke-width:2.92;stroke-linecap:round;stroke-linejoin:round;stroke-miterlimit:10;}
	
		.st2{clip-path:url(#SVGID_00000111164083681802638480000012930903909530804359_);fill:none;stroke:#000000;stroke-width:3;stroke-linecap:round;stroke-miterlimit:10;}
	.st3{fill:none;stroke:#000000;stroke-width:3;stroke-miterlimit:10;}
</style>
<g id="Layer_1">
</g>
<g id="Layer_2">
</g>
<g id="Layer_3">
</g>
<g id="Layer_4">
	<polyline class="st1" points="56.6,14 77,14 77,95 23,95 23,14 34.5,14 	"/>
	<circle cx="50" cy="89.6" r="2.2"/>
	<g>
		<defs>
			<rect id="SVGID_1_" x="29.8" y="20.9" width="40.5" height="63"/>
		</defs>
		<clipPath id="SVGID_00000044863751251886831230000014847733776976262837_">
			<use xlink:href="#SVGID_1_"  style="overflow:visible;"/>
		</clipPath>
		
			<line style="clip-path:url(#SVGID_00000044863751251886831230000014847733776976262837_);fill:none;stroke:#000000;stroke-width:3;stroke-linecap:round;stroke-miterlimit:10;" x1="23" y1="27.5" x2="68" y2="95"/>
		
			<line style="clip-path:url(#SVGID_00000044863751251886831230000014847733776976262837_);fill:none;stroke:#000000;stroke-width:3;stroke-linecap:round;stroke-miterlimit:10;" x1="23" y1="68" x2="77" y2="14"/>
		
			<line style="clip-path:url(#SVGID_00000044863751251886831230000014847733776976262837_);fill:none;stroke:#000000;stroke-width:3;stroke-linecap:round;stroke-miterlimit:10;" x1="23" y1="95" x2="77" y2="41"/>
	</g>
	<polyline class="st0" points="55.7,20.9 70.2,20.9 70.2,83.9 29.8,83.9 29.8,20.9 35.3,20.9 	"/>
	<g>
		<path class="st3" d="M34.2,16.2c0,1.9,0.5,3.7,1.4,5.4l9.7,16.7c0.1,0.2,0.3,0.2,0.4,0l9.7-16.7c0.9-1.7,1.4-3.5,1.4-5.4
			c0-0.4,0-0.9-0.1-1.3C56,9.3,51.2,5,45.5,5C39.8,5,35,9.3,34.3,14.9C34.3,15.4,34.2,15.8,34.2,16.2z"/>
		<g>
			<path class="st3" d="M45.5,21.7c-3,0-5.4-2.4-5.4-5.4c0-3,2.4-5.4,5.4-5.4c3,0,5.4,2.4,5.4,5.4C50.9,19.2,48.5,21.7,45.5,21.7z"
				/>
		</g>
	</g>
</g>
</svg>
