<?xml version="1.0" encoding="utf-8"?>
<!-- Generator: Adobe Illustrator 28.0.0, SVG Export Plug-In . SVG Version: 6.00 Build 0)  -->
<svg version="1.1" id="Layer_1" xmlns="http://www.w3.org/2000/svg" xmlns:xlink="http://www.w3.org/1999/xlink" x="0px" y="0px"
	 viewBox="0 0 417.6 417.6" style="enable-background:new 0 0 417.6 417.6;" xml:space="preserve">
<g id="Layer_2_00000142854960937872660910000012047602351787881858_">
	<g id="Layer_1-2_00000079485304531862656120000012956807524957710494_">
		<path d="M335.4,173.6c-0.1-1.1-0.7-2.1-1.5-2.8c-2-2-8.7-3-19.6-2.9l-5.9-11v-0.1l-7.9-14.9c-0.1-0.2-0.2-0.4-0.4-0.6
			c-10.4-15.8-21.7-25.6-91.3-25.7s-80.9,9.9-91.3,25.6c-0.1,0.2-0.2,0.4-0.4,0.6l-7.9,14.9v0.1l-5.9,11c-11-0.1-17.6,0.9-19.6,2.9
			c-0.9,0.7-1.4,1.7-1.6,2.9c0,7.7,3.3,12.3,10.5,14.4l-4,7.5c-1.4,2.7-2.1,5.8-2.2,8.8v86.3c0,6.1,4.9,11.1,11,11.2h7.5
			c6.1-0.1,11-5.1,11-11.2v-11.1h185.7v11.1c0,6.1,4.9,11.1,11,11.2h7.5c6.1-0.1,11-5.1,11-11.2v-86.3c-0.1-3.1-0.8-6.1-2.2-8.8
			l-4-7.5C332.1,185.9,335.4,181.4,335.4,173.6z M123.7,235.1c-8.2,0-14.9-6.7-14.9-14.9s6.7-14.9,14.9-14.9
			c8.2,0,14.9,6.7,14.9,14.9C138.6,228.4,131.9,235.1,123.7,235.1C123.7,235.1,123.7,235.1,123.7,235.1z M257.5,175.2
			c-4.2,2.5-9.4,2.5-13.6,0c-5.6,0.8-10.7,3.5-14.6,7.6h-41.8c-3.6-4-8.3-6.6-13.6-7.6c-4.2,2.5-9.4,2.5-13.6,0
			c-5.6,0.8-10.7,3.5-14.6,7.6h-33.5l10.5-19.6l0,0l7.4-13.9c3.5-5.2,6.1-9.1,15.3-12.2c11.8-4.1,32.6-6.3,63.4-6.4
			c30.8,0,51.5,2.3,63.4,6.4c9.2,3.2,11.8,7,15.3,12.2l7.4,13.9l0,0l10.5,19.6h-34.3C267.5,178.8,262.8,176.1,257.5,175.2z
			 M293.9,235.1c-8.2,0-14.9-6.6-14.9-14.9c0-8.2,6.6-14.9,14.9-14.9c8.2,0,14.9,6.6,14.9,14.9C308.8,228.4,302.1,235.1,293.9,235.1
			z"/>
		<path d="M250.7,146.3c-5.8,0.2-10.4,5-10.2,10.8v5.8c-0.3,5.7,4,10.5,9.7,10.8s10.5-4,10.8-9.7c0-0.4,0-0.7,0-1.1v-5.8
			C261.1,151.3,256.5,146.5,250.7,146.3z"/>
		<path d="M167.2,146.3c-5.8,0.1-10.4,5-10.3,10.8v5.8c-0.3,5.7,4,10.5,9.7,10.8s10.5-4,10.8-9.7c0-0.4,0-0.7,0-1.1v-5.8
			C177.5,151.3,173,146.5,167.2,146.3z"/>
	</g>
</g>
</svg>
