<?xml version="1.0" encoding="utf-8"?>
<!-- Generator: Adobe Illustrator 28.0.0, SVG Export Plug-In . SVG Version: 6.00 Build 0)  -->
<svg version="1.1" id="Layer_1" xmlns="http://www.w3.org/2000/svg" xmlns:xlink="http://www.w3.org/1999/xlink" x="0px" y="0px"
	 viewBox="0 0 417.6 417.6" style="enable-background:new 0 0 417.6 417.6;" xml:space="preserve">
<g>
	<g>
		<g>
			<g id="XMLID_00000164484247740410693970000010363302341982604199_">
				<path d="M345.6,187.1c0,12.7-7.2,19.9-22.2,20.7c0.4,4.8,0.7,9.6,0.7,13.3V259v8.7l-1.3,0.4c-2.2,0.5-46.4,11.1-101.1,12.6
					c-4,0.1-8.1,0.2-12.2,0.2c-3.6,0-7.3-0.1-10.9-0.2c-50.2-1.4-100.6-12.1-102.9-12.6l-2.1-0.5V259v-37.9c0-3.7,0.3-8.4,0.7-13.3
					c-15-0.8-22.2-8-22.2-20.7c0-5.9,8.4-8,22.1-8c1.5,0,3.1,0,4.7,0l10.3-51.5c2.2-11,12.6-19.7,23.9-19.7h151.8
					c11.2,0,21.7,8.6,23.9,19.7l10.1,51.5c1.6,0,3.2,0,4.7,0C337.2,179.1,345.6,181.2,345.6,187.1z M316.8,237.6
					c0-7.9-6.5-14.4-14.4-14.4c-8,0-14.4,6.4-14.4,14.4c0,8,6.5,14.4,14.4,14.4C310.3,252,316.8,245.6,316.8,237.6z M293.1,187.2
					h7.2c-3.1-16.2-10.3-54.2-10.4-55.6c-0.5-5.3-6.2-9.2-13.5-9.2h-135c-7.3,0-13,3.9-13.5,9.2c-0.1,1.5-7.4,39.4-10.4,55.6h7.2
					c0,0,0,0,0,0L293.1,187.2C293.1,187.1,293.1,187.2,293.1,187.2z M273.6,246v-8.4c0-7.9-6.4-14.4-14.4-14.4H158.4
					c-7.9,0-14.4,6.4-14.4,14.4v8.4c0,3.8,1.5,7.5,4.2,10.2l6,6c2.7,2.7,6.4,4.2,10.2,4.2h88.9c3.8,0,7.5-1.5,10.2-4.2l6-6
					C272.1,253.5,273.6,249.9,273.6,246z M129.6,237.6c0-7.9-6.4-14.4-14.4-14.4s-14.4,6.4-14.4,14.4c0,8,6.5,14.4,14.4,14.4
					S129.6,245.6,129.6,237.6z"/>
				<polygon points="331.7,280.5 331.7,280.6 331.4,280.6 				"/>
				<path d="M324.1,295.2v36.9c0,7.6-5.3,13.5-12,13.5h-12c-6.7,0-12-5.9-12-13.5v-8.2H129.6v8.2c0,7.6-5.3,13.5-12,13.5h-12
					c-6.7,0-12-5.9-12-13.5c0,0,0-25.9,0-26v-10.9v-12.9c8.4,1.8,63.1,12.9,115.8,12.9c56.6,0,104-10.2,114.7-12.7L324.1,295.2
					L324.1,295.2z"/>
			</g>
		</g>
	</g>
	<g>
		<g>
			<g id="XMLID_00000121972300325855791960000006338640438871296154_">
				<path d="M345.6,187.1c0,12.7-7.2,19.9-22.2,20.7c0.4,4.8,0.7,9.6,0.7,13.3V259v8.7l-1.3,0.4c-2.2,0.5-46.4,11.1-101.1,12.6
					c-4,0.1-8.1,0.2-12.2,0.2c-3.6,0-7.3-0.1-10.9-0.2c-50.2-1.4-100.6-12.1-102.9-12.6l-2.1-0.5V259v-37.9c0-3.7,0.3-8.4,0.7-13.3
					c-15-0.8-22.2-8-22.2-20.7c0-5.9,8.4-8,22.1-8c1.5,0,3.1,0,4.7,0l10.3-51.5c2.2-11,12.6-19.7,23.9-19.7h151.8
					c11.2,0,21.7,8.6,23.9,19.7l10.1,51.5c1.6,0,3.2,0,4.7,0C337.2,179.1,345.6,181.2,345.6,187.1z M316.8,237.6
					c0-7.9-6.5-14.4-14.4-14.4c-8,0-14.4,6.4-14.4,14.4c0,8,6.5,14.4,14.4,14.4C310.3,252,316.8,245.6,316.8,237.6z M293.1,187.2
					h7.2c-3.1-16.2-10.3-54.2-10.4-55.6c-0.5-5.3-6.2-9.2-13.5-9.2h-135c-7.3,0-13,3.9-13.5,9.2c-0.1,1.5-7.4,39.4-10.4,55.6h7.2
					c0,0,0,0,0,0L293.1,187.2C293.1,187.1,293.1,187.2,293.1,187.2z M273.6,246v-8.4c0-7.9-6.4-14.4-14.4-14.4H158.4
					c-7.9,0-14.4,6.4-14.4,14.4v8.4c0,3.8,1.5,7.5,4.2,10.2l6,6c2.7,2.7,6.4,4.2,10.2,4.2h88.9c3.8,0,7.5-1.5,10.2-4.2l6-6
					C272.1,253.5,273.6,249.9,273.6,246z M129.6,237.6c0-7.9-6.4-14.4-14.4-14.4s-14.4,6.4-14.4,14.4c0,8,6.5,14.4,14.4,14.4
					S129.6,245.6,129.6,237.6z"/>
				<polygon points="331.7,280.5 331.7,280.6 331.4,280.6 				"/>
				<path d="M324.1,295.2v36.9c0,7.6-5.3,13.5-12,13.5h-12c-6.7,0-12-5.9-12-13.5v-8.2H129.6v8.2c0,7.6-5.3,13.5-12,13.5h-12
					c-6.7,0-12-5.9-12-13.5c0,0,0-25.9,0-26v-10.9v-12.9c8.4,1.8,63.1,12.9,115.8,12.9c56.6,0,104-10.2,114.7-12.7L324.1,295.2
					L324.1,295.2z"/>
			</g>
		</g>
	</g>
</g>
</svg>
