<?xml version="1.0" encoding="utf-8"?>
<!-- Generator: Adobe Illustrator 26.5.0, SVG Export Plug-In . SVG Version: 6.00 Build 0)  -->
<svg version="1.1" id="Layer_1" xmlns="http://www.w3.org/2000/svg" xmlns:xlink="http://www.w3.org/1999/xlink" x="0px" y="0px"
	 viewBox="0 0 417.6 417.6" style="enable-background:new 0 0 417.6 417.6;" xml:space="preserve">
<g id="Layer_2_00000121270451293680981190000002516301645082028220_">
	<g id="Layer_1-2_00000051344739589142351590000003908101908058547645_">
		<path d="M310,172.8c-9.6,0-19,2-27.8,5.9l-16.1-27.9l-8.3-14.4l-14.3-24.8c-1.3-2.2-3.7-3.6-6.2-3.6H220c-4,0-7.2,3.2-7.2,7.2
			s3.2,7.2,7.2,7.2h13.1l12.4,21.6h-87.7l-4.4-7.6l-3.9-6.8h7.8c6.4-0.1,12.3-0.7,12.3-7.2c0.2-2.9-1.7-5.6-4.5-6.3
			c-2.7-0.9-6.3-0.9-9.9-0.9c-8.8,0-12.2-2.7-16.8-4.8c-3.8-1.8-7.9-2.6-12.1-2.5c-2,0-4.1,0-5.9,0.2c-4.8,0.4-8.5,1.8-8.5,7
			c0,7.2,0,14.4,14.4,14.4h6.4l12.2,21.2L129,178.7c-34.5-15.3-75,0.2-90.3,34.7s0.2,75,34.7,90.3s75-0.2,90.3-34.7
			c2.9-6.5,4.8-13.5,5.5-20.6h16c4,11.3,16.3,17.2,27.6,13.2S230,245.3,226,234c-0.9-2.5-2.2-4.8-4-6.9l35.8-62l12,20.7
			c-30.6,22.2-37.3,65-15.1,95.6s65,37.3,95.6,15.1s37.3-65,15.1-95.6C352.5,183.3,331.9,172.8,310,172.8z M153.4,165.2l35.8,62
			c-1.7,2-3.1,4.3-3.9,6.8h-16c-2-19.2-12.1-36.7-27.8-48.1L153.4,165.2z M154.8,234h-41l20.5-35.6
			C145.5,207.1,152.9,219.9,154.8,234z M101.2,295.2c-29.8-0.1-53.9-24.3-53.9-54.1c0.1-29.8,24.3-53.9,54.1-53.9
			c6.9,0,13.8,1.4,20.3,4L95,237.6l-0.1,0.2c-0.1,0.2-0.2,0.4-0.3,0.6c0,0,0,0.1-0.1,0.1c-0.1,0.2-0.2,0.4-0.2,0.6
			c-0.1,0.3-0.2,0.7-0.2,1c0,0.1,0,0.1,0,0.2c0,0.3-0.1,0.6-0.1,0.9c0,0,0,0.1,0,0.1s0,0.2,0,0.3s0,0.3,0,0.4c0,0.3,0.1,0.5,0.1,0.8
			c0,0.2,0.1,0.4,0.2,0.7v0.1c0.1,0.2,0.1,0.4,0.2,0.6l0,0c0.1,0.2,0.2,0.4,0.3,0.6c0.1,0.2,0.2,0.3,0.3,0.5l0.1,0.1l0.3,0.4
			c0.6,0.7,1.3,1.3,2.1,1.8l0.3,0.1c0.3,0.2,0.7,0.3,1.1,0.4l0.2,0.1c0.2,0.1,0.4,0.1,0.5,0.1c0.2,0.1,0.5,0.1,0.7,0.1
			c0.2,0,0.5,0,0.7,0h53.5C151.2,275.1,128.3,295.2,101.2,295.2z M205.6,248.4c-0.2,0-0.5,0-0.7,0l0,0c-0.2,0-0.5-0.1-0.7-0.1
			c-0.2,0-0.4-0.1-0.5-0.1l-0.2-0.1h-0.1h-0.1l-0.4-0.1h-0.1c-0.2-0.1-0.3-0.1-0.5-0.2l-0.3-0.1c0,0-0.1,0-0.1-0.1l-0.2-0.1
			l-0.1-0.1l-0.2-0.1l-0.2-0.1l-0.2-0.1l-0.2-0.2c-0.1-0.1-0.3-0.2-0.4-0.4c-0.1-0.1-0.2-0.2-0.3-0.3l0,0l-0.1-0.1l-0.1-0.1
			l-0.1-0.1l-0.1-0.2l-0.1-0.2v-0.1l-0.1-0.1c-0.1-0.1-0.1-0.2-0.2-0.4s-0.2-0.4-0.3-0.6l0,0c-0.1-0.2-0.2-0.4-0.2-0.6v-0.1
			c-0.1-0.2-0.1-0.4-0.2-0.7c-0.1-0.3-0.1-0.5-0.1-0.8c0-0.1,0-0.3,0-0.4v-0.4c0-0.3,0-0.6,0.1-0.9c0-0.1,0-0.1,0-0.2
			c0.1-0.3,0.1-0.7,0.2-1c0.1-0.2,0.1-0.4,0.2-0.6c0,0,0-0.1,0.1-0.1c0.1-0.2,0.2-0.4,0.3-0.6c1.9-3.5,6.3-4.8,9.8-2.9
			c1.1,0.6,2,1.5,2.7,2.5l0,0c0.1,0.1,0.1,0.2,0.1,0.3c0.2,0.3,0.3,0.7,0.4,1.1c0,0.1,0.1,0.2,0.1,0.2c0.1,0.2,0.1,0.4,0.1,0.5
			c0.1,0.2,0.1,0.5,0.1,0.7c0,0.2,0,0.5,0,0.7l0,0c0,0.3,0,0.5-0.1,0.8c0,0.2-0.1,0.4-0.1,0.6c0,0.2-0.1,0.3-0.1,0.4
			c0,0.1-0.1,0.2-0.1,0.4c-0.1,0.4-0.3,0.8-0.5,1.1l0,0l-0.1,0.2c-0.1,0.1-0.2,0.3-0.3,0.4c0,0.1-0.1,0.1-0.1,0.2l0,0l-0.1,0.2l0,0
			l-0.1,0.1v0.1c0,0,0,0.1-0.1,0.1l-0.1,0.1c0,0.1-0.1,0.1-0.1,0.1l-0.2,0.2c-0.1,0.1-0.2,0.2-0.4,0.3l-0.1,0.1c0,0,0,0-0.1,0
			c0,0-0.1,0.1-0.1,0.1c-0.1,0.1-0.1,0.1-0.2,0.1c-0.2,0.2-0.4,0.3-0.6,0.4l-0.1,0.1l-0.2,0.1c-0.3,0.2-0.7,0.3-1,0.4
			c-0.1,0-0.2,0.1-0.3,0.1l0,0c-0.1,0-0.3,0.1-0.4,0.1c-0.2,0.1-0.5,0.1-0.7,0.1c-0.2,0-0.5,0-0.7,0L205.6,248.4z M209.6,219.9
			c-2.6-0.5-5.3-0.5-7.9,0l-35.6-61.6h79L209.6,219.9z M310,295.2c-29.8,0-54-24.2-54-54c0-16.7,7.8-32.6,21-42.8l26.8,46.4
			c1.3,2.2,3.7,3.6,6.2,3.6c4,0,7.2-3.2,7.2-7.2c0-1.3-0.3-2.5-1-3.6l-26.8-46.4c27.6-11.3,59.1,2,70.4,29.6s-2,59.1-29.6,70.4
			C323.9,293.8,317,295.2,310,295.2L310,295.2z"/>
	</g>
</g>
</svg>
