<?xml version="1.0" encoding="utf-8"?>
<!-- Generator: Adobe Illustrator 27.9.0, SVG Export Plug-In . SVG Version: 6.00 Build 0)  -->
<svg version="1.1" id="Layer_1" xmlns="http://www.w3.org/2000/svg" xmlns:xlink="http://www.w3.org/1999/xlink" x="0px" y="0px"
	 viewBox="0 0 50 50" style="enable-background:new 0 0 50 50;" xml:space="preserve">
<style type="text/css">
	.st0{fill:#FFFFFF;}
</style>
<g id="Icons">
	<g>
		<path d="M42,50H8c-4.4,0-8-3.6-8-8V8c0-4.4,3.6-8,8-8h34c4.4,0,8,3.6,8,8v34C50,46.4,46.4,50,42,50z"/>
		<path class="st0" d="M28.1,22.4L40.4,8.2h-2.9L26.8,20.6L18.3,8.2H8.6l12.8,18.7L8.6,41.8h2.9l11.2-13.1l9,13.1h9.8L28.1,22.4
			L28.1,22.4z M24.2,27l-1.3-1.9L12.5,10.4H17l8.4,12l1.3,1.9l10.9,15.5H33L24.2,27L24.2,27z"/>
	</g>
</g>
</svg>
