<?xml version="1.0" encoding="utf-8"?>
<!-- Generator: Adobe Illustrator 26.0.3, SVG Export Plug-In . SVG Version: 6.00 Build 0)  -->
<svg version="1.1" id="Layer_1" xmlns="http://www.w3.org/2000/svg" xmlns:xlink="http://www.w3.org/1999/xlink" x="0px" y="0px"
	 viewBox="0 0 50 50" enable-background="new 0 0 50 50" xml:space="preserve">
<g id="Icons">
	<g>
		<path d="M42,50H8c-4.4,0-8-3.6-8-8V8c0-4.4,3.6-8,8-8h34c4.4,0,8,3.6,8,8v34C50,46.4,46.4,50,42,50z"/>
		<g>
			<g>
				<g id="Lozenge_00000096016885944237319140000008666884362470738322_">
					<g>
						<path fill="#FFFFFF" d="M40.8,18.6c0,0-0.3-2.2-1.3-3.2c-1.2-1.3-2.6-1.3-3.2-1.4C31.8,13.7,25,13.7,25,13.7l0,0
							c0,0-6.7,0-11.2,0.3c-0.6,0.1-2,0.1-3.2,1.4c-1,1-1.3,3.2-1.3,3.2S9,21.2,9,23.8v2.4c0,2.6,0.3,5.2,0.3,5.2s0.3,2.2,1.3,3.2
							c1.2,1.3,2.8,1.2,3.5,1.4c2.6,0.2,10.9,0.3,10.9,0.3s6.8,0,11.3-0.3c0.6-0.1,2-0.1,3.2-1.4c1-1,1.3-3.2,1.3-3.2
							s0.3-2.6,0.3-5.2v-2.4C41.1,21.2,40.8,18.6,40.8,18.6z M21,29.9V19.4l10.1,5.3L21,29.9z"/>
					</g>
				</g>
			</g>
		</g>
	</g>
</g>
<g id="Text">
</g>
</svg>
