<?xml version="1.0" encoding="utf-8"?>
<!-- Generator: Adobe Illustrator 26.0.3, SVG Export Plug-In . SVG Version: 6.00 Build 0)  -->
<svg version="1.1" id="Layer_1" xmlns="http://www.w3.org/2000/svg" xmlns:xlink="http://www.w3.org/1999/xlink" x="0px" y="0px"
	 viewBox="0 0 50 50" enable-background="new 0 0 50 50" xml:space="preserve">
<g id="Icons">
	<g>
		<path fill="#FFFFFF" d="M42,50H8c-4.4,0-8-3.6-8-8V8c0-4.4,3.6-8,8-8h34c4.4,0,8,3.6,8,8v34C50,46.4,46.4,50,42,50z"/>
		<g>
			<g>
				<path d="M25.1,8.5C16,8.5,8.6,15.9,8.6,25S16,41.5,25.1,41.5S41.6,34.1,41.6,25S34.2,8.5,25.1,8.5z M25.1,35.7
					c-5.9,0-10.7-4.8-10.7-10.7s4.8-10.7,10.7-10.7S35.8,19.1,35.8,25S31,35.7,25.1,35.7z"/>
				<circle cx="42.2" cy="7.8" r="3.9"/>
			</g>
		</g>
	</g>
</g>
<g id="Text">
</g>
</svg>
