<?xml version="1.0" encoding="utf-8"?>
<!-- Generator: Adobe Illustrator 26.0.3, SVG Export Plug-In . SVG Version: 6.00 Build 0)  -->
<svg version="1.1" id="Layer_1" xmlns="http://www.w3.org/2000/svg" xmlns:xlink="http://www.w3.org/1999/xlink" x="0px" y="0px"
	 viewBox="0 0 50 50" enable-background="new 0 0 50 50" xml:space="preserve">
<g id="Icons">
	<g>
		<path fill="#FFFFFF" d="M42,50H8c-4.4,0-8-3.6-8-8V8c0-4.4,3.6-8,8-8h34c4.4,0,8,3.6,8,8v34C50,46.4,46.4,50,42,50z"/>
		<g>
			<g>
				<g>
					<path d="M44.2,12.9c-1.4,0.6-2.9,1-4.5,1.2c1.6-1,2.9-2.5,3.5-4.3c-1.5,0.9-3.2,1.6-5,1.9c-1.4-1.5-3.5-2.5-5.7-2.5
						c-4.3,0-7.9,3.5-7.9,7.9c0,0.6,0.1,1.2,0.2,1.8c-6.5-0.3-12.3-3.5-16.2-8.2c-0.7,1.2-1.1,2.5-1.1,4c0,2.7,1.4,5.1,3.5,6.5
						c-1.3,0-2.5-0.4-3.6-1v0.1c0,3.8,2.7,7,6.3,7.7c-0.7,0.2-1.4,0.3-2.1,0.3c-0.5,0-1-0.1-1.5-0.1c1,3.1,3.9,5.4,7.3,5.5
						c-2.7,2.1-6.1,3.4-9.8,3.4c-0.6,0-1.3,0-1.9-0.1c3.5,2.2,7.6,3.5,12.1,3.5c14.5,0,22.4-12,22.4-22.4c0-0.3,0-0.7,0-1
						C41.8,15.9,43.1,14.5,44.2,12.9z"/>
				</g>
			</g>
		</g>
	</g>
</g>
<g id="Text">
</g>
</svg>
