<?xml version="1.0" encoding="utf-8"?>
<!-- Generator: Adobe Illustrator 26.0.3, SVG Export Plug-In . SVG Version: 6.00 Build 0)  -->
<svg version="1.1" xmlns="http://www.w3.org/2000/svg" xmlns:xlink="http://www.w3.org/1999/xlink" x="0px" y="0px"
	 viewBox="0 0 50 50" style="enable-background:new 0 0 50 50;" xml:space="preserve">
<style type="text/css">
	.st0{fill:#37B34A;}
	.st1{fill:#FFFFFF;}
	.st2{fill:#916D43;}
	.st3{fill:#F9A51A;}
	.st4{fill:#2B388F;}
	.st5{fill:#4D4D4D;}
	.st6{fill:#2D9DD4;}
	.st7{fill:#3C5A98;}
	.st8{fill:#E52027;}
	.st9{fill:#F17F21;}
	.st10{fill:#D82B82;}
	.st11{fill:#C32127;}
	.st12{fill:#3EA2C2;}
	.st13{fill:#96C94F;}
	.st14{clip-path:url(#SVGID_00000157987613582748568490000002188789866783607958_);}
	.st15{fill:#3187C8;}
	.st16{fill:#007BB5;}
	.st17{fill:#F1DF08;}
	.st18{fill:#FFC50A;}
	.st19{fill:#14080E;stroke:#231F20;stroke-width:4.513290e-02;stroke-miterlimit:3.8637;}
	.st20{fill:#1B7CB9;}
	.st21{fill:#59595C;}
	.st22{fill:#00A4D5;}
	.st23{fill:#ADADAD;}
	.st24{fill:#3878BA;}
	.st25{fill:#EB3B90;}
	.st26{fill:#8BBE48;}
	.st27{fill:#389CD7;}
	.st28{fill:#EF4B23;}
	.st29{fill:none;stroke:#FFFFFF;stroke-width:2.1005;stroke-linecap:square;stroke-miterlimit:10;}
	.st30{fill:#3388FF;}
	.st31{fill-rule:evenodd;clip-rule:evenodd;fill:#FFFFFF;}
	.st32{fill:#F94877;}
	.st33{fill:#1AD4FD;}
</style>
<g id="Icons">
	<g>
		<path class="st6" d="M42,50H8c-4.4,0-8-3.6-8-8V8c0-4.4,3.6-8,8-8h34c4.4,0,8,3.6,8,8v34C50,46.4,46.4,50,42,50z"/>
		<g>
			<g>
				<g>
					<path class="st1" d="M44.2,12.9c-1.4,0.6-2.9,1-4.5,1.2c1.6-1,2.9-2.5,3.5-4.3c-1.5,0.9-3.2,1.6-5,1.9
						c-1.4-1.5-3.5-2.5-5.7-2.5c-4.3,0-7.9,3.5-7.9,7.9c0,0.6,0.1,1.2,0.2,1.8c-6.5-0.3-12.3-3.5-16.2-8.2c-0.7,1.2-1.1,2.5-1.1,4
						c0,2.7,1.4,5.1,3.5,6.5c-1.3,0-2.5-0.4-3.6-1c0,0,0,0.1,0,0.1c0,3.8,2.7,7,6.3,7.7c-0.7,0.2-1.4,0.3-2.1,0.3
						c-0.5,0-1-0.1-1.5-0.1c1,3.1,3.9,5.4,7.3,5.5c-2.7,2.1-6.1,3.4-9.8,3.4c-0.6,0-1.3,0-1.9-0.1c3.5,2.2,7.6,3.5,12.1,3.5
						c14.5,0,22.4-12,22.4-22.4c0-0.3,0-0.7,0-1C41.8,15.9,43.1,14.5,44.2,12.9z"/>
				</g>
			</g>
		</g>
	</g>
</g>
<g id="Text">
</g>
</svg>
