<?xml version="1.0" encoding="utf-8"?>
<!-- Generator: Adobe Illustrator 26.0.3, SVG Export Plug-In . SVG Version: 6.00 Build 0)  -->
<svg version="1.1" id="Layer_1" xmlns="http://www.w3.org/2000/svg" xmlns:xlink="http://www.w3.org/1999/xlink" x="0px" y="0px"
	 viewBox="0 0 50 50" enable-background="new 0 0 50 50" xml:space="preserve">
<g id="Icons">
	<g>
		<path fill="#FFFFFF" d="M42,50H8c-4.4,0-8-3.6-8-8V8c0-4.4,3.6-8,8-8h34c4.4,0,8,3.6,8,8v34C50,46.4,46.4,50,42,50z"/>
		<g>
			<g>
				<g>
					<path d="M7.4,18.7h7.4v23.9H7.4V18.7z M11.1,6.9c2.4,0,4.3,1.9,4.3,4.3s-1.9,4.3-4.3,4.3s-4.3-1.9-4.3-4.3S8.7,6.9,11.1,6.9"/>
					<path d="M19.5,18.7h7.1V22h0.1c1-1.9,3.4-3.9,7-3.9c7.5,0,8.9,4.9,8.9,11.4v13.1h-7.4V31c0-2.8,0-6.3-3.9-6.3s-4.4,3-4.4,6.1
						v11.8h-7.4C19.5,42.6,19.5,18.7,19.5,18.7z"/>
				</g>
			</g>
		</g>
	</g>
</g>
<g id="Text">
</g>
</svg>
