<?xml version="1.0" encoding="utf-8"?>
<!-- Generator: Adobe Illustrator 26.0.3, SVG Export Plug-In . SVG Version: 6.00 Build 0)  -->
<svg version="1.1" xmlns="http://www.w3.org/2000/svg" xmlns:xlink="http://www.w3.org/1999/xlink" x="0px" y="0px"
	 viewBox="0 0 50 50" style="enable-background:new 0 0 50 50;" xml:space="preserve">
<style type="text/css">
	.st0{fill:#37B34A;}
	.st1{fill:#FFFFFF;}
	.st2{fill:#916D43;}
	.st3{fill:#F9A51A;}
	.st4{fill:#2B388F;}
	.st5{fill:#4D4D4D;}
	.st6{fill:#2D9DD4;}
	.st7{fill:#3C5A98;}
	.st8{fill:#E52027;}
	.st9{fill:#F17F21;}
	.st10{fill:#D82B82;}
	.st11{fill:#C32127;}
	.st12{fill:#3EA2C2;}
	.st13{fill:#96C94F;}
	.st14{clip-path:url(#SVGID_00000100354521869817996290000008175884672067865760_);}
	.st15{fill:#3187C8;}
	.st16{fill:#007BB5;}
	.st17{fill:#F1DF08;}
	.st18{fill:#FFC50A;}
	.st19{fill:#14080E;stroke:#231F20;stroke-width:4.513290e-02;stroke-miterlimit:3.8637;}
	.st20{fill:#1B7CB9;}
	.st21{fill:#59595C;}
	.st22{fill:#00A4D5;}
	.st23{fill:#ADADAD;}
	.st24{fill:#3878BA;}
	.st25{fill:#EB3B90;}
	.st26{fill:#8BBE48;}
	.st27{fill:#389CD7;}
	.st28{fill:#EF4B23;}
	.st29{fill:none;stroke:#FFFFFF;stroke-width:2.1005;stroke-linecap:square;stroke-miterlimit:10;}
	.st30{fill:#3388FF;}
	.st31{fill-rule:evenodd;clip-rule:evenodd;fill:#FFFFFF;}
	.st32{fill:#F94877;}
	.st33{fill:#1AD4FD;}
</style>
<g id="Icons">
	<g>
		<path class="st10" d="M42,50H8c-4.4,0-8-3.6-8-8V8c0-4.4,3.6-8,8-8h34c4.4,0,8,3.6,8,8v34C50,46.4,46.4,50,42,50z"/>
		<g>
			<g>
				<path class="st1" d="M25.1,8.5C16,8.5,8.6,15.9,8.6,25S16,41.5,25.1,41.5S41.6,34.1,41.6,25S34.2,8.5,25.1,8.5z M25.1,35.7
					c-5.9,0-10.7-4.8-10.7-10.7s4.8-10.7,10.7-10.7S35.8,19.1,35.8,25S31,35.7,25.1,35.7z"/>
				<circle class="st1" cx="42.2" cy="7.8" r="3.9"/>
			</g>
		</g>
	</g>
</g>
<g id="Text">
</g>
</svg>
