<?xml version="1.0" encoding="utf-8"?>
<!-- Generator: Adobe Illustrator 26.0.3, SVG Export Plug-In . SVG Version: 6.00 Build 0)  -->
<svg version="1.1" id="Layer_1" xmlns="http://www.w3.org/2000/svg" xmlns:xlink="http://www.w3.org/1999/xlink" x="0px" y="0px"
	 viewBox="0 0 50 50" enable-background="new 0 0 50 50" xml:space="preserve">
<g id="Icons">
	<g>
		<path d="M42,50H8c-4.4,0-8-3.6-8-8V8c0-4.4,3.6-8,8-8h34c4.4,0,8,3.6,8,8v34C50,46.4,46.4,50,42,50z"/>
		<g>
			<g>
				<path id="f_00000036966381069910125240000005775923832116889240_" fill="#FFFFFF" d="M34.5,50V30.6H41l1-7.5h-7.5v-4.8
					c0-2.2,0.6-3.7,3.7-3.7h4V7.8c-0.7-0.1-3.1-0.3-5.8-0.3c-5.8,0-9.7,3.5-9.7,10v5.6h-6.5v7.5h6.5V50H34.5z"/>
			</g>
		</g>
	</g>
</g>
<g id="Text">
</g>
</svg>
