<?xml version="1.0" encoding="utf-8"?>
<!-- Generator: Adobe Illustrator 26.0.3, SVG Export Plug-In . SVG Version: 6.00 Build 0)  -->
<svg version="1.1" id="Layer_1" xmlns="http://www.w3.org/2000/svg" xmlns:xlink="http://www.w3.org/1999/xlink" x="0px" y="0px"
	 viewBox="0 0 47.5 25.3" enable-background="new 0 0 47.5 25.3" xml:space="preserve">
<g>
	<g>
		<g>
			<path fill="#FFFFFF" d="M1,20.6c0-2,1.7-3.7,3.7-3.7c2,0,3.7,1.7,3.7,3.7c0,2-1.7,3.7-3.7,3.7C2.7,24.3,1,22.6,1,20.6z"/>
		</g>
		<g>
			<path fill="none" stroke="#231F20" stroke-width="2.0608" d="M1,20.6c0-2,1.7-3.7,3.7-3.7c2,0,3.7,1.7,3.7,3.7
				c0,2-1.7,3.7-3.7,3.7C2.7,24.3,1,22.6,1,20.6z"/>
		</g>
	</g>
	<g>
		<rect x="9.3" fill="#231F20" width="38.2" height="16.9"/>
		<text transform="matrix(1 0 0 1 18.8467 7.1968)"><tspan x="0" y="0" fill="#FFFFFF" font-family="'DINPro-Bold'" font-size="7.4723px">Expo/ </tspan><tspan x="-7.1" y="7.5" fill="#FFFFFF" font-family="'DINPro-Bold'" font-size="7.4723px">C</tspan><tspan x="-2.4" y="7.5" fill="#FFFFFF" font-family="'DINPro-Bold'" font-size="7.4723px">r</tspan><tspan x="0.7" y="7.5" fill="#FFFFFF" font-family="'DINPro-Bold'" font-size="7.4723px">enshaw</tspan></text>
	</g>
</g>
</svg>
