<?xml version="1.0" encoding="utf-8"?>
<!-- Generator: Adobe Illustrator 26.0.3, SVG Export Plug-In . SVG Version: 6.00 Build 0)  -->
<svg version="1.1" xmlns="http://www.w3.org/2000/svg" xmlns:xlink="http://www.w3.org/1999/xlink" x="0px" y="0px"
	 viewBox="0 0 57.5 20" enable-background="new 0 0 57.5 20" xml:space="preserve">
<g id="Layer_1">
	<g>
		<g>
			<g>
				<g>
					<path fill="#FFFFFF" d="M24.5,4.7c0-2,1.7-3.7,3.7-3.7c2,0,3.7,1.7,3.7,3.7c0,2-1.7,3.7-3.7,3.7C26.1,8.4,24.5,6.8,24.5,4.7z"
						/>
				</g>
			</g>
			<g>
				<g>
					<path fill="#231F20" d="M28.2,9.5c-2.6,0-4.7-2.1-4.7-4.7c0-2.6,2.1-4.7,4.7-4.7c2.6,0,4.7,2.1,4.7,4.7
						C32.9,7.4,30.8,9.5,28.2,9.5z M28.2,2.1c-1.5,0-2.7,1.2-2.7,2.7c0,1.5,1.2,2.7,2.7,2.7c1.5,0,2.7-1.2,2.7-2.7
						C30.9,3.3,29.7,2.1,28.2,2.1z"/>
				</g>
			</g>
		</g>
	</g>
</g>
<g id="Isolation_Mode">
	<g>
		<rect y="10" fill="#231F20" width="57.5" height="9.9"/>
		<g>
			<path fill="#FFFFFF" d="M6,12.8H3.5v1.2h2.1V15H3.5v1.3H6v0.9H2.5v-5.3H6V12.8z"/>
			<path fill="#FFFFFF" d="M8.9,15.2l1.3,2H9.1l-0.7-1.2l-0.7,1.2H6.5l1.3-2l-1.3-1.9h1.2l0.7,1.1L9,13.3h1.2L8.9,15.2z"/>
			<path fill="#FFFFFF" d="M13.7,13.6c0.4,0.4,0.4,1,0.4,1.6c0,0.7,0,1.3-0.4,1.6c-0.2,0.2-0.6,0.4-0.9,0.4c-0.4,0-0.7-0.1-1-0.4
				v1.8h-1v-5.3h0.9v0.4c0.3-0.3,0.6-0.4,1-0.4C13.2,13.3,13.5,13.4,13.7,13.6z M11.8,15.3c0,0.6,0.1,1.1,0.7,1.1
				c0.6,0,0.7-0.5,0.7-1.1c0-0.6-0.1-1.1-0.7-1.1C11.9,14.2,11.8,14.6,11.8,15.3z"/>
			<path fill="#FFFFFF" d="M17.7,16.8c-0.2,0.3-0.6,0.5-1.2,0.5c-0.6,0-1-0.2-1.2-0.5c-0.4-0.4-0.4-0.8-0.4-1.5
				c0-0.7,0.1-1.1,0.4-1.5c0.2-0.3,0.6-0.5,1.2-0.5c0.6,0,1,0.2,1.2,0.5c0.4,0.4,0.4,0.8,0.4,1.5C18.2,16,18.1,16.4,17.7,16.8z
				 M17,14.3c-0.1-0.1-0.3-0.2-0.5-0.2c-0.2,0-0.3,0.1-0.4,0.2c-0.2,0.2-0.2,0.5-0.2,0.9c0,0.4,0,0.8,0.2,0.9
				c0.1,0.1,0.3,0.2,0.4,0.2c0.2,0,0.3-0.1,0.5-0.2c0.2-0.2,0.2-0.5,0.2-0.9C17.2,14.9,17.2,14.5,17,14.3z"/>
			<path fill="#FFFFFF" d="M19.5,17.8h-0.9l2.1-6.3h0.9L19.5,17.8z"/>
			<path fill="#FFFFFF" d="M25.9,13.5h-1.1c-0.1-0.4-0.4-0.8-0.9-0.8c-0.3,0-0.5,0.1-0.7,0.3c-0.2,0.2-0.3,0.5-0.3,1.5
				c0,1,0.1,1.3,0.3,1.5c0.1,0.2,0.4,0.3,0.7,0.3c0.5,0,0.8-0.3,0.9-0.8h1.1c-0.2,1.1-1,1.7-2,1.7c-0.6,0-1.1-0.2-1.4-0.6
				C22,16.2,22,15.6,22,14.6c0-1,0-1.6,0.5-2.1c0.4-0.4,0.8-0.6,1.4-0.6C25,11.9,25.7,12.4,25.9,13.5z"/>
			<path fill="#FFFFFF" d="M29.6,13.7l-0.7,0.7c-0.1-0.1-0.3-0.2-0.5-0.2c-0.3,0-0.6,0.2-0.6,0.7v2.3h-1v-3.9h0.9v0.4
				c0.2-0.2,0.6-0.4,1-0.4C29.1,13.3,29.3,13.4,29.6,13.7z"/>
			<path fill="#FFFFFF" d="M33.1,15.2v0.4h-2.4c0,0.5,0.3,0.9,0.9,0.9c0.4,0,0.6-0.1,0.9-0.4l0.6,0.6c-0.4,0.4-0.8,0.6-1.5,0.6
				c-0.9,0-1.8-0.4-1.8-2c0-1.3,0.7-2,1.7-2C32.5,13.3,33.1,14.1,33.1,15.2z M30.8,14.5c-0.1,0.1-0.1,0.2-0.1,0.4h1.5
				c0-0.2,0-0.3-0.1-0.4c-0.1-0.2-0.3-0.4-0.7-0.4C31.1,14.1,30.9,14.3,30.8,14.5z"/>
			<path fill="#FFFFFF" d="M36.9,13.6c0.3,0.3,0.4,0.7,0.4,1.1v2.5h-1v-2.4c0-0.5-0.3-0.7-0.6-0.7c-0.3,0-0.7,0.2-0.7,0.7v2.4h-1
				v-3.9H35v0.4c0.3-0.3,0.6-0.4,1-0.4C36.3,13.3,36.6,13.4,36.9,13.6z"/>
			<path fill="#FFFFFF" d="M41.1,13.7l-0.6,0.6c-0.2-0.2-0.6-0.3-0.9-0.3c-0.4,0-0.6,0.2-0.6,0.4c0,0.2,0.1,0.3,0.4,0.3l0.6,0.1
				c0.8,0.1,1.2,0.5,1.2,1.1c0,0.9-0.7,1.3-1.7,1.3c-0.6,0-1.2-0.1-1.7-0.6l0.6-0.6c0.3,0.3,0.7,0.4,1,0.4c0.3,0,0.7-0.1,0.7-0.4
				c0-0.2-0.1-0.3-0.4-0.4l-0.6-0.1c-0.7-0.1-1.1-0.4-1.1-1.1c0-0.8,0.7-1.2,1.5-1.2C40.2,13.3,40.7,13.4,41.1,13.7z"/>
			<path fill="#FFFFFF" d="M44.3,17.2v-2.4c0-0.5-0.3-0.7-0.6-0.7S43,14.3,43,14.9v2.4h-1v-5.3h1v1.8c0.2-0.3,0.6-0.4,1-0.4
				c0.4,0,0.7,0.1,0.9,0.3c0.3,0.3,0.4,0.7,0.4,1.1v2.5H44.3z"/>
			<path fill="#FFFFFF" d="M49.3,14.7v2.6h-0.9v-0.3c-0.3,0.3-0.5,0.4-1,0.4c-0.4,0-0.8-0.1-1-0.3C46.2,16.7,46,16.4,46,16
				c0-0.6,0.4-1.1,1.3-1.1h0.9v-0.2c0-0.4-0.2-0.6-0.7-0.6c-0.4,0-0.5,0.1-0.7,0.3l-0.6-0.6c0.4-0.4,0.7-0.6,1.4-0.6
				C48.7,13.3,49.3,13.8,49.3,14.7z M47.6,15.6c-0.4,0-0.6,0.2-0.6,0.4c0,0.3,0.2,0.4,0.6,0.4c0.2,0,0.4,0,0.6-0.2
				c0.1-0.1,0.1-0.2,0.1-0.5v-0.2H47.6z"/>
			<path fill="#FFFFFF" d="M54.2,17.2h-0.8l-0.8-2.4l-0.8,2.4H51l-1.2-3.9h1l0.6,2.4l0.8-2.4H53l0.8,2.4l0.6-2.4h1L54.2,17.2z"/>
		</g>
	</g>
</g>
</svg>
