<?xml version="1.0" encoding="utf-8"?>
<!-- Generator: Adobe Illustrator 26.0.3, SVG Export Plug-In . SVG Version: 6.00 Build 0)  -->
<svg version="1.1" xmlns="http://www.w3.org/2000/svg" xmlns:xlink="http://www.w3.org/1999/xlink" x="0px" y="0px"
	 viewBox="0 0 63.9 19.4" enable-background="new 0 0 63.9 19.4" xml:space="preserve">
<g id="Layer_1">
	<g>
		<g>
			<g>
				<polygon fill="#231F20" points="0,0 63.9,0 63.9,9.4 0,9.4 0,0 				"/>
			</g>
			<g>
				<path fill="#FFFFFF" d="M8,7.1H6.9L6.6,6.2H4.7L4.3,7.1H3.3l1.9-5.3H6L8,7.1z M5,5.3h1.3L5.6,3.4L5,5.3z"/>
				<path fill="#FFFFFF" d="M10.1,7.1H9.3L7.9,3.2h1l0.8,2.4l0.8-2.4h1L10.1,7.1z"/>
				<path fill="#FFFFFF" d="M13.1,2.6h-1V1.8h1V2.6z M13.1,7.1h-1V3.3h1V7.1z"/>
				<path fill="#FFFFFF" d="M17.1,4.6v2.6h-1V6.8c-0.3,0.3-0.5,0.4-1,0.4c-0.4,0-0.8-0.1-1-0.3c-0.2-0.2-0.3-0.5-0.3-0.9
					c0-0.6,0.4-1.1,1.3-1.1h0.9V4.6c0-0.4-0.2-0.6-0.7-0.6c-0.4,0-0.5,0.1-0.7,0.3L14,3.7c0.4-0.4,0.7-0.6,1.4-0.6
					C16.5,3.2,17.1,3.6,17.1,4.6z M15.4,5.5c-0.4,0-0.6,0.2-0.6,0.4c0,0.3,0.2,0.4,0.6,0.4c0.2,0,0.4,0,0.6-0.2
					c0.1-0.1,0.1-0.2,0.1-0.5V5.5H15.4z"/>
				<path fill="#FFFFFF" d="M19.2,3.3h0.7v0.7h-0.7v1.9c0,0.2,0.1,0.4,0.3,0.4h0.4v0.8h-0.5c-0.8,0-1.1-0.6-1.1-1.1V4.1h-0.4V3.3
					h0.4V2.2h1V3.3z"/>
				<path fill="#FFFFFF" d="M21.8,2.6h-1V1.8h1V2.6z M21.8,7.1h-1V3.3h1V7.1z"/>
				<path fill="#FFFFFF" d="M25.5,6.7c-0.2,0.3-0.6,0.5-1.2,0.5c-0.6,0-1-0.2-1.2-0.5c-0.4-0.4-0.4-0.8-0.4-1.5
					c0-0.7,0.1-1.1,0.4-1.5c0.2-0.3,0.6-0.5,1.2-0.5c0.6,0,1,0.2,1.2,0.5C25.9,4,26,4.5,26,5.2C26,5.9,25.9,6.3,25.5,6.7z M24.8,4.2
					c-0.1-0.1-0.3-0.2-0.5-0.2c-0.2,0-0.3,0.1-0.4,0.2c-0.2,0.2-0.2,0.5-0.2,0.9c0,0.4,0,0.8,0.2,1c0.1,0.1,0.3,0.2,0.4,0.2
					c0.2,0,0.3-0.1,0.5-0.2C25,5.9,25,5.6,25,5.2C25,4.8,25,4.4,24.8,4.2z"/>
				<path fill="#FFFFFF" d="M29.7,3.5c0.3,0.3,0.4,0.7,0.4,1.1v2.5h-1V4.8c0-0.5-0.3-0.7-0.6-0.7c-0.3,0-0.7,0.2-0.7,0.7v2.4h-1V3.2
					h0.9v0.4c0.3-0.3,0.6-0.4,1-0.4C29.2,3.2,29.5,3.3,29.7,3.5z"/>
				<path fill="#FFFFFF" d="M31.5,7.7h-0.9l2.1-6.3h0.9L31.5,7.7z"/>
				<path fill="#FFFFFF" d="M38,3.4h-1.1C36.8,3,36.6,2.7,36,2.7c-0.3,0-0.5,0.1-0.7,0.3c-0.2,0.2-0.3,0.5-0.3,1.5s0.1,1.3,0.3,1.5
					c0.1,0.2,0.4,0.3,0.7,0.3c0.5,0,0.8-0.3,0.9-0.8H38c-0.2,1.1-1,1.7-2,1.7c-0.6,0-1.1-0.2-1.4-0.6c-0.5-0.5-0.5-1.1-0.5-2.1
					s0-1.6,0.5-2.1C35,2,35.4,1.8,36,1.8C37,1.8,37.8,2.3,38,3.4z"/>
				<path fill="#FFFFFF" d="M42,5.1v0.4h-2.4c0,0.5,0.3,0.9,0.9,0.9c0.4,0,0.6-0.1,0.9-0.4l0.6,0.6c-0.4,0.4-0.8,0.6-1.5,0.6
					c-0.9,0-1.8-0.4-1.8-2c0-1.3,0.7-2,1.7-2C41.4,3.2,42,4,42,5.1z M39.7,4.4c-0.1,0.1-0.1,0.2-0.1,0.4h1.5c0-0.2,0-0.3-0.1-0.4
					C40.9,4.2,40.7,4,40.3,4C40,4,39.8,4.2,39.7,4.4z"/>
				<path fill="#FFFFFF" d="M45.8,3.5c0.3,0.3,0.4,0.7,0.4,1.1v2.5h-1V4.8c0-0.5-0.3-0.7-0.6-0.7c-0.3,0-0.7,0.2-0.7,0.7v2.4h-1V3.2
					h0.9v0.4c0.3-0.3,0.6-0.4,1-0.4C45.2,3.2,45.6,3.3,45.8,3.5z"/>
				<path fill="#FFFFFF" d="M48.3,3.3H49v0.7h-0.7v1.9c0,0.2,0.1,0.4,0.3,0.4H49v0.8h-0.5c-0.8,0-1.1-0.6-1.1-1.1V4.1h-0.4V3.3h0.4
					V2.2h1V3.3z"/>
				<path fill="#FFFFFF" d="M53,7.1h-0.9V6.8c-0.3,0.3-0.6,0.4-1,0.4c-0.4,0-0.7-0.1-0.9-0.3c-0.3-0.3-0.4-0.7-0.4-1.1V3.2h1v2.4
					c0,0.5,0.3,0.7,0.6,0.7c0.3,0,0.7-0.2,0.7-0.7V3.2h1V7.1z"/>
				<path fill="#FFFFFF" d="M57,3.5l-0.7,0.7c-0.1-0.1-0.3-0.2-0.5-0.2c-0.3,0-0.6,0.2-0.6,0.7v2.3h-1V3.2h0.9v0.4
					c0.2-0.2,0.6-0.4,1-0.4C56.4,3.2,56.7,3.3,57,3.5z"/>
				<path fill="#FFFFFF" d="M59,7.7c-0.1,0.2-0.2,0.4-0.3,0.5c-0.2,0.2-0.5,0.3-0.8,0.3h-0.4V7.7h0.2c0.3,0,0.4-0.1,0.5-0.4l0.2-0.5
					l-1.3-3.6h1l0.8,2.4l0.8-2.4h1L59,7.7z"/>
			</g>
		</g>
		<g>
			<g>
				<g>
					<path fill="#FFFFFF" d="M28.3,14.7c0-2,1.7-3.7,3.7-3.7c2,0,3.7,1.7,3.7,3.7c0,2-1.7,3.7-3.7,3.7
						C29.9,18.4,28.3,16.8,28.3,14.7z"/>
				</g>
			</g>
			<g>
				<g>
					<path fill="#6B6B6B" d="M32,19.4c-2.6,0-4.7-2.1-4.7-4.7c0-2.6,2.1-4.7,4.7-4.7c2.6,0,4.7,2.1,4.7,4.7
						C36.7,17.3,34.6,19.4,32,19.4z M32,12c-1.5,0-2.7,1.2-2.7,2.7c0,1.5,1.2,2.7,2.7,2.7c1.5,0,2.7-1.2,2.7-2.7
						C34.7,13.2,33.5,12,32,12z"/>
				</g>
			</g>
		</g>
	</g>
</g>
<g id="Isolation_Mode">
</g>
</svg>
