<?xml version="1.0" encoding="utf-8"?>
<!-- Generator: Adobe Illustrator 26.0.3, SVG Export Plug-In . SVG Version: 6.00 Build 0)  -->
<svg version="1.1" xmlns="http://www.w3.org/2000/svg" xmlns:xlink="http://www.w3.org/1999/xlink" x="0px" y="0px"
	 viewBox="0 0 52 27" enable-background="new 0 0 52 27" xml:space="preserve">
<g id="Layer_1">
	<g>
		<g>
			<rect y="0" fill="#231F20" width="52" height="16.9"/>
			<g>
				<path fill="#FFFFFF" d="M9.1,6.3h2.4v0.9H8V1.9h1V6.3z"/>
				<path fill="#FFFFFF" d="M16.5,7.2h-1.1l-0.3-0.9h-1.9l-0.3,0.9h-1.1l1.9-5.3h0.8L16.5,7.2z M13.5,5.4h1.3l-0.7-1.9L13.5,5.4z"/>
				<path fill="#FFFFFF" d="M19.7,4.5l1.7,2.7h-1.2l-1-1.9l-1,1.9h-1.2l1.7-2.7L17,1.9h1.2l0.9,1.7L20,1.9h1.2L19.7,4.5z"/>
				<path fill="#FFFFFF" d="M22.4,7.7h-0.9l2.1-6.3h0.9L22.4,7.7z"/>
				<path fill="#FFFFFF" d="M30,7.2h-1V4.1l-1,1.9h-0.7l-1-1.9v3.1h-1V1.9h1l1.4,2.8L29,1.9h1V7.2z"/>
				<path fill="#FFFFFF" d="M34.2,5.1v0.4h-2.4c0,0.5,0.3,0.9,0.9,0.9c0.4,0,0.6-0.1,0.9-0.4l0.6,0.6c-0.4,0.4-0.8,0.6-1.5,0.6
					c-0.9,0-1.8-0.4-1.8-2c0-1.3,0.7-2,1.7-2C33.6,3.3,34.2,4,34.2,5.1z M31.8,4.5c-0.1,0.1-0.1,0.2-0.1,0.4h1.5
					c0-0.2,0-0.3-0.1-0.4c-0.1-0.2-0.3-0.4-0.7-0.4C32.2,4.1,31.9,4.2,31.8,4.5z"/>
				<path fill="#FFFFFF" d="M36.2,3.4h0.7v0.7h-0.7V6c0,0.2,0.1,0.4,0.3,0.4h0.4v0.8h-0.5c-0.8,0-1.1-0.6-1.1-1.1V4.2h-0.4V3.4h0.4
					V2.3h1V3.4z"/>
				<path fill="#FFFFFF" d="M40.6,3.6l-0.7,0.7c-0.1-0.1-0.3-0.2-0.5-0.2c-0.3,0-0.6,0.2-0.6,0.7v2.3h-1V3.3h0.9v0.4
					c0.2-0.2,0.6-0.4,1-0.4C40,3.3,40.3,3.3,40.6,3.6z"/>
				<path fill="#FFFFFF" d="M43.7,6.8C43.4,7,43,7.2,42.5,7.2c-0.6,0-1-0.2-1.2-0.5c-0.4-0.4-0.4-0.8-0.4-1.5c0-0.7,0.1-1.1,0.4-1.5
					c0.2-0.3,0.6-0.5,1.2-0.5c0.6,0,1,0.2,1.2,0.5c0.4,0.4,0.4,0.8,0.4,1.5C44.1,5.9,44,6.4,43.7,6.8z M42.9,4.3
					c-0.1-0.1-0.3-0.2-0.5-0.2c-0.2,0-0.3,0.1-0.4,0.2c-0.2,0.2-0.2,0.5-0.2,0.9c0,0.4,0,0.8,0.2,1c0.1,0.1,0.3,0.2,0.4,0.2
					c0.2,0,0.3-0.1,0.5-0.2c0.2-0.2,0.2-0.5,0.2-1C43.1,4.8,43.1,4.5,42.9,4.3z"/>
				<path fill="#FFFFFF" d="M6,10.3H4.6v4.4h-1v-4.4H2.1V9.3H6V10.3z"/>
				<path fill="#FFFFFF" d="M9.2,11.1l-0.7,0.7c-0.1-0.2-0.3-0.2-0.5-0.2c-0.3,0-0.6,0.2-0.6,0.7v2.3h-1v-3.9h0.9v0.4
					c0.2-0.2,0.6-0.4,1-0.4C8.7,10.7,8.9,10.8,9.2,11.1z"/>
				<path fill="#FFFFFF" d="M12.6,12.1v2.6h-0.9v-0.3c-0.3,0.3-0.5,0.4-1,0.4c-0.4,0-0.8-0.1-1-0.3c-0.2-0.2-0.3-0.5-0.3-0.9
					c0-0.6,0.4-1.1,1.3-1.1h0.9v-0.2c0-0.4-0.2-0.6-0.7-0.6c-0.4,0-0.5,0.1-0.7,0.3l-0.6-0.6c0.4-0.4,0.7-0.6,1.4-0.6
					C12,10.7,12.6,11.2,12.6,12.1z M10.9,13c-0.4,0-0.6,0.2-0.6,0.4c0,0.3,0.2,0.4,0.6,0.4c0.2,0,0.4,0,0.6-0.2
					c0.1-0.1,0.1-0.2,0.1-0.5V13H10.9z"/>
				<path fill="#FFFFFF" d="M16.4,11.1c0.3,0.3,0.4,0.7,0.4,1.1v2.5h-1v-2.4c0-0.5-0.3-0.7-0.6-0.7c-0.3,0-0.7,0.2-0.7,0.7v2.4h-1
					v-3.9h0.9v0.4c0.3-0.3,0.6-0.4,1-0.4C15.9,10.7,16.2,10.8,16.4,11.1z"/>
				<path fill="#FFFFFF" d="M20.6,11.2L20,11.8c-0.2-0.2-0.6-0.3-0.9-0.3c-0.4,0-0.6,0.2-0.6,0.4c0,0.2,0.1,0.3,0.4,0.3l0.6,0.1
					c0.8,0.1,1.2,0.5,1.2,1.1c0,0.9-0.7,1.3-1.7,1.3c-0.6,0-1.2-0.1-1.7-0.6l0.6-0.6c0.3,0.3,0.7,0.4,1,0.4c0.3,0,0.7-0.1,0.7-0.4
					c0-0.2-0.1-0.3-0.4-0.4l-0.6-0.1C18,13,17.6,12.7,17.6,12c0-0.8,0.7-1.2,1.5-1.2C19.7,10.7,20.2,10.8,20.6,11.2z"/>
				<path fill="#FFFFFF" d="M22.4,10.1h-1V9.3h1V10.1z M22.4,14.7h-1v-3.8h1V14.7z"/>
				<path fill="#FFFFFF" d="M24.5,10.9h0.7v0.7h-0.7v1.9c0,0.2,0.1,0.4,0.3,0.4h0.4v0.8h-0.5c-0.8,0-1.1-0.6-1.1-1.1v-1.9h-0.4v-0.7
					h0.4V9.7h1V10.9z"/>
				<path fill="#FFFFFF" d="M31.5,11h-1.1c-0.1-0.4-0.4-0.8-0.9-0.8c-0.3,0-0.5,0.1-0.7,0.3c-0.2,0.2-0.3,0.5-0.3,1.5
					c0,1,0.1,1.3,0.3,1.5c0.1,0.2,0.4,0.3,0.7,0.3c0.5,0,0.8-0.3,0.9-0.8h1.1c-0.2,1.1-1,1.7-2,1.7c-0.6,0-1.1-0.2-1.4-0.6
					c-0.5-0.5-0.5-1.1-0.5-2.1c0-1,0-1.6,0.5-2.1c0.4-0.4,0.8-0.6,1.4-0.6C30.5,9.3,31.3,9.9,31.5,11z"/>
				<path fill="#FFFFFF" d="M35.5,12.6V13H33c0,0.5,0.3,0.9,0.9,0.9c0.4,0,0.6-0.1,0.9-0.4l0.6,0.6c-0.4,0.4-0.8,0.6-1.5,0.6
					c-0.9,0-1.8-0.4-1.8-2c0-1.3,0.7-2,1.7-2C34.9,10.7,35.5,11.5,35.5,12.6z M33.1,11.9c-0.1,0.1-0.1,0.2-0.1,0.4h1.5
					c0-0.2,0-0.3-0.1-0.4c-0.1-0.2-0.3-0.4-0.7-0.4C33.4,11.5,33.2,11.7,33.1,11.9z"/>
				<path fill="#FFFFFF" d="M39.2,11.1c0.3,0.3,0.4,0.7,0.4,1.1v2.5h-1v-2.4c0-0.5-0.3-0.7-0.6-0.7c-0.3,0-0.7,0.2-0.7,0.7v2.4h-1
					v-3.9h0.9v0.4c0.3-0.3,0.6-0.4,1-0.4C38.6,10.7,38.9,10.8,39.2,11.1z"/>
				<path fill="#FFFFFF" d="M41.6,10.9h0.7v0.7h-0.7v1.9c0,0.2,0.1,0.4,0.3,0.4h0.4v0.8h-0.5c-0.8,0-1.1-0.6-1.1-1.1v-1.9h-0.4v-0.7
					h0.4V9.7h1V10.9z"/>
				<path fill="#FFFFFF" d="M46.3,12.6V13h-2.4c0,0.5,0.3,0.9,0.9,0.9c0.4,0,0.6-0.1,0.9-0.4l0.6,0.6c-0.4,0.4-0.8,0.6-1.5,0.6
					c-0.9,0-1.8-0.4-1.8-2c0-1.3,0.7-2,1.7-2C45.7,10.7,46.3,11.5,46.3,12.6z M43.9,11.9c-0.1,0.1-0.1,0.2-0.1,0.4h1.5
					c0-0.2,0-0.3-0.1-0.4c-0.1-0.2-0.3-0.4-0.7-0.4C44.2,11.5,44,11.7,43.9,11.9z"/>
				<path fill="#FFFFFF" d="M50,11.1l-0.7,0.7c-0.1-0.2-0.3-0.2-0.5-0.2c-0.3,0-0.6,0.2-0.6,0.7v2.3h-1v-3.9h0.9v0.4
					c0.2-0.2,0.6-0.4,1-0.4C49.4,10.7,49.7,10.8,50,11.1z"/>
			</g>
		</g>
		<g>
			<g>
				<path fill="#FFFFFF" d="M22.3,22.2c0-2,1.7-3.7,3.7-3.7c2,0,3.7,1.7,3.7,3.7c0,2-1.7,3.7-3.7,3.7C24,25.9,22.3,24.3,22.3,22.2z"
					/>
			</g>
			<g>
				<path fill="none" stroke="#6B6B6B" stroke-width="2.0608" d="M22.3,22.2c0-2,1.7-3.7,3.7-3.7c2,0,3.7,1.7,3.7,3.7
					c0,2-1.7,3.7-3.7,3.7C24,25.9,22.3,24.3,22.3,22.2z"/>
			</g>
		</g>
	</g>
</g>
<g id="Isolation_Mode">
</g>
</svg>
