<?xml version="1.0" encoding="utf-8"?>
<!-- Generator: Adobe Illustrator 26.0.3, SVG Export Plug-In . SVG Version: 6.00 Build 0)  -->
<svg version="1.1" xmlns="http://www.w3.org/2000/svg" xmlns:xlink="http://www.w3.org/1999/xlink" x="0px" y="0px"
	 viewBox="0 0 52 27" enable-background="new 0 0 52 27" xml:space="preserve">
<g id="Layer_1">
	<g>
		<g>
			<rect y="0" fill="#231F20" width="52" height="16.9"/>
			<text transform="matrix(1 0 0 1 7.3982 7.1967)"><tspan x="0" y="0" fill="#FFFFFF" font-family="'DINPro-Bold'" font-size="7.4723px">L</tspan><tspan x="4.4" y="0" fill="#FFFFFF" font-family="'DINPro-Bold'" font-size="7.4723px">A</tspan><tspan x="9.5" y="0" fill="#FFFFFF" font-family="'DINPro-Bold'" font-size="7.4723px">X</tspan><tspan x="14.1" y="0" fill="#FFFFFF" font-family="'DINPro-Bold'" font-size="7.4723px">/</tspan><tspan x="17.1" y="0" fill="#FFFFFF" font-family="'DINPro-Bold'" font-size="7.4723px">M</tspan><tspan x="23.1" y="0" fill="#FFFFFF" font-family="'DINPro-Bold'" font-size="7.4723px">et</tspan><tspan x="29.8" y="0" fill="#FFFFFF" font-family="'DINPro-Bold'" font-size="7.4723px">r</tspan><tspan x="33" y="0" fill="#FFFFFF" font-family="'DINPro-Bold'" font-size="7.4723px">o</tspan><tspan x="-5.5" y="7.5" fill="#FFFFFF" font-family="'DINPro-Bold'" font-size="7.4723px">T</tspan><tspan x="-1.6" y="7.5" fill="#FFFFFF" font-family="'DINPro-Bold'" font-size="7.4723px">r</tspan><tspan x="1.7" y="7.5" fill="#FFFFFF" font-family="'DINPro-Bold'" font-size="7.4723px">ansit </tspan><tspan x="19.7" y="7.5" fill="#FFFFFF" font-family="'DINPro-Bold'" font-size="7.4723px">C</tspan><tspan x="24.3" y="7.5" fill="#FFFFFF" font-family="'DINPro-Bold'" font-size="7.4723px">en</tspan><tspan x="32.6" y="7.5" fill="#FFFFFF" font-family="'DINPro-Bold'" font-size="7.4723px">t</tspan><tspan x="35.1" y="7.5" fill="#FFFFFF" font-family="'DINPro-Bold'" font-size="7.4723px">er</tspan></text>
		</g>
		<g>
			<g>
				<path fill="#FFFFFF" d="M22.3,22.2c0-2,1.7-3.7,3.7-3.7c2,0,3.7,1.7,3.7,3.7c0,2-1.7,3.7-3.7,3.7C24,25.9,22.3,24.3,22.3,22.2z"
					/>
			</g>
			<g>
				<path fill="none" stroke="#6B6B6B" stroke-width="2.0608" d="M22.3,22.2c0-2,1.7-3.7,3.7-3.7c2,0,3.7,1.7,3.7,3.7
					c0,2-1.7,3.7-3.7,3.7C24,25.9,22.3,24.3,22.3,22.2z"/>
			</g>
		</g>
	</g>
</g>
<g id="Isolation_Mode">
</g>
</svg>
