<?xml version="1.0" encoding="utf-8"?>
<!-- Generator: Adobe Illustrator 26.0.3, SVG Export Plug-In . SVG Version: 6.00 Build 0)  -->
<svg version="1.1" xmlns="http://www.w3.org/2000/svg" xmlns:xlink="http://www.w3.org/1999/xlink" x="0px" y="0px"
	 viewBox="0 0 57.5 20" enable-background="new 0 0 57.5 20" xml:space="preserve">
<g id="Layer_1">
	<g>
		<rect x="-45.9" y="352.2" fill="#231F20" width="41.2" height="16.9"/>
		<text transform="matrix(1 0 0 1 -40.7202 359.3718)"><tspan x="0" y="0" fill="#FFFFFF" font-family="'DINPro-Bold'" font-size="7.4723px">A</tspan><tspan x="4.6" y="0" fill="#FFFFFF" font-family="'DINPro-Bold'" font-size="7.4723px">viation/</tspan><tspan x="1.7" y="7.5" fill="#FFFFFF" font-family="'DINPro-Bold'" font-size="7.4723px">C</tspan><tspan x="6.3" y="7.5" fill="#FFFFFF" font-family="'DINPro-Bold'" font-size="7.4723px">entu</tspan><tspan x="21.6" y="7.5" fill="#FFFFFF" font-family="'DINPro-Bold'" font-size="7.4723px">r</tspan><tspan x="25.1" y="7.5" fill="#FFFFFF" font-family="'DINPro-Bold'" font-size="7.4723px">y</tspan></text>
	</g>
	<g>
		<g>
			<rect x="143.1" y="-7.4" fill="#231F20" width="38.2" height="16.9"/>
			<text transform="matrix(1 0 0 1 152.5879 -0.1901)"><tspan x="0" y="0" fill="#FFFFFF" font-family="'DINPro-Bold'" font-size="7.4723px">Expo/ </tspan><tspan x="-7.1" y="7.5" fill="#FFFFFF" font-family="'DINPro-Bold'" font-size="7.4723px">C</tspan><tspan x="-2.4" y="7.5" fill="#FFFFFF" font-family="'DINPro-Bold'" font-size="7.4723px">r</tspan><tspan x="0.7" y="7.5" fill="#FFFFFF" font-family="'DINPro-Bold'" font-size="7.4723px">enshaw</tspan></text>
		</g>
		<g>
			<g>
				<path fill="#FFFFFF" d="M158.5,14.8c0-2,1.7-3.7,3.7-3.7c2,0,3.7,1.7,3.7,3.7c0,2-1.7,3.7-3.7,3.7
					C160.1,18.6,158.5,16.9,158.5,14.8z"/>
				<path fill="#FFFFFF" d="M162.2,14.8"/>
			</g>
			<g>
				<path fill="none" stroke="#231F20" stroke-width="2.0608" d="M158.5,14.8c0-2,1.7-3.7,3.7-3.7c2,0,3.7,1.7,3.7,3.7
					c0,2-1.7,3.7-3.7,3.7C160.1,18.6,158.5,16.9,158.5,14.8z"/>
				<path fill="none" stroke="#231F20" stroke-width="2.0608" d="M162.2,14.8"/>
			</g>
		</g>
	</g>
	<g>
		<g>
			<g>
				<rect x="138.5" y="93" fill="#231F20" width="31" height="16.9"/>
			</g>
			<text transform="matrix(1 0 0 1 140.2072 100.1884)"><tspan x="0" y="0" fill="#FFFFFF" font-family="'DINPro-Bold'" font-size="7.4723px">Leime</tspan><tspan x="21.1" y="0" fill="#FFFFFF" font-family="'DINPro-Bold'" font-size="7.4723px">r</tspan><tspan x="24.5" y="0" fill="#FFFFFF" font-family="'DINPro-Bold'" font-size="7.4723px">t </tspan><tspan x="5.5" y="7.5" fill="#FFFFFF" font-family="'DINPro-Bold'" font-size="7.4723px">P</tspan><tspan x="10.1" y="7.5" fill="#FFFFFF" font-family="'DINPro-Bold'" font-size="7.4723px">ark</tspan></text>
		</g>
	</g>
	<g>
		<g>
			<rect x="123.9" y="57.1" fill="#231F20" width="49" height="16.9"/>
			<text transform="matrix(1 0 0 1 124.9328 64.3087)"><tspan x="0" y="0" fill="#FFFFFF" font-family="'DINPro-Bold'" font-size="7.4723px">Ma</tspan><tspan x="9.9" y="0" fill="#FFFFFF" font-family="'DINPro-Bold'" font-size="7.4723px">r</tspan><tspan x="13.3" y="0" fill="#FFFFFF" font-family="'DINPro-Bold'" font-size="7.4723px">tin Luther </tspan><tspan x="11.2" y="7.5" fill="#FFFFFF" font-family="'DINPro-Bold'" font-size="7.4723px">King Jr</tspan></text>
		</g>
		<g>
			<g>
				<path fill="#FFFFFF" d="M144.7,79.3c0-2,1.7-3.7,3.7-3.7c2,0,3.7,1.7,3.7,3.7c0,2-1.7,3.7-3.7,3.7
					C146.3,83.1,144.7,81.4,144.7,79.3z"/>
				<path fill="#FFFFFF" d="M148.4,79.3"/>
			</g>
			<g>
				<path fill="none" stroke="#231F20" stroke-width="2.0608" d="M144.7,79.3c0-2,1.7-3.7,3.7-3.7c2,0,3.7,1.7,3.7,3.7
					c0,2-1.7,3.7-3.7,3.7C146.3,83.1,144.7,81.4,144.7,79.3z"/>
				<path fill="none" stroke="#231F20" stroke-width="2.0608" d="M148.4,79.3"/>
			</g>
		</g>
	</g>
	<g>
		<g>
			<rect x="3.2" y="167.9" fill="#231F20" width="50" height="9.9"/>
			<text transform="matrix(1 0 0 1 6.108 175.1024)"><tspan x="0" y="0" fill="#FFFFFF" font-family="'DINPro-Bold'" font-size="7.4723px">Leime</tspan><tspan x="21.1" y="0" fill="#FFFFFF" font-family="'DINPro-Bold'" font-size="7.4723px">r</tspan><tspan x="24.5" y="0" fill="#FFFFFF" font-family="'DINPro-Bold'" font-size="7.4723px">t </tspan><tspan x="28.9" y="0" fill="#FFFFFF" font-family="'DINPro-Bold'" font-size="7.4723px">P</tspan><tspan x="33.5" y="0" fill="#FFFFFF" font-family="'DINPro-Bold'" font-size="7.4723px">ark</tspan></text>
		</g>
		<g>
			<g>
				<path fill="#FFFFFF" d="M24.5,183.1c0-2,1.7-3.7,3.7-3.7c2,0,3.7,1.7,3.7,3.7c0,2-1.7,3.7-3.7,3.7
					C26.1,186.8,24.5,185.2,24.5,183.1z"/>
				<path fill="#FFFFFF" d="M28.2,183.1"/>
			</g>
			<g>
				<path fill="none" stroke="#231F20" stroke-width="2.0608" d="M24.5,183.1c0-2,1.7-3.7,3.7-3.7c2,0,3.7,1.7,3.7,3.7
					c0,2-1.7,3.7-3.7,3.7C26.1,186.8,24.5,185.2,24.5,183.1z"/>
				<path fill="none" stroke="#231F20" stroke-width="2.0608" d="M28.2,183.1"/>
			</g>
		</g>
	</g>
	<g>
		<g>
			<g>
				<path fill="#FFFFFF" d="M24.5,4.8c0-2,1.7-3.7,3.7-3.7c2,0,3.7,1.7,3.7,3.7c0,2-1.7,3.7-3.7,3.7C26.1,8.5,24.5,6.8,24.5,4.8z"/>
				<path fill="#FFFFFF" d="M28.2,4.8"/>
			</g>
			<g>
				<path fill="none" stroke="#231F20" stroke-width="2.0608" d="M24.5,4.8c0-2,1.7-3.7,3.7-3.7c2,0,3.7,1.7,3.7,3.7
					c0,2-1.7,3.7-3.7,3.7C26.1,8.5,24.5,6.8,24.5,4.8z"/>
				<path fill="none" stroke="#231F20" stroke-width="2.0608" d="M28.2,4.8"/>
			</g>
		</g>
	</g>
	<g>
		<g>
			<rect x="88" y="167.9" fill="#231F20" width="40" height="9.9"/>
			<text transform="matrix(1 0 0 1 90.9514 175.1024)"><tspan x="0" y="0" fill="#FFFFFF" font-family="'DINPro-Bold'" font-size="7.4723px">H</tspan><tspan x="5.1" y="0" fill="#FFFFFF" font-family="'DINPro-Bold'" font-size="7.4723px">y</tspan><tspan x="8.8" y="0" fill="#FFFFFF" font-family="'DINPro-Bold'" font-size="7.4723px">de </tspan><tspan x="18.8" y="0" fill="#FFFFFF" font-family="'DINPro-Bold'" font-size="7.4723px">P</tspan><tspan x="23.4" y="0" fill="#FFFFFF" font-family="'DINPro-Bold'" font-size="7.4723px">ark</tspan></text>
		</g>
		<g>
			<g>
				<path fill="#FFFFFF" d="M104.3,183.1c0-2,1.7-3.7,3.7-3.7c2,0,3.7,1.7,3.7,3.7c0,2-1.7,3.7-3.7,3.7
					C105.9,186.8,104.3,185.2,104.3,183.1z"/>
				<path fill="#FFFFFF" d="M108,183.1"/>
			</g>
			<g>
				<path fill="none" stroke="#231F20" stroke-width="2.0608" d="M104.3,183.1c0-2,1.7-3.7,3.7-3.7c2,0,3.7,1.7,3.7,3.7
					c0,2-1.7,3.7-3.7,3.7C105.9,186.8,104.3,185.2,104.3,183.1z"/>
				<path fill="none" stroke="#231F20" stroke-width="2.0608" d="M108,183.1"/>
			</g>
		</g>
	</g>
	<g>
		<g>
			<rect x="109.1" y="231.2" fill="#231F20" width="36" height="16.9"/>
			<text transform="matrix(1 0 0 1 112.3018 238.4298)"><tspan x="0" y="0" fill="#FFFFFF" font-family="'DINPro-Bold'" font-size="7.4723px">F</tspan><tspan x="4.2" y="0" fill="#FFFFFF" font-family="'DINPro-Bold'" font-size="7.4723px">ai</tspan><tspan x="10.2" y="0" fill="#FFFFFF" font-family="'DINPro-Bold'" font-size="7.4723px">r</tspan><tspan x="13.7" y="0" fill="#FFFFFF" font-family="'DINPro-Bold'" font-size="7.4723px">vi</tspan><tspan x="19.4" y="0" fill="#FFFFFF" font-family="'DINPro-Bold'" font-size="7.4723px">e</tspan><tspan x="23.5" y="0" fill="#FFFFFF" font-family="'DINPro-Bold'" font-size="7.4723px">w </tspan><tspan x="1.5" y="7.5" fill="#FFFFFF" font-family="'DINPro-Bold'" font-size="7.4723px">Heigh</tspan><tspan x="21.2" y="7.5" fill="#FFFFFF" font-family="'DINPro-Bold'" font-size="7.4723px">t</tspan><tspan x="23.9" y="7.5" fill="#FFFFFF" font-family="'DINPro-Bold'" font-size="7.4723px">s</tspan></text>
		</g>
		<g>
			<g>
				<path fill="#FFFFFF" d="M123.4,253.5c0-2,1.7-3.7,3.7-3.7c2,0,3.7,1.7,3.7,3.7c0,2-1.7,3.7-3.7,3.7
					C125,257.2,123.4,255.5,123.4,253.5z"/>
				<path fill="#FFFFFF" d="M127.1,253.5"/>
			</g>
			<g>
				<path fill="none" stroke="#231F20" stroke-width="2.0608" d="M123.4,253.5c0-2,1.7-3.7,3.7-3.7c2,0,3.7,1.7,3.7,3.7
					c0,2-1.7,3.7-3.7,3.7C125,257.2,123.4,255.5,123.4,253.5z"/>
				<path fill="none" stroke="#231F20" stroke-width="2.0608" d="M127.1,253.5"/>
			</g>
		</g>
	</g>
	<g>
		<g>
			<rect x="53.3" y="263.4" fill="#231F20" width="41.2" height="16.9"/>
			<text transform="matrix(1 0 0 1 55.9693 270.6067)"><tspan x="0" y="0" fill="#FFFFFF" font-family="'DINPro-Bold'" font-size="7.4723px">D</tspan><tspan x="4.9" y="0" fill="#FFFFFF" font-family="'DINPro-Bold'" font-size="7.4723px">o</tspan><tspan x="8.9" y="0" fill="#FFFFFF" font-family="'DINPro-Bold'" font-size="7.4723px">wn</tspan><tspan x="18.9" y="0" fill="#FFFFFF" font-family="'DINPro-Bold'" font-size="7.4723px">to</tspan><tspan x="25.5" y="0" fill="#FFFFFF" font-family="'DINPro-Bold'" font-size="7.4723px">wn </tspan><tspan x="0.2" y="7.5" fill="#FFFFFF" font-family="'DINPro-Bold'" font-size="7.4723px">Ing</tspan><tspan x="10.9" y="7.5" fill="#FFFFFF" font-family="'DINPro-Bold'" font-size="7.4723px">l</tspan><tspan x="13.3" y="7.5" fill="#FFFFFF" font-family="'DINPro-Bold'" font-size="7.4723px">ew</tspan><tspan x="23" y="7.5" fill="#FFFFFF" font-family="'DINPro-Bold'" font-size="7.4723px">ood</tspan></text>
		</g>
		<g>
			<g>
				<path fill="#FFFFFF" d="M70.2,285.6c0-2,1.7-3.7,3.7-3.7c2,0,3.7,1.7,3.7,3.7c0,2-1.7,3.7-3.7,3.7
					C71.9,289.3,70.2,287.7,70.2,285.6z"/>
				<path fill="#FFFFFF" d="M73.9,285.6"/>
			</g>
			<g>
				<path fill="none" stroke="#231F20" stroke-width="2.0608" d="M70.2,285.6c0-2,1.7-3.7,3.7-3.7c2,0,3.7,1.7,3.7,3.7
					c0,2-1.7,3.7-3.7,3.7C71.9,289.3,70.2,287.7,70.2,285.6z"/>
				<path fill="none" stroke="#231F20" stroke-width="2.0608" d="M73.9,285.6"/>
			</g>
		</g>
	</g>
	<g>
		<g>
			<rect x="-37.3" y="290.7" fill="#231F20" width="51" height="16.9"/>
			<text transform="matrix(1 0 0 1 -34.6108 297.9142)"><tspan x="0" y="0" fill="#FFFFFF" font-family="'DINPro-Bold'" font-size="7.4723px">W</tspan><tspan x="6.3" y="0" fill="#FFFFFF" font-family="'DINPro-Bold'" font-size="7.4723px">e</tspan><tspan x="10.4" y="0" fill="#FFFFFF" font-family="'DINPro-Bold'" font-size="7.4723px">s</tspan><tspan x="14.1" y="0" fill="#FFFFFF" font-family="'DINPro-Bold'" font-size="7.4723px">t</tspan><tspan x="16.7" y="0" fill="#FFFFFF" font-family="'DINPro-Bold'" font-size="7.4723px">che</tspan><tspan x="28.7" y="0" fill="#FFFFFF" font-family="'DINPro-Bold'" font-size="7.4723px">s</tspan><tspan x="32.4" y="0" fill="#FFFFFF" font-family="'DINPro-Bold'" font-size="7.4723px">t</tspan><tspan x="35" y="0" fill="#FFFFFF" font-family="'DINPro-Bold'" font-size="7.4723px">e</tspan><tspan x="39.1" y="0" fill="#FFFFFF" font-family="'DINPro-Bold'" font-size="7.4723px">r</tspan><tspan x="42.1" y="0.5" fill="#FFFFFF" font-family="'DINPro-Bold'" font-size="7.4723px">/ </tspan><tspan x="7.5" y="7.5" fill="#FFFFFF" font-family="'DINPro-Bold'" font-size="7.4723px">V</tspan><tspan x="11.5" y="7.5" fill="#FFFFFF" font-family="'DINPro-Bold'" font-size="7.4723px">e</tspan><tspan x="15.6" y="7.5" fill="#FFFFFF" font-family="'DINPro-Bold'" font-size="7.4723px">t</tspan><tspan x="18.2" y="7.5" fill="#FFFFFF" font-family="'DINPro-Bold'" font-size="7.4723px">e</tspan><tspan x="22.3" y="7.5" fill="#FFFFFF" font-family="'DINPro-Bold'" font-size="7.4723px">r</tspan><tspan x="25.6" y="7.5" fill="#FFFFFF" font-family="'DINPro-Bold'" font-size="7.4723px">ans</tspan></text>
		</g>
		<g>
			<g>
				<path fill="#FFFFFF" d="M-15.5,312.9c0-2,1.7-3.7,3.7-3.7c2,0,3.7,1.7,3.7,3.7c0,2-1.7,3.7-3.7,3.7
					C-13.9,316.7-15.5,315-15.5,312.9z"/>
				<path fill="#FFFFFF" d="M-11.8,312.9"/>
			</g>
			<g>
				<path fill="none" stroke="#231F20" stroke-width="2.0608" d="M-15.5,312.9c0-2,1.7-3.7,3.7-3.7c2,0,3.7,1.7,3.7,3.7
					c0,2-1.7,3.7-3.7,3.7C-13.9,316.7-15.5,315-15.5,312.9z"/>
				<path fill="none" stroke="#231F20" stroke-width="2.0608" d="M-11.8,312.9"/>
			</g>
		</g>
	</g>
	<g>
		<g>
			<rect x="-45.9" y="321.2" fill="#231F20" width="49.3" height="16.9"/>
			<text transform="matrix(1 0 0 1 -44.1183 328.4352)"><tspan x="0" y="0" fill="#FFFFFF" font-family="'DINPro-Bold'" font-size="7.4723px">Airpo</tspan><tspan x="18.2" y="0" fill="#FFFFFF" font-family="'DINPro-Bold'" font-size="7.4723px">r</tspan><tspan x="21.5" y="0" fill="#FFFFFF" font-family="'DINPro-Bold'" font-size="7.4723px">t Met</tspan><tspan x="38.4" y="0" fill="#FFFFFF" font-family="'DINPro-Bold'" font-size="7.4723px">r</tspan><tspan x="41.5" y="0" fill="#FFFFFF" font-family="'DINPro-Bold'" font-size="7.4723px">o</tspan><tspan x="5.5" y="7.5" fill="#FFFFFF" font-family="'DINPro-Bold'" font-size="7.4723px">C</tspan><tspan x="10.1" y="7.5" fill="#FFFFFF" font-family="'DINPro-Bold'" font-size="7.4723px">onnec</tspan><tspan x="30.1" y="7.5" fill="#FFFFFF" font-family="'DINPro-Bold'" font-size="7.4723px">t</tspan><tspan x="32.7" y="7.5" fill="#FFFFFF" font-family="'DINPro-Bold'" font-size="7.4723px">or</tspan></text>
		</g>
		<g>
			<g>
				<path fill="#FFFFFF" d="M-25,343.5c0-2,1.7-3.7,3.7-3.7c2,0,3.7,1.7,3.7,3.7c0,2-1.7,3.7-3.7,3.7C-23.3,347.2-25,345.5-25,343.5
					z"/>
				<path fill="#FFFFFF" d="M-21.3,343.5"/>
			</g>
			<g>
				<path fill="none" stroke="#636466" stroke-width="2.0608" d="M-25,343.5c0-2,1.7-3.7,3.7-3.7c2,0,3.7,1.7,3.7,3.7
					c0,2-1.7,3.7-3.7,3.7C-23.3,347.2-25,345.5-25,343.5z"/>
				<path fill="none" stroke="#231F20" stroke-width="2.0608" d="M-21.3,343.5"/>
			</g>
		</g>
	</g>
	<g>
		<g>
			<path fill="#FFFFFF" d="M-29,374.4c0-2,1.7-3.7,3.7-3.7c2,0,3.7,1.7,3.7,3.7c0,2-1.7,3.7-3.7,3.7C-27.3,378.1-29,376.5-29,374.4z
				"/>
			<path fill="#FFFFFF" d="M-25.3,374.4"/>
		</g>
		<g>
			<path fill="none" stroke="#231F20" stroke-width="2.0608" d="M-29,374.4c0-2,1.7-3.7,3.7-3.7c2,0,3.7,1.7,3.7,3.7
				c0,2-1.7,3.7-3.7,3.7C-27.3,378.1-29,376.5-29,374.4z"/>
			<path fill="none" stroke="#231F20" stroke-width="2.0608" d="M-25.3,374.4"/>
		</g>
	</g>
	<g>
		<g>
			<polygon fill="#231F20" points="32.6,413.6 96.4,413.6 96.4,423 32.6,423 32.6,413.6 			"/>
			<text transform="matrix(1 0 0 1 35.8021 420.7458)"><tspan x="0" y="0" fill="#FFFFFF" font-family="'DINPro-Bold'" font-size="7.4723px">A</tspan><tspan x="4.6" y="0" fill="#FFFFFF" font-family="'DINPro-Bold'" font-size="7.4723px">viation/</tspan><tspan x="30.4" y="0" fill="#FFFFFF" font-family="'DINPro-Bold'" font-size="7.4723px">C</tspan><tspan x="35.1" y="0" fill="#FFFFFF" font-family="'DINPro-Bold'" font-size="7.4723px">entu</tspan><tspan x="50.3" y="0" fill="#FFFFFF" font-family="'DINPro-Bold'" font-size="7.4723px">r</tspan><tspan x="53.8" y="0" fill="#FFFFFF" font-family="'DINPro-Bold'" font-size="7.4723px">y</tspan></text>
		</g>
		<g>
			<g>
				<path fill="#FFFFFF" d="M60.8,428.3c0-2,1.7-3.7,3.7-3.7c2,0,3.7,1.7,3.7,3.7c0,2-1.7,3.7-3.7,3.7
					C62.5,432,60.8,430.4,60.8,428.3z"/>
				<path fill="#FFFFFF" d="M64.5,428.3"/>
			</g>
			<g>
				<path fill="none" stroke="#636466" stroke-width="2.0608" d="M60.8,428.3c0-2,1.7-3.7,3.7-3.7c2,0,3.7,1.7,3.7,3.7
					c0,2-1.7,3.7-3.7,3.7C62.5,432,60.8,430.4,60.8,428.3z"/>
				<path fill="none" stroke="#58595B" stroke-width="2.0608" d="M64.5,428.3"/>
			</g>
		</g>
	</g>
	<g>
		<g>
			<polygon fill="#231F20" points="-50,413.6 13.8,413.6 13.8,423 -50,423 -50,413.6 			"/>
			<text transform="matrix(1 0 0 1 -46.7932 420.7458)"><tspan x="0" y="0" fill="#FFFFFF" font-family="'DINPro-Bold'" font-size="7.4723px">A</tspan><tspan x="4.6" y="0" fill="#FFFFFF" font-family="'DINPro-Bold'" font-size="7.4723px">viation/</tspan><tspan x="30.4" y="0" fill="#FFFFFF" font-family="'DINPro-Bold'" font-size="7.4723px">C</tspan><tspan x="35.1" y="0" fill="#FFFFFF" font-family="'DINPro-Bold'" font-size="7.4723px">entu</tspan><tspan x="50.3" y="0" fill="#FFFFFF" font-family="'DINPro-Bold'" font-size="7.4723px">r</tspan><tspan x="53.8" y="0" fill="#FFFFFF" font-family="'DINPro-Bold'" font-size="7.4723px">y</tspan></text>
		</g>
		<g>
			<g>
				<path fill="#FFFFFF" d="M-21.8,428.3c0-2,1.7-3.7,3.7-3.7c2,0,3.7,1.7,3.7,3.7c0,2-1.7,3.7-3.7,3.7
					C-20.1,432-21.8,430.4-21.8,428.3z"/>
				<path fill="#FFFFFF" d="M-18,428.3"/>
			</g>
			<g>
				<path fill="none" stroke="#636466" stroke-width="2.0608" d="M-21.8,428.3c0-2,1.7-3.7,3.7-3.7c2,0,3.7,1.7,3.7,3.7
					c0,2-1.7,3.7-3.7,3.7C-20.1,432-21.8,430.4-21.8,428.3z"/>
				<path fill="none" stroke="#58595B" stroke-width="2.0608" d="M-18,428.3"/>
			</g>
		</g>
	</g>
	<g>
		<polygon fill="#231F20" points="-110.4,413.6 -60,413.6 -60,423 -110.4,423 -110.4,413.6 		"/>
		<text transform="matrix(1 0 0 1 -107.2299 420.7458)"><tspan x="0" y="0" fill="#FFFFFF" font-family="'DINPro-Bold'" font-size="7.4723px">A</tspan><tspan x="4.6" y="0" fill="#FFFFFF" font-family="'DINPro-Bold'" font-size="7.4723px">viation/LAX</tspan></text>
	</g>
	<g>
		<g>
			<path fill="#FFFFFF" d="M-98.7,425.9c0-2,1.7-3.7,3.7-3.7c2,0,3.7,1.7,3.7,3.7c0,2-1.7,3.7-3.7,3.7
				C-97,429.6-98.7,427.9-98.7,425.9z"/>
			<path fill="#FFFFFF" d="M-94.9,425.9"/>
		</g>
		<g>
			<path fill="none" stroke="#231F20" stroke-width="2.0608" d="M-98.7,425.9c0-2,1.7-3.7,3.7-3.7c2,0,3.7,1.7,3.7,3.7
				c0,2-1.7,3.7-3.7,3.7C-97,429.6-98.7,427.9-98.7,425.9z"/>
			<path fill="none" stroke="#231F20" stroke-width="2.0608" d="M-94.9,425.9"/>
		</g>
	</g>
	<g>
		<g>
			<path fill="#FFFFFF" d="M150.3,115.2c0-2,1.7-3.7,3.7-3.7c2,0,3.7,1.7,3.7,3.7c0,2-1.7,3.7-3.7,3.7
				C151.9,118.9,150.3,117.3,150.3,115.2z"/>
			<path fill="#FFFFFF" d="M154,115.2"/>
		</g>
		<g>
			<path fill="none" stroke="#231F20" stroke-width="2.0608" d="M150.3,115.2c0-2,1.7-3.7,3.7-3.7c2,0,3.7,1.7,3.7,3.7
				c0,2-1.7,3.7-3.7,3.7C151.9,118.9,150.3,117.3,150.3,115.2z"/>
			<path fill="none" stroke="#231F20" stroke-width="2.0608" d="M154,115.2"/>
		</g>
	</g>
	<g>
		<g>
			<g>
				<path fill="#FFFFFF" d="M76.6,14.8c0-2,1.7-3.7,3.7-3.7c2,0,3.7,1.7,3.7,3.7c0,2-1.7,3.7-3.7,3.7C78.2,18.5,76.6,16.8,76.6,14.8
					z"/>
				<path fill="#FFFFFF" d="M80.3,14.8"/>
			</g>
			<g>
				<path fill="none" stroke="#231F20" stroke-width="2.0608" d="M76.6,14.8c0-2,1.7-3.7,3.7-3.7c2,0,3.7,1.7,3.7,3.7
					c0,2-1.7,3.7-3.7,3.7C78.2,18.5,76.6,16.8,76.6,14.8z"/>
				<path fill="none" stroke="#231F20" stroke-width="2.0608" d="M80.3,14.8"/>
			</g>
		</g>
		<g>
			<rect x="84.9" y="-5.8" fill="#231F20" width="38.2" height="16.9"/>
			<text transform="matrix(1 0 0 1 94.3697 1.4187)"><tspan x="0" y="0" fill="#FFFFFF" font-family="'DINPro-Bold'" font-size="7.4723px">Expo/ </tspan><tspan x="-7.1" y="7.5" fill="#FFFFFF" font-family="'DINPro-Bold'" font-size="7.4723px">C</tspan><tspan x="-2.4" y="7.5" fill="#FFFFFF" font-family="'DINPro-Bold'" font-size="7.4723px">r</tspan><tspan x="0.7" y="7.5" fill="#FFFFFF" font-family="'DINPro-Bold'" font-size="7.4723px">enshaw</tspan></text>
		</g>
	</g>
</g>
<g id="Isolation_Mode">
	<g>
		<rect y="10" fill="#231F20" width="57.5" height="9.9"/>
		<text transform="matrix(1 0 0 1 1.8453 17.2282)"><tspan x="0" y="0" fill="#FFFFFF" font-family="'DINPro-Bold'" font-size="7.4723px">Expo/C</tspan><tspan x="24.4" y="0" fill="#FFFFFF" font-family="'DINPro-Bold'" font-size="7.4723px">r</tspan><tspan x="27.5" y="0" fill="#FFFFFF" font-family="'DINPro-Bold'" font-size="7.4723px">enshaw</tspan></text>
	</g>
</g>
</svg>
