<?xml version="1.0" encoding="utf-8"?>
<!-- Generator: Adobe Illustrator 26.0.3, SVG Export Plug-In . SVG Version: 6.00 Build 0)  -->
<svg version="1.1" xmlns="http://www.w3.org/2000/svg" xmlns:xlink="http://www.w3.org/1999/xlink" x="0px" y="0px"
	 viewBox="0 0 50 20" enable-background="new 0 0 50 20" xml:space="preserve">
<g id="Layer_1">
	<g>
		<g>
			<g>
				<g>
					<path fill="#FFFFFF" d="M20.7,4.7c0-2,1.7-3.7,3.7-3.7c2,0,3.7,1.7,3.7,3.7c0,2-1.7,3.7-3.7,3.7C22.4,8.4,20.7,6.8,20.7,4.7z"
						/>
				</g>
			</g>
			<g>
				<g>
					<path fill="#231F20" d="M24.4,9.5c-2.6,0-4.7-2.1-4.7-4.7c0-2.6,2.1-4.7,4.7-4.7c2.6,0,4.7,2.1,4.7,4.7
						C29.2,7.4,27,9.5,24.4,9.5z M24.4,2.1c-1.5,0-2.7,1.2-2.7,2.7c0,1.5,1.2,2.7,2.7,2.7c1.5,0,2.7-1.2,2.7-2.7
						C27.1,3.3,25.9,2.1,24.4,2.1z"/>
				</g>
			</g>
		</g>
	</g>
</g>
<g id="Isolation_Mode">
	<g>
		<rect x="0" y="10" fill="#231F20" width="50" height="9.9"/>
		<g>
			<path fill="#FFFFFF" d="M4,16.3h2.4v0.9H3v-5.3h1V16.3z"/>
			<path fill="#FFFFFF" d="M10.4,15.2v0.4H7.9c0,0.5,0.3,0.9,0.9,0.9c0.4,0,0.6-0.1,0.9-0.4l0.6,0.6c-0.4,0.4-0.8,0.6-1.5,0.6
				c-0.9,0-1.8-0.4-1.8-2c0-1.3,0.7-2,1.7-2C9.8,13.3,10.4,14.1,10.4,15.2z M8,14.5c-0.1,0.1-0.1,0.2-0.1,0.4h1.5
				c0-0.2,0-0.3-0.1-0.4c-0.1-0.2-0.3-0.4-0.7-0.4C8.3,14.1,8.1,14.3,8,14.5z"/>
			<path fill="#FFFFFF" d="M12.3,12.7h-1v-0.8h1V12.7z M12.2,17.2h-1v-3.8h1V17.2z"/>
			<path fill="#FFFFFF" d="M18.4,13.6c0.3,0.3,0.4,0.7,0.4,1.1v2.5h-1v-2.4c0-0.5-0.3-0.7-0.6-0.7c-0.3,0-0.7,0.2-0.7,0.7v2.4h-1
				v-2.4c0-0.5-0.3-0.7-0.6-0.7c-0.3,0-0.7,0.2-0.7,0.7v2.4h-1v-3.9h0.9v0.4c0.3-0.3,0.6-0.4,1-0.4c0.4,0,0.8,0.2,1,0.5
				c0.3-0.3,0.7-0.5,1.2-0.5C17.8,13.3,18.2,13.4,18.4,13.6z"/>
			<path fill="#FFFFFF" d="M23.1,15.2v0.4h-2.4c0,0.5,0.3,0.9,0.9,0.9c0.4,0,0.6-0.1,0.9-0.4l0.6,0.6c-0.4,0.4-0.8,0.6-1.5,0.6
				c-0.9,0-1.8-0.4-1.8-2c0-1.3,0.7-2,1.7-2C22.5,13.3,23.1,14.1,23.1,15.2z M20.7,14.5c-0.1,0.1-0.1,0.2-0.1,0.4h1.5
				c0-0.2,0-0.3-0.1-0.4c-0.1-0.2-0.3-0.4-0.7-0.4C21,14.1,20.8,14.3,20.7,14.5z"/>
			<path fill="#FFFFFF" d="M26.8,13.7l-0.7,0.7c-0.1-0.1-0.3-0.2-0.5-0.2c-0.3,0-0.6,0.2-0.6,0.7v2.3h-1v-3.9h0.9v0.4
				c0.2-0.2,0.6-0.4,1-0.4C26.3,13.3,26.5,13.4,26.8,13.7z"/>
			<path fill="#FFFFFF" d="M28.5,13.4h0.7v0.7h-0.7v1.9c0,0.2,0.1,0.4,0.3,0.4h0.4v0.8h-0.5c-0.8,0-1.1-0.6-1.1-1.1v-1.9h-0.4v-0.7
				h0.4v-1.2h1V13.4z"/>
			<path fill="#FFFFFF" d="M33.9,11.9c1.1,0,1.8,0.8,1.8,1.7s-0.7,1.7-1.8,1.7h-1v2h-1v-5.3H33.9z M32.9,12.8v1.5h1
				c0.5,0,0.8-0.3,0.8-0.7c0-0.4-0.3-0.7-0.8-0.7H32.9z"/>
			<path fill="#FFFFFF" d="M39.3,14.7v2.6h-0.9v-0.3c-0.3,0.3-0.5,0.4-1,0.4c-0.4,0-0.8-0.1-1-0.3c-0.2-0.2-0.3-0.5-0.3-0.9
				c0-0.6,0.4-1.1,1.3-1.1h0.9v-0.2c0-0.4-0.2-0.6-0.7-0.6c-0.4,0-0.5,0.1-0.7,0.3l-0.6-0.6c0.4-0.4,0.7-0.6,1.4-0.6
				C38.8,13.3,39.3,13.8,39.3,14.7z M37.6,15.6c-0.4,0-0.6,0.2-0.6,0.4c0,0.3,0.2,0.4,0.6,0.4c0.2,0,0.4,0,0.6-0.2
				c0.1-0.1,0.1-0.2,0.1-0.5v-0.2H37.6z"/>
			<path fill="#FFFFFF" d="M43.2,13.7l-0.7,0.7c-0.1-0.1-0.3-0.2-0.5-0.2c-0.3,0-0.6,0.2-0.6,0.7v2.3h-1v-3.9h0.9v0.4
				c0.2-0.2,0.6-0.4,1-0.4C42.7,13.3,42.9,13.4,43.2,13.7z"/>
			<path fill="#FFFFFF" d="M44.7,14.9l1.3-1.6h1.2l-1.4,1.6l1.5,2.3h-1.2l-1-1.6l-0.4,0.5v1.2h-1v-5.3h1V14.9z"/>
		</g>
	</g>
</g>
</svg>
