<?xml version="1.0" encoding="utf-8"?>
<!-- Generator: Adobe Illustrator 26.0.3, SVG Export Plug-In . SVG Version: 6.00 Build 0)  -->
<svg version="1.1" xmlns="http://www.w3.org/2000/svg" xmlns:xlink="http://www.w3.org/1999/xlink" x="0px" y="0px"
	 viewBox="0 0 63.9 19.4" enable-background="new 0 0 63.9 19.4" xml:space="preserve">
<g id="Layer_1">
	<g>
		<g>
			<polygon fill="#231F20" points="0,0 63.9,0 63.9,9.4 0,9.4 0,0 			"/>
			<text transform="matrix(1 0 0 1 3.2273 7.1182)"><tspan x="0" y="0" fill="#FFFFFF" font-family="'DINPro-Bold'" font-size="7.4723px">A</tspan><tspan x="4.6" y="0" fill="#FFFFFF" font-family="'DINPro-Bold'" font-size="7.4723px">viation/</tspan><tspan x="30.4" y="0" fill="#FFFFFF" font-family="'DINPro-Bold'" font-size="7.4723px">C</tspan><tspan x="35.1" y="0" fill="#FFFFFF" font-family="'DINPro-Bold'" font-size="7.4723px">entu</tspan><tspan x="50.3" y="0" fill="#FFFFFF" font-family="'DINPro-Bold'" font-size="7.4723px">r</tspan><tspan x="53.8" y="0" fill="#FFFFFF" font-family="'DINPro-Bold'" font-size="7.4723px">y</tspan></text>
		</g>
		<g>
			<g>
				<path fill="#FFFFFF" d="M28.3,14.7c0-2,1.7-3.7,3.7-3.7c2,0,3.7,1.7,3.7,3.7c0,2-1.7,3.7-3.7,3.7C29.9,18.4,28.3,16.8,28.3,14.7
					z"/>
			</g>
			<g>
				<path fill="none" stroke="#6B6B6B" stroke-width="2.0608" d="M28.3,14.7c0-2,1.7-3.7,3.7-3.7c2,0,3.7,1.7,3.7,3.7
					c0,2-1.7,3.7-3.7,3.7C29.9,18.4,28.3,16.8,28.3,14.7z"/>
			</g>
		</g>
	</g>
</g>
<g id="Isolation_Mode">
</g>
</svg>
